<?xml version="1.0" encoding="utf-8"?>
<!-- Generator: Adobe Illustrator 27.5.0, SVG Export Plug-In . SVG Version: 6.00 Build 0)  -->
<svg version="1.1" xmlns="http://www.w3.org/2000/svg" xmlns:xlink="http://www.w3.org/1999/xlink" x="0px" y="0px"
	 viewBox="0 0 750 500" style="enable-background:new 0 0 750 500;" xml:space="preserve">
<g id="BACKGROUND">
	<g>
		<defs>
			<polygon id="SVGID_1_" points="0,0 0,426.932 0,453.325 0,500 750,500 750,453.325 750,426.932 750,0 			"/>
		</defs>
		<clipPath id="SVGID_00000098205202722393103410000004774994089021392283_">
			<use xlink:href="#SVGID_1_"  style="overflow:visible;"/>
		</clipPath>
		<g style="clip-path:url(#SVGID_00000098205202722393103410000004774994089021392283_);">
			<rect style="fill:#E2F2F7;" width="750" height="453.325"/>
			<rect y="426.932" style="fill:#94A3B4;" width="750" height="73.068"/>
			
				<linearGradient id="SVGID_00000016791246808949747910000002183904811253911962_" gradientUnits="userSpaceOnUse" x1="707.3619" y1="572.0696" x2="364.9474" y2="71.3131">
				<stop  offset="0.1391" style="stop-color:#130C0E;stop-opacity:0"/>
				<stop  offset="0.6804" style="stop-color:#130C0E;stop-opacity:0.6512"/>
				<stop  offset="1" style="stop-color:#130C0E;stop-opacity:0.95"/>
			</linearGradient>
			<polygon style="fill:url(#SVGID_00000016791246808949747910000002183904811253911962_);" points="477.226,453.495 
				609.036,533.421 832.948,533.421 710.842,459.689 675.765,437.777 461.492,434.811 			"/>
			
				<linearGradient id="SVGID_00000041264277549667421260000011377789725398238091_" gradientUnits="userSpaceOnUse" x1="513.521" y1="537.9616" x2="305.2007" y2="233.3082">
				<stop  offset="0.1391" style="stop-color:#130C0E;stop-opacity:0"/>
				<stop  offset="0.6804" style="stop-color:#130C0E;stop-opacity:0.6512"/>
				<stop  offset="1" style="stop-color:#130C0E;stop-opacity:0.95"/>
			</linearGradient>
			<polygon style="fill:url(#SVGID_00000041264277549667421260000011377789725398238091_);" points="371.211,449.481 
				431.812,521.756 582.651,519.423 472.249,448.957 			"/>
			
				<linearGradient id="SVGID_00000179641280967274456310000000947490772214201774_" gradientUnits="userSpaceOnUse" x1="439.5435" y1="528.2852" x2="298.7927" y2="322.4471">
				<stop  offset="0.1391" style="stop-color:#130C0E;stop-opacity:0"/>
				<stop  offset="0.6804" style="stop-color:#130C0E;stop-opacity:0.6512"/>
				<stop  offset="1" style="stop-color:#130C0E;stop-opacity:0.95"/>
			</linearGradient>
			<polygon style="fill:url(#SVGID_00000179641280967274456310000000947490772214201774_);" points="371.211,449.481 442.7,534.782 
				458.432,534.782 379.471,449.481 			"/>
			
				<linearGradient id="SVGID_00000116194589628803550680000001957835570072596640_" gradientUnits="userSpaceOnUse" x1="576.1066" y1="542.7101" x2="394.0803" y2="276.5096" gradientTransform="matrix(1 -0.0013 0.0013 1 -1.127 0.8979)">
				<stop  offset="0.1391" style="stop-color:#130C0E;stop-opacity:0"/>
				<stop  offset="0.6804" style="stop-color:#130C0E;stop-opacity:0.6512"/>
				<stop  offset="1" style="stop-color:#130C0E;stop-opacity:0.95"/>
			</linearGradient>
			<polygon style="fill:url(#SVGID_00000116194589628803550680000001957835570072596640_);" points="468.912,453.588 
				602.661,538.721 618.394,538.701 477.172,453.578 			"/>
			
				<linearGradient id="SVGID_00000168113522748486723080000012137118619027291308_" gradientUnits="userSpaceOnUse" x1="308.2306" y1="537.959" x2="100.7983" y2="234.6041">
				<stop  offset="0.1391" style="stop-color:#130C0E;stop-opacity:0"/>
				<stop  offset="0.6804" style="stop-color:#130C0E;stop-opacity:0.6512"/>
				<stop  offset="1" style="stop-color:#130C0E;stop-opacity:0.95"/>
			</linearGradient>
			<polygon style="fill:url(#SVGID_00000168113522748486723080000012137118619027291308_);" points="168.452,448.54 
				229.052,520.815 375.142,520.815 256.8,448.97 			"/>
			
				<linearGradient id="SVGID_00000062896149763831701370000002557049313311267500_" gradientUnits="userSpaceOnUse" x1="88.9978" y1="541.7916" x2="88.9978" y2="436.6199">
				<stop  offset="0.1391" style="stop-color:#130C0E;stop-opacity:0"/>
				<stop  offset="0.6804" style="stop-color:#130C0E;stop-opacity:0.6512"/>
				<stop  offset="1" style="stop-color:#130C0E;stop-opacity:0.95"/>
			</linearGradient>
			<polyline style="opacity:0.34;fill:url(#SVGID_00000062896149763831701370000002557049313311267500_);" points="55.602,455.318 
				32.434,537.573 145.561,537.573 110.301,455.318 55.602,455.318 			"/>
			
				<linearGradient id="SVGID_00000095301329271727248740000012819723675596957333_" gradientUnits="userSpaceOnUse" x1="192.1389" y1="530.2798" x2="62.531" y2="340.7375">
				<stop  offset="0.1391" style="stop-color:#130C0E;stop-opacity:0"/>
				<stop  offset="0.6804" style="stop-color:#130C0E;stop-opacity:0.6512"/>
				<stop  offset="1" style="stop-color:#130C0E;stop-opacity:0.95"/>
			</linearGradient>
			<polygon style="fill:url(#SVGID_00000095301329271727248740000012819723675596957333_);" points="135.388,453.495 
				190.095,538.795 205.828,538.795 143.648,453.495 			"/>
		</g>
	</g>
</g>
<g id="OBJECTS">
	<g>
		<g>
			<g>
				<path style="fill:#5B9DD8;" d="M582.284,295.251c-39.969-0.582-67.879,17.816-104.531,63.631
					c-8.444,10.555-14.201,20.206-17.886,28.976c-11.813,28.115,9.065,59.163,39.562,59.163h109.838
					c21.444,0,39.729-15.847,42.429-37.12c0.053-0.421,0.104-0.847,0.153-1.277C655.34,377.644,651.74,296.17,582.284,295.251z"/>
				<path style="fill:#3A7AAA;" d="M515.214,386.222c2.359,6.423,12.578,12.54,33.341,15.004
					c20.763,2.464,64.721,6.114,75.372-9.857c10.651-15.971-8.405-67.519-35.238-77.87
					C561.856,303.148,503.788,355.105,515.214,386.222z"/>
			</g>
			<g>
				<g>
					<path style="fill:#3E4C5F;" d="M502.117,349.784c-4.797,0.533-13.7,3.458-12.684,14.221
						c1.016,10.763,20.395,62.929,20.395,62.929l30.925,12.245L522.12,377.94c0,0,48.316,18.531,57.661,13.84
						c9.345-4.691-2.982-26.828-16.784-30.558C549.194,357.493,508.825,349.038,502.117,349.784z"/>
					<path style="fill:#D63C3C;" d="M542.532,434.848c0,0-0.55,0.265-1.526,0.733c-4.287,2.052-16.795,8.023-26.817,12.642
						c-12.302,5.672-15.51,4.055-20.882,1.552c-1.711-1.097-2.824-3.522-2.68-6.096c0.1-1.771,2.913-3.406,4.423-4.938
						c3.701-3.766,14.779-11.808,14.779-11.808c9.869-1.164,25.698,4.975,30.946,7.161c0.024,0.012,0.048,0.02,0.068,0.031
						C541.921,434.571,542.532,434.848,542.532,434.848z"/>
					<path style="fill:#FFFFFF;" d="M541.007,435.581c-4.287,2.052-16.795,8.023-26.817,12.642
						c-12.302,5.672-15.51,4.055-20.882,1.552c-1.711-1.097-2.824-3.522-2.68-6.096c1.714,1.664,4.827,3.583,10.548,3.482
						c9.711-0.164,38.13-12.428,39.599-13.067c0.041-0.015,0.059-0.025,0.059-0.025s0.002,0.017,0.009,0.057
						C540.862,434.289,540.923,434.81,541.007,435.581z"/>
				</g>
				<g>
					<g>
						<path style="fill:#3E4C5F;" d="M552.837,382.571c0,0,17.018,12.258,30.551,12.03c14.198-0.24,15.507-15.374,14.806-22.35
							c-0.701-6.976-21.479-15.364-35.201-18.322c-13.721-2.957-18.278,8.938-17.769,16.233
							C545.732,377.456,552.837,382.571,552.837,382.571z"/>
					</g>
					<path style="fill:#596B85;" d="M552.238,361.248c-6-0.354-11.582,5.285-14.773,16.293s-18.682,57.632-18.682,57.632
						s23.483,14.083,23.823,13.408c0.339-0.674,18.128-56.182,22.081-70.082C568.638,364.599,556.146,361.479,552.238,361.248z"/>
					<path style="fill:#FFFFFF;" d="M500.476,446.875c0,0-1.084,3.829-0.48,5.421c1.818,2.436,6.212,4.708,15.698,4.608
						c7.506-0.079,22.377-3.256,26.585-4.716c0.544-2.594,0.326-3.607,0.326-3.607L500.476,446.875z"/>
					<path style="fill:#EF5B5B;" d="M542.606,448.581c-11.119,3.198-28.437,5.585-36.472,2.888
						c-3.311-1.111-4.802-3.413-5.657-4.594c2.512-4.962,18.306-11.702,18.306-11.702s3.887-2.202,12.19,0.127
						C538.998,437.55,542.606,448.581,542.606,448.581z"/>
				</g>
				<path style="fill:#FFB024;" d="M545.756,305.57c0,0-3.996,2.505-6.703,7.421c-2.706,4.916-8.752,26.1-8.752,26.1l22.447,3.1
					l-3.884-33.75L545.756,305.57z"/>
				<g>
					<g>
						<path style="fill:#FFBA95;" d="M566.591,309.526c-10.07-1.572-10.489-7.604-10.489-7.604l2.965-0.043
							c1.694-0.024,1.38-1.29,1.23-1.914l0,0l-2.262-9.325l15.153-3.621c0,0-0.115,3.162,0.306,6.258
							c0.175,1.294,0.627,3.662,1.181,5.562c0.472,1.617,1.048,4.386,2.736,4.603l1.628,0.209
							C579.039,303.651,574.116,310.701,566.591,309.526z"/>
						<path style="fill:#FF7668;" d="M573.026,289.72c0.13,3.746-1.998,7.232-5.414,8.777c-0.031,0.014-0.062,0.028-0.093,0.042
							c-2.662,1.189-4.992,1.249-7.267,1.42l-2.22-9.319l14.982-3.646C573.014,286.994,572.971,288.137,573.026,289.72z"/>
					</g>
					<g>
						<path style="fill:#FF7668;" d="M547.222,280.983c-1.875,0.564-1.345,4.015,0.007,5.919c1.928,2.515,4.208,3.269,5.676,2.358
							C554.373,288.348,549.427,280.319,547.222,280.983z"/>
						<path style="fill:#3E3E64;" d="M577.168,283.766c0,0,4.496-10.065-0.704-13.561c-3.145-7.422-10.489-9.518-17.026-8.528
							c-6.538,0.99-14.571,6.439-16.562,9.464c1.279-0.157,4.763-0.563,4.763-0.563s-5.24,5.919-4.501,5.813
							c1.938-0.278,4.728-1.099,4.728-1.099s-0.693,6.805,3.078,10.466C555.197,289.26,577.168,283.766,577.168,283.766z"/>
						<path style="fill:#FFBA95;" d="M551.091,275.219c0,0,0.341,2.969,0.159,3.63c-0.182,0.66-1.62,2.484-1.62,2.484
							s0.841,5.818,1.459,8.655c0.617,2.838,2.626,6.06,5.563,7.331c2.238,0.969,12.751-2.316,14.277-5.635
							c1.977-4.298,2.058-7.612,2.058-7.612l-1.422-3.212l-1.323-0.595c-0.941-0.423-1.62-1.273-1.826-2.283l-0.574-2.815
							L551.091,275.219z"/>
						<g>
							<path style="fill:#FFBA95;" d="M574.812,280.2c2.118-1.155,4.345,2.025,3.423,4.399c-0.922,2.374-4.484,5.686-6.457,3.611
								C569.804,286.134,573.059,281.155,574.812,280.2z"/>
							<path style="fill:#FF7668;" d="M576.767,281.693c-0.276-0.247-0.656-0.417-1.028-0.39c-0.409,0.029-0.79,0.239-1.103,0.493
								c-0.655,0.531-1.191,1.257-1.593,1.993c-0.2,0.366-0.346,0.821,0.047,1.124c0.148,0.114,0.335,0.152,0.518,0.154
								c0.203,0.001,0.387-0.1,0.586-0.103c0.257-0.004,0.271,0.313,0.212,0.497c-0.066,0.209-0.209,0.394-0.368,0.542
								c-0.158,0.146-0.348,0.257-0.551,0.328c-0.193,0.068-0.396,0.074-0.578,0.171c-0.147,0.078-0.16,0.345,0.006,0.413
								c0.382,0.159,0.848-0.041,1.185-0.239c0.377-0.222,0.712-0.57,0.87-0.983c0.082-0.213,0.104-0.446,0.06-0.662
								c0.439-0.234,0.733-0.718,0.732-1.215c-0.001-0.271-0.094-0.532-0.234-0.761c-0.105-0.173-0.255-0.346-0.433-0.456
								c0.135-0.13,0.275-0.255,0.425-0.364c0.175-0.127,0.419-0.264,0.646-0.245c0.198,0.017,0.369,0.206,0.473,0.363
								c0.257,0.389,0.286,0.94,0.311,1.392c0.006,0.109,0.189,0.126,0.216,0.021C577.355,283.039,577.376,282.237,576.767,281.693z
								 M574.579,283.221c0.036,0.024,0.076,0.043,0.115,0.063c0.003,0.002,0.002,0.002,0.01,0.007
								c0.041,0.027,0.085,0.052,0.13,0.071c0.02,0.018,0.089,0.072,0.099,0.081c0.005,0.004,0.003,0.002,0.006,0.005
								c0.003,0.004,0.001,0.002,0.007,0.009c0.012,0.014,0.024,0.028,0.036,0.043c0.029,0.036,0.057,0.074,0.081,0.114
								c0.038,0.063,0.073,0.152,0.091,0.231c0.019,0.086,0.022,0.181,0.018,0.269c0,0.009,0,0.008,0,0.009
								c-0.001,0.005-0.001,0.006-0.003,0.017c-0.004,0.023-0.007,0.047-0.012,0.07c-0.009,0.046-0.021,0.092-0.037,0.137
								c-0.048,0.133-0.129,0.249-0.229,0.345c-0.05-0.075-0.109-0.146-0.183-0.206c-0.179-0.146-0.4-0.202-0.627-0.192
								c-0.074,0.003-0.219,0.003-0.316,0.024c0.102-0.154,0.272-0.466,0.305-0.514c0.14-0.2,0.29-0.393,0.448-0.579
								c0.008-0.01,0.017-0.02,0.026-0.03c0.004,0.003,0.006,0.008,0.011,0.01c-0.003-0.006-0.005-0.01-0.007-0.014
								c0.001-0.001,0.001-0.001,0.002-0.002C574.558,283.2,574.566,283.212,574.579,283.221z"/>
						</g>
						<g>
							<path style="fill:#FF7668;" d="M556.574,282.257c0,0,1.616,1.582,1.633,2.546c0.017,0.965-1.654,2.79-1.814,3.254
								c-0.16,0.464,2.863,1.651,2.863,1.651s-1.604-1.412-1.577-1.756c0.027-0.344,1.512-2.422,1.439-3.307
								S556.574,282.257,556.574,282.257z"/>
							<path style="fill:#FF7668;" d="M556.93,291.32c0,0,1.551,1.097,3.256,0.928c2.409-0.24,3.847-1.824,4.334-2.705
								C559.59,291.678,556.93,291.32,556.93,291.32z"/>
							<g>
								<path style="fill:#3E3E64;" d="M563.142,283.316c-0.099,0.683-0.734,1.156-1.417,1.057
									c-0.683-0.099-1.156-0.734-1.057-1.417c0.099-0.683,0.734-1.156,1.417-1.057S563.241,282.633,563.142,283.316z"/>
								<path style="fill:#3E3E64;" d="M559.554,281.426c0,0,0.996-0.453,2.155-0.587c1.159-0.134,2.598,0.227,2.598,0.227
									s-0.756-1.239-2.436-1.292C560.123,279.793,559.554,281.426,559.554,281.426z"/>
							</g>
							<g>
								<path style="fill:#3E3E64;" d="M555.277,283.929c-0.099,0.683-0.734,1.156-1.417,1.057
									c-0.683-0.099-1.156-0.734-1.057-1.417c0.099-0.683,0.734-1.156,1.417-1.057
									C554.903,282.612,555.376,283.246,555.277,283.929z"/>
								<path style="fill:#3E3E64;" d="M555.981,281.452c0,0-1.068-0.236-2.23-0.126c-1.161,0.11-2.494,0.763-2.494,0.763
									s0.481-1.37,2.114-1.771C555.085,279.974,555.981,281.452,555.981,281.452z"/>
							</g>
						</g>
					</g>
				</g>
				<g>
					<g>
						<path style="fill:#FFCC00;" d="M598.193,372.25c0,0-18.917-12.801-48.098-16.454c-1.835-33.081-4.34-50.226-4.34-50.226
							l10.606-4.327c0,0,2.25,6.004,8.894,6.881c5.813,0.765,10.229-1.325,12.601-5.416l2.721,0.396
							c5.984,0.871,11.03,1.605,11.03,1.605L598.193,372.25z"/>
						<path style="fill:#FFB024;" d="M556.36,301.24c0,0,2.25,6.01,8.9,6.88c5.81,0.77,10.23-1.32,12.6-5.41l2.72,0.39
							c-3.26,4.74-7.43,8.96-15.76,7.95c-6.52-0.79-9.66-5.7-10.99-8.78L556.36,301.24z"/>
					</g>
				</g>
				<g>
					<polygon style="fill:#2C2C4C;" points="495.63,322.282 497.143,320.527 547.845,328.144 554.032,360.757 551.455,360.105 					
						"/>
					<polygon style="fill:#3E3E64;" points="546.021,329.613 551.81,360.156 501.419,352.825 495.63,322.282 					"/>
					
						<rect x="500.667" y="358.223" transform="matrix(-0.9896 -0.144 0.144 -0.9896 1019.133 795.1831)" style="fill:#3E3E64;" width="75.341" height="4.989"/>
					
						<rect x="550.966" y="361.862" transform="matrix(-0.9896 -0.144 0.144 -0.9896 1068.3829 806.0276)" style="fill:#2C2C4C;" width="24.778" height="4.989"/>
					<path style="fill:#FFFFFF;" d="M520.511,343.207c0.454,2.191,2.432,4.202,4.419,4.491c1.987,0.289,3.231-1.253,2.777-3.444
						c-0.453-2.191-2.432-4.202-4.419-4.491C521.3,339.474,520.057,341.016,520.511,343.207z"/>
				</g>
				<g>
					<path style="fill:#FF7668;" d="M612.949,329.839c0.15,0.835,8.884,20.212,8.189,24.991c-17.492,0.979-21.363,1.5-21.363,1.5
						l-6.875-24.231L612.949,329.839z"/>
				</g>
				<g>
					<path style="fill:#FFCC00;" d="M591.607,304.709c-5.161,0.422-6.814,8.235-5.898,12.657c1.448,6.991,6.169,18.991,6.169,18.991
						l24.732-4.495c0,0-5.502-12.068-11.085-19.707C600.807,305.699,591.607,304.709,591.607,304.709z"/>
					<path style="fill:#FFB024;" d="M591.877,336.856c-0.213,0-0.41-0.137-0.477-0.351c-0.036-0.118-3.729-11.886-6.164-18.978
						c-0.09-0.261,0.049-0.545,0.311-0.635c0.261-0.091,0.545,0.049,0.635,0.311c2.44,7.104,6.137,18.886,6.174,19.004
						c0.082,0.264-0.065,0.544-0.328,0.627C591.977,336.85,591.927,336.856,591.877,336.856z"/>
				</g>
				<g>
					<path style="fill:#FFBA95;" d="M569.639,362.123c-0.154,0.761,3.95,3.391,8.479,3.216c4.98,0.119,36.019-1.768,40.58-4.494
						c4.561-2.726,3.852-11.697-4.45-14.281c-8.301-2.585-35.932,9.171-42.614,9.167C570.612,358.1,569.639,362.123,569.639,362.123
						z"/>
					<path style="fill:#FFBA95;" d="M568.389,355.49c0,0-5.179,8.153-6.617,7.483c-1.438-0.67,3.91-8.232,3.91-8.232
						s-0.419-0.39-0.599-0.098c-1.075,1.739-3.721,5.636-4.161,6.171c-1.289,1.568-1.94,0.621-2.053,0.286
						c-0.448-1.328,3.505-7.499,3.505-7.499s-0.542-0.298-0.834-0.048c-2.003,1.713-6.736,7.066-8.12,6.669
						c-1.737-0.498,6.074-10.262,9.416-9.84c7.56,1.868,11.051,6.368,11.051,6.368c1.973,2.544,1.784,6.05-0.051,7.068
						c-1.835,1.018-5.491-2.004-5.491-2.004s-1.444,2.199-2.087,2.749c-0.642,0.549-1.992,0.103-1.308-1.622
						c0.745-1.878,3.949-7.15,3.949-7.15L568.389,355.49z"/>
				</g>
			</g>
		</g>
		<g>
			<g>
				<g>
					<polygon style="fill:#FFBA95;" points="355.274,196.402 362.295,206.308 352.258,213.737 346.779,202.229 					"/>
					<g>
						<path style="fill:#FFBA95;" d="M357.057,200.113c0,0-1.108-5.297-4.878-8.722c-3.77-3.426-13.183-9.023-15.26-8.975
							c-2.078,0.048,5.415,5.099,10.748,10.067l-0.867,0.544c0,0-11.684-8.556-13.458-7.798c-1.775,0.758,1.9,2.942,3.747,4.566
							c1.847,1.624,7.559,5.729,7.559,5.729l-0.573,1.318c0,0-9.243-6.011-11.046-7.258c-1.016-0.703-2.613,0.722-1.032,2.46
							c1.581,1.738,10.427,8.027,10.427,8.027l-0.413,1.249c0,0-8.584-4.864-10.333-5.462c-1.103-0.377-1.591,0.697,0.155,2.575
							c1.746,1.877,12.924,10.709,17.422,9.942C353.753,207.608,357.51,202.647,357.057,200.113z"/>
						<path style="fill:#FF7668;" d="M352.45,200.63c0.851,2.639,3.062,4.219,4.251,1.919c1.417-2.742,2.457-8.143,0.268-10.965
							c-0.663-0.855-5.691-2.707-5.691-2.707s-3.613-4.271-4.726-3.528c-1.114,0.744,1.052,5.111,2.304,5.777
							c1.252,0.665,4.264,1.436,4.264,1.436S350.992,196.108,352.45,200.63z"/>
						<path style="fill:#FF7668;" d="M347.993,191.592c-1.626,1.226-3.092,2.818-4.24,4.493c-0.587,0.856-1.111,1.749-1.551,2.689
							c-0.466,0.993-0.948,2.156-0.911,3.269c0.012,0.355,0.469,0.413,0.635,0.138c0.513-0.849,0.801-1.848,1.191-2.759
							c0.408-0.953,0.885-1.882,1.445-2.754c1.087-1.695,2.401-3.1,3.954-4.371C348.951,191.941,348.447,191.25,347.993,191.592z"/>
						<path style="fill:#FF7668;" d="M351.257,201.18c-1.459-0.747-3.194-0.658-4.74-0.227c-0.763,0.212-1.51,0.535-2.171,0.974
							c-0.31,0.206-0.621,0.433-0.889,0.694c-0.23,0.224-0.538,0.519-0.617,0.839c-0.018,0.072,0.032,0.176,0.123,0.151
							c0.305-0.084,0.559-0.32,0.825-0.487c0.303-0.19,0.598-0.388,0.915-0.555c0.656-0.344,1.362-0.619,2.086-0.774
							c1.417-0.303,2.824-0.138,4.235,0.107C351.456,201.976,351.643,201.377,351.257,201.18z"/>
					</g>
				</g>
				<g>
					<path style="fill:#63A2C1;" d="M402.904,177.378c0,0-4.379,1.415-10.25,14.687c-5.871,13.272-10.947,27.608-10.947,27.608
						s-12.021-14.535-15.65-12.518c-3.977-3.993-3.977-3.993-3.977-3.993l-13.569,9.803l3.18,4.257c0,0-0.805,3.983,2.637,9.835
						c3.442,5.852,20.982,30.235,34.903,26.549c13.921-3.686,28.909-52.459,27.865-61.494
						C416.051,183.078,412.333,174.911,402.904,177.378z"/>
				</g>
			</g>
			<g>
				<polygon style="fill:#9E3F2A;" points="406.588,270.113 393.181,433.59 425.184,449.591 438.616,293.35 448.971,287.844 
					448.971,266.22 				"/>
				<path style="fill:#3E3E64;" d="M393.181,433.59c0,0-5.867,4.123-11.481,6.808s-10.497,4.067-11.962,9.194
					c26.854,0,55.447,0,55.447,0S412.963,436.302,393.181,433.59z"/>
			</g>
			<g>
				<path style="fill:#BC4F2E;" d="M438.616,293.35l-1.543,144.006l31.373,14.915l3.527-179.407c0,0-0.955-12.429-35.928-12.429
					L438.616,293.35z"/>
				<polygon style="fill:#9E3F2A;" points="463.766,267.918 461.455,267.448 459.243,447.891 460.855,449.14 				"/>
				<path style="fill:#3E3E64;" d="M468.445,452.271h-50.38c0,0,2.222-3.744,10.777-9.13c6.257-3.94,8.231-5.785,8.231-5.785
					S458.954,438.872,468.445,452.271z"/>
			</g>
			<g>
				<g>
					<path style="fill:#80BCE0;" d="M470.626,261.765l1.201,11.233l-66.914-0.132l-0.714-10.013c0,0-4.647-4.235-4.642-6.921
						c0.005-2.686,4.078-10.729,4.078-10.729s-2.747-35.594-3.704-46.426c-0.957-10.836-0.695-19.451,2.973-21.396
						c3.669-1.95,14.28-6.437,14.28-6.437c7.072-2.149,10.268-3.978,17.116-3.471c5.515,0.407,24.931,6.767,28.276,8.541
						c2.428,7.085,5.642,68.406,5.642,68.406s6.338,6.608,7.061,10.27C476.005,258.356,470.626,261.765,470.626,261.765z"/>
					<path style="fill:#63A2C1;" d="M410.076,245.694l50.349-1.332c0,0-12.39-9.092-27.898-9.6
						C417.018,234.254,410.076,245.694,410.076,245.694z"/>
					<polygon style="fill:#63A2C1;" points="471.827,272.998 404.913,272.866 404.198,262.853 470.626,261.765 					"/>
				</g>
			</g>
			<g>
				<g>
					<path style="fill:#FFBA95;" d="M440.504,205.518c0,0-4.085-9.952-6.633-11.481c-2.548-1.529-9.854,1.359-9.854,1.359
						s-4.141-1.636-4.915-1.224c-0.774,0.413-0.567,3.094,3.404,4.229c-3.595,0-5.17,0-5.892,0c-2.96,0-3.379,3.301,0.116,3.301
						c-0.155,1.496,0.516,2.682,3.197,3.043c0.206,2.115,1.049,2.299,2.699,2.815c0.155,2.269,2.922,3.477,5.707,4.457
						c2.785,0.98,7.891,3.043,7.891,3.043L440.504,205.518z"/>
					<path style="fill:#FF7668;" d="M430.068,198.901h-7.561c-0.276,0-0.5-0.224-0.5-0.5c0-0.276,0.224-0.5,0.5-0.5h7.561
						c0.276,0,0.5,0.224,0.5,0.5C430.568,198.677,430.344,198.901,430.068,198.901z"/>
					<path style="fill:#FF7668;" d="M425.642,202.202h-8.912c-0.276,0-0.5-0.224-0.5-0.5c0-0.276,0.224-0.5,0.5-0.5h8.912
						c0.276,0,0.5,0.224,0.5,0.5C426.142,201.978,425.918,202.202,425.642,202.202z"/>
					<path style="fill:#FF7668;" d="M427.34,205.688c-0.01,0-0.02,0-0.03-0.001l-7.413-0.444c-0.275-0.017-0.485-0.253-0.469-0.529
						c0.017-0.274,0.235-0.496,0.529-0.469l7.413,0.444c0.275,0.017,0.485,0.253,0.469,0.529
						C427.823,205.483,427.603,205.688,427.34,205.688z"/>
					<path style="fill:#FF7668;" d="M427.145,208.524c-0.017,0-0.035-0.001-0.053-0.003l-4.517-0.466
						c-0.274-0.028-0.474-0.273-0.445-0.549c0.028-0.274,0.281-0.471,0.549-0.445l4.517,0.466c0.274,0.028,0.474,0.273,0.445,0.549
						C427.615,208.333,427.398,208.524,427.145,208.524z"/>
				</g>
				<path style="fill:#63A2C1;" d="M463.01,176.056c6.681,2.353,11.786,8.497,14.68,18.865c2.893,10.367,10.126,31.826,9.403,36.407
					c-0.723,4.581-14.466,8.68-22.664,1.447c-8.198-7.233-10.126-40.746-9.885-46.774S459.421,174.792,463.01,176.056z"/>
				<g>
					<path style="fill:#80BCE0;" d="M474.043,243.226c-1.83-0.36-3.879-1.024-6.041-1.9c-12.146-4.921-27.897-16.531-28.907-18.553
						c-1.193-2.383-0.991-4.964-0.991-4.964l-4.369-2.779l5.955-12.314l4.765,1.986c0,0,5.761-2.383,8.143-1.586
						c1.526,0.508,13.561,7.533,22.799,13.614c5.185,3.413,9.489,6.529,10.559,8.028
						C488.938,228.929,486.155,245.608,474.043,243.226z"/>
					<polygon style="fill:#63A2C1;" points="444.455,204.702 438.104,217.809 433.735,215.029 439.689,202.715 					"/>
					<path style="fill:#63A2C1;" d="M475.398,217.23c-0.095,0-0.191-0.026-0.275-0.082c-9.156-6.027-21.169-13.055-22.682-13.558
						c-1.813-0.608-6.24,0.931-7.794,1.573c-0.254,0.108-0.549-0.016-0.653-0.27c-0.106-0.256,0.016-0.548,0.27-0.653
						c0.243-0.101,5.965-2.444,8.493-1.599c1.595,0.531,13.521,7.487,22.916,13.671c0.23,0.152,0.294,0.462,0.142,0.693
						C475.719,217.151,475.56,217.23,475.398,217.23z"/>
					<path style="fill:#63A2C1;" d="M468.001,241.826c-0.063,0-0.126-0.012-0.188-0.036c-12.19-4.939-28.042-16.543-29.166-18.794
						c-1.241-2.479-1.051-5.115-1.042-5.227c0.022-0.275,0.286-0.48,0.536-0.459c0.275,0.021,0.481,0.262,0.46,0.536
						c-0.001,0.025-0.173,2.479,0.94,4.702c0.913,1.829,16.331,13.324,28.646,18.313c0.256,0.105,0.38,0.396,0.276,0.651
						C468.386,241.708,468.198,241.826,468.001,241.826z"/>
				</g>
			</g>
			<g>
				<path style="fill:#FFFFFF;" d="M421.1,165.488c0,0-4.251,1.861-5.789,6.105c-1.538,4.244,0.064,10.449,3.115,14.362
					c3.831-4.325,6.47-7.123,6.47-7.123l7.886,7.236c0,0,5.711-9.843,5.384-16.214C437.839,163.482,429.689,160.917,421.1,165.488z"
					/>
				<path style="fill:#3E3E64;" d="M408.512,151.201c0.001-0.297-2.362-4.946-2.75-8.901c-0.388-3.954,2.097-10.67,6.945-13.428
					c4.848-2.758,11.96-0.668,15.02,1.413c-2.167-3.464-2.66-4.453-2.66-4.453s5.333,1.888,5.228,5.446
					c3.362-0.685,6.029,0.21,8.691,3.081c-2.47-0.697-4.446-0.898-4.446-0.898s5.345,0.611,5.973,6.237
					c0.627,5.625-6.722,14.131-6.722,14.131L408.512,151.201z"/>
				<path style="fill:#FF7668;" d="M410.39,149.025c0,0-0.61-3.795-2.682-4.103c-2.073-0.308-2.893,3.01-2.06,5.783
					c0.778,2.589,2.658,3.677,4.732,3.479C412.453,153.985,410.39,149.025,410.39,149.025z"/>
				<g>
					<path style="fill:#FFBA95;" d="M434.752,166.698c0.34,1.187,0.14,2.46-0.554,3.481c-2.113,3.111-6.684,7.806-9.365,7.8
						c-3.42-0.007-7.098-6.045-6.915-7.035c0.179-0.991,2.252-2.336,2.252-2.336s-0.033-0.278-0.083-0.679
						c-0.133-1.012-0.357-2.818-0.357-3.012c0.001-0.27-5.131,1.483-8.201-2.694c-1.796-2.572-2.195-20.146-2.195-20.146
						l7.376,0.014c2.012,0.004,3.994-0.334,5.868-0.984c1.874-0.65,3.638-1.612,5.214-2.862l0.363,4.243
						c0.087,1.023,0.648,1.903,1.451,2.431c1.484,0.976,2.81,2.173,3.761,3.673l0.522,0.823
						C433.524,159.912,434.127,164.517,434.752,166.698z"/>
					<path style="fill:#FF7668;" d="M432.386,155.257c0,0-0.374,6.041-4.913,9.477c-2.84,2.15-5.543,2.874-7.387,3.195
						c-0.133-1.012-0.357-2.818-0.357-3.012c0,0,2.548-0.438,5.874-2.059C430.661,160.389,432.386,155.257,432.386,155.257z"/>
				</g>
				<g>
					<g>
						<path style="fill:#3E3E64;" d="M424.135,157.386c-1.319,1.849-3.859,2.464-5.824,2.283c-0.966-0.09-1.796-0.37-2.271-0.793
							c-1.267-1.124-1.294-2.681-0.078-3.302c0.169-0.092,0.367-0.164,0.587-0.21c1.789-0.389,3.015-0.108,5.527-1.107
							c0.502-0.197,1.114-0.116,1.615,0.176c0.278,0.157,0.518,0.381,0.69,0.651C424.746,155.662,424.786,156.472,424.135,157.386z"
							/>
						<path style="fill:#EF5B5B;" d="M424.135,157.386c-1.319,1.849-3.859,2.464-5.824,2.283c0.613-3.128,3.687-4.636,5.379-5.236
							c0.278,0.157,0.518,0.381,0.69,0.651C424.746,155.662,424.786,156.472,424.135,157.386z"/>
						<path style="fill:#FFFFFF;" d="M424.38,155.084c-1.188,1.685-4.386,2.235-6.111,2.029c-1.261-0.15-1.963-0.961-2.308-1.54
							c0.169-0.092,0.367-0.164,0.587-0.21c1.789-0.389,3.015-0.108,5.527-1.107C422.851,153.95,423.896,154.319,424.38,155.084z"/>
						<path style="fill:#FF7668;" d="M415.08,157.247c0,0,0.247-1.123,1.391-1.345c1.144-0.222,2.022-0.241,3.432-0.524
							c1.41-0.283,2.411-0.73,3.167-0.749c0.756-0.019,1.408,0.513,1.549,1.269c0.125-1.225-1.036-2.575-2.589-1.986
							c-1.064,0.404-2.044,0.731-3.637,0.993C416.991,155.136,414.902,154.592,415.08,157.247z"/>
					</g>
					<path style="fill:#FF7668;" d="M416.182,144.797c0,0,2.132,2.189,1.789,4.43c-0.244,1.596-1.619,2.671-1.619,2.671
						s1.241,1.893,0.964,1.939c-0.277,0.046-2.347-2.218-2.347-2.218s1.662-1.149,1.896-2.901
						C417.1,146.966,416.182,144.797,416.182,144.797z"/>
					<g>
						<path style="fill:#3E3E64;" d="M423.738,148.557c-0.001,0.773-0.629,1.398-1.402,1.396c-0.773-0.001-1.398-0.629-1.396-1.402
							c0.002-0.773,0.629-1.398,1.402-1.396C423.115,147.157,423.74,147.784,423.738,148.557z"/>
						<path style="fill:#3E3E64;" d="M419.464,144.666l6.131,0.658C425.595,145.324,423.711,141.816,419.464,144.666z"/>
					</g>
					<g>
						<path style="fill:#3E3E64;" d="M415.468,148.838c-0.001,0.773-0.629,1.398-1.402,1.396c-0.773-0.002-1.398-0.629-1.396-1.402
							c0.002-0.773,0.629-1.398,1.402-1.396C414.844,147.438,415.469,148.065,415.468,148.838z"/>
						<path style="fill:#3E3E64;" d="M415.843,144.659l-5.331,0.78C410.512,145.439,412.435,142.264,415.843,144.659z"/>
					</g>
				</g>
				<g>
					<path style="fill:#FFBA95;" d="M435.88,144.472c2.163-1.616,5.136,1.553,4.492,4.329c-0.644,2.777-4.064,7.012-6.58,5.027
						C431.275,151.844,434.089,145.81,435.88,144.472z"/>
					<path style="fill:#FF7668;" d="M438.283,145.816c-0.345-0.23-0.793-0.357-1.201-0.269c-0.449,0.097-0.837,0.39-1.144,0.721
						c-0.641,0.693-1.12,1.582-1.447,2.462c-0.163,0.437-0.253,0.965,0.231,1.238c0.182,0.103,0.396,0.116,0.599,0.088
						c0.225-0.031,0.413-0.172,0.633-0.207c0.284-0.045,0.349,0.303,0.314,0.517c-0.04,0.242-0.168,0.47-0.322,0.659
						c-0.152,0.187-0.345,0.34-0.558,0.451c-0.203,0.106-0.427,0.145-0.613,0.281c-0.151,0.11-0.122,0.407,0.072,0.457
						c0.449,0.115,0.934-0.18,1.275-0.453c0.383-0.306,0.698-0.745,0.808-1.227c0.057-0.249,0.045-0.51-0.039-0.743
						c0.449-0.329,0.699-0.912,0.618-1.463c-0.044-0.3-0.189-0.574-0.38-0.806c-0.144-0.174-0.337-0.343-0.552-0.436
						c0.129-0.166,0.264-0.326,0.413-0.47c0.174-0.168,0.422-0.36,0.677-0.374c0.223-0.013,0.442,0.17,0.582,0.327
						c0.347,0.39,0.466,0.996,0.566,1.493c0.024,0.119,0.23,0.11,0.243-0.011C439.149,147.214,439.044,146.322,438.283,145.816z
						 M436.102,147.856c0.044,0.021,0.091,0.036,0.137,0.052c0.004,0.002,0.003,0.002,0.012,0.006
						c0.05,0.023,0.102,0.044,0.156,0.058c0.025,0.017,0.11,0.065,0.122,0.073c0.006,0.004,0.004,0.002,0.008,0.005
						c0.004,0.004,0.001,0.002,0.009,0.009c0.016,0.014,0.032,0.027,0.047,0.042c0.038,0.035,0.074,0.073,0.107,0.113
						c0.052,0.063,0.105,0.156,0.137,0.242c0.035,0.092,0.053,0.197,0.062,0.295c0.001,0.01,0.001,0.009,0.002,0.01
						c0,0.006,0,0.007-0.001,0.02c-0.001,0.027-0.001,0.053-0.002,0.08c-0.003,0.053-0.009,0.106-0.02,0.158
						c-0.032,0.155-0.103,0.296-0.199,0.419c-0.067-0.075-0.143-0.144-0.235-0.2c-0.222-0.133-0.475-0.161-0.726-0.113
						c-0.081,0.015-0.242,0.038-0.347,0.077c0.088-0.186,0.227-0.559,0.257-0.618c0.124-0.244,0.258-0.482,0.404-0.713
						c0.008-0.012,0.016-0.025,0.024-0.037c0.005,0.003,0.008,0.008,0.014,0.01c-0.004-0.006-0.007-0.01-0.01-0.015
						c0.001-0.001,0.001-0.002,0.002-0.003C436.075,147.837,436.086,147.849,436.102,147.856z"/>
				</g>
			</g>
		</g>
		<g>
			<g>
				<path style="fill:#4DBB00;" d="M684.538,384.296c0.799,1.596,2.107,2.873,3.228,4.261c0.049,0.06,0.094,0.124,0.143,0.184
					c2.424,3.072,3.952,6.812,4.496,10.678c0.27,1.933,0.298,3.903,0.063,5.841c-0.113,0.969-0.295,1.93-0.541,2.875
					c-0.107,0.412-0.376,0.937-0.353,1.361c0.092,1.519,1.097,3.148,2.221,4.105c0.734,0.628,1.597,1.068,2.521,1.329
					c0.711,0.203,1.458,0.298,2.199,0.28c1.747-0.029,3.478-0.658,4.745-1.864c3.823-3.642,2.737-10.499,6.492-14.219
					c3.313-3.288,9.074-2.794,12.822-5.351c0.459-0.317,0.892-0.676,1.28-1.096c3.247-3.475,2.159-8.977,1.142-13.617
					c-0.656-2.982-1.063-6.302-0.117-9.27c0.486-1.532,1.387-2.415,2.377-3.606c2.827-3.395,8.694-3.151,10.78-7.316
					c1.561-3.12-0.372-6.812-2.473-9.595c-1.818-2.412-4.531-5.489-4.241-8.705c0.292-3.24,2.686-6.016,4.82-8.278
					c2.844-3.016,5.931-6.915,4.643-10.852c-1.435-4.377-7.412-5.726-9.327-9.913c-1.192-2.613-0.495-5.689,0.598-8.342
					c1.097-2.653,2.582-5.204,2.979-8.047c0.424-3.024-0.92-5.077-2.597-7.402c-0.865-1.201-2.094-1.908-3.491-2.406
					c-5.237-1.868-11.934,0.643-14.19,5.839c-1.952,4.499-0.995,10.347-4.477,13.799c-3.352,3.326-9.188,2.657-12.802,5.689
					c-4.099,3.442-3.531,9.851-2.124,15.012c1.407,5.164,3.24,10.917,0.662,15.604c-2.735,4.975-9.876,7.434-10.307,13.094
					c-0.432,5.692,6.615,10.35,5.212,15.884c-0.479,1.878-1.852,3.338-3.187,4.666c-0.659,0.655-1.338,1.296-1.962,1.985
					c-0.537,0.589-1.163,1.241-1.411,2.015C683.786,380.702,683.673,382.582,684.538,384.296z"/>
				<path style="fill:#528741;" d="M696.315,414.928c0.711,0.203,1.458,0.298,2.199,0.28c1.456-8.663,3.009-17.324,4.685-25.949
					c3.099-15.968,6.541-31.886,10.109-47.755c1.751-7.786,3.474-15.582,5.433-23.323c0.999-3.953,2.022-7.9,3.098-11.835
					c1.129-4.14,1.846-8.407,3.014-12.528c0.136-0.484-0.552-0.742-0.74-0.27c-1.761,4.43-3.755,8.682-5.247,13.23
					c-1.417,4.325-2.734,8.677-3.979,13.049c-4.411,15.487-7.904,31.182-11.241,46.928
					C700.287,382.626,696.335,398.63,696.315,414.928z"/>
				<path style="fill:#528741;" d="M700.531,314.655c4.471,6.058,8.811,12.058,13.742,17.765c1.263,1.462-0.915,3.546-2.188,2.073
					c-4.936-5.714-9.393-12.413-12.096-19.477C699.866,314.694,700.293,314.332,700.531,314.655z"/>
				<path style="fill:#528741;" d="M711.791,335.276c1.445-1.454,3.714-2.171,5.532-3.081c1.98-0.991,3.928-2.04,5.879-3.086
					c3.715-1.993,7.431-4.018,11.1-6.094c0.369-0.209,0.706,0.34,0.399,0.608c-3.329,2.903-6.756,5.555-10.467,7.958
					c-1.782,1.154-3.612,2.239-5.451,3.3c-1.882,1.085-3.828,2.483-6.009,2.753C711.524,337.788,711.011,336.059,711.791,335.276z"
					/>
				<path style="fill:#528741;" d="M705.432,361.962c0.953-1.309,1.962-1.263,3.458-1.604c1.652-0.376,3.286-0.95,4.867-1.553
					c3.827-1.459,7.631-3.285,11.209-5.294c0.33-0.186,0.584,0.277,0.348,0.52c-2.625,2.7-5.538,4.988-8.917,6.683
					c-1.562,0.783-3.173,1.471-4.809,2.083c-1.846,0.691-3.771,1.879-5.664,0.977C705.325,363.489,705.032,362.512,705.432,361.962z
					"/>
				<path style="fill:#528741;" d="M695.623,350.358c3.519,6.434,8.223,12.584,10.892,19.432c0.536,1.376-1.538,2.183-2.291,1.016
					c-1.928-2.988-3.268-6.539-4.706-9.788c-1.523-3.44-2.944-6.941-4.555-10.34C694.759,350.249,695.397,349.946,695.623,350.358z"
					/>
				<path style="fill:#528741;" d="M699.731,390.56c0.63-1.478,2.175-2.141,3.472-3.01c1.424-0.954,2.86-1.879,4.318-2.78
					c3.063-1.893,6.137-3.654,9.419-5.14c0.597-0.27,1.035,0.533,0.575,0.948c-2.712,2.441-5.594,4.572-8.593,6.647
					c-1.417,0.981-2.845,1.931-4.296,2.86c-1.231,0.788-2.428,1.919-3.944,1.867C699.938,391.926,699.419,391.291,699.731,390.56z"
					/>
				<path style="fill:#528741;" d="M688.689,380.276c1.984,2.291,3.942,4.575,5.849,6.935c2.086,2.582,4.466,4.918,6.533,7.504
					c1.212,1.517-0.7,3.3-2.165,2.06c-4.857-4.111-8.74-10.152-10.827-16.1C687.95,380.303,688.397,379.939,688.689,380.276z"/>
			</g>
			<g>
				<path style="fill:#4DBB00;" d="M687.888,381.834c-0.324,1.755-1.225,3.346-1.916,4.991c-0.031,0.071-0.056,0.145-0.086,0.216
					c-1.474,3.625-1.902,7.642-1.349,11.507c0.278,1.932,0.8,3.832,1.564,5.628c0.378,0.899,0.82,1.772,1.319,2.611
					c0.218,0.366,0.621,0.795,0.718,1.209c0.334,1.485-0.179,3.329-0.992,4.56c-0.53,0.807-1.237,1.47-2.052,1.977
					c-0.627,0.393-1.317,0.692-2.035,0.88c-1.686,0.458-3.524,0.336-5.076-0.471c-4.685-2.435-5.549-9.323-10.19-11.852
					c-4.096-2.237-9.493-0.16-13.804-1.574c-0.529-0.177-1.045-0.402-1.535-0.696c-4.085-2.435-4.57-8.023-4.884-12.762
					c-0.199-3.047-0.731-6.349-2.465-8.937c-0.893-1.336-2.004-1.934-3.286-2.803c-3.66-2.475-9.227-0.609-12.39-4.03
					c-2.367-2.563-1.537-6.647-0.293-9.905c1.076-2.822,2.826-6.533,1.653-9.541c-1.181-3.031-4.253-5.031-6.932-6.611
					c-3.571-2.106-7.62-4.993-7.478-9.133c0.162-4.603,5.527-7.561,6.203-12.116c0.418-2.841-1.106-5.602-2.894-7.847
					c-1.792-2.243-3.928-4.281-5.1-6.901c-1.249-2.787-0.528-5.133,0.436-7.833c0.497-1.394,1.481-2.415,2.684-3.282
					c4.51-3.251,11.642-2.702,15.254,1.662c3.127,3.779,3.833,9.662,8.138,12.01c4.144,2.263,9.564-0.003,13.879,1.905
					c4.895,2.166,6.131,8.481,6.215,13.829c0.085,5.352-0.077,11.387,3.704,15.173c4.01,4.018,11.554,4.394,13.542,9.711
					c1.998,5.348-3.476,11.781-0.59,16.707c0.982,1.671,2.707,2.691,4.359,3.596c0.815,0.445,1.645,0.872,2.437,1.361
					c0.68,0.416,1.463,0.869,1.916,1.543C687.611,378.173,688.242,379.947,687.888,381.834z"/>
				<path style="fill:#528741;" d="M685.094,414.533c-0.627,0.393-1.317,0.692-2.035,0.88c-3.807-7.916-7.708-15.804-11.717-23.622
					c-7.417-14.476-15.15-28.809-22.991-43.06c-3.847-6.992-7.67-14.002-11.705-20.892c-2.059-3.519-4.139-7.025-6.267-10.507
					c-2.235-3.662-4.111-7.562-6.38-11.195c-0.265-0.427,0.324-0.866,0.636-0.465c2.923,3.765,6.021,7.296,8.719,11.249
					c2.564,3.76,5.039,7.574,7.451,11.428c8.544,13.65,16.264,27.754,23.849,41.95C672.296,384.61,680.542,398.884,685.094,414.533z
					"/>
				<path style="fill:#528741;" d="M653.159,319.388c-2.61,7.062-5.11,14.033-8.259,20.886c-0.807,1.756,1.865,3.151,2.678,1.382
					c3.152-6.861,5.571-14.535,6.202-22.073C653.808,319.241,653.298,319.012,653.159,319.388z"/>
				<path style="fill:#528741;" d="M648.078,342.327c-1.793-0.994-4.171-1.053-6.17-1.421c-2.177-0.401-4.341-0.867-6.506-1.33
					c-4.123-0.882-8.255-1.793-12.357-2.767c-0.413-0.098-0.584,0.523-0.214,0.695c4.005,1.863,8.035,3.457,12.267,4.734
					c2.033,0.613,4.092,1.147,6.153,1.654c2.109,0.519,4.367,1.321,6.537,0.974C649.032,344.666,649.044,342.862,648.078,342.327z"
					/>
				<path style="fill:#528741;" d="M661.607,366.192c-1.28-0.992-2.236-0.668-3.767-0.579c-1.691,0.098-3.421,0.001-5.107-0.138
					c-4.082-0.337-8.243-1.033-12.239-1.968c-0.369-0.086-0.484,0.429-0.189,0.596c3.273,1.863,6.707,3.251,10.424,3.939
					c1.718,0.318,3.456,0.53,5.198,0.664c1.965,0.15,4.145,0.756,5.712-0.637C662.134,367.629,662.145,366.609,661.607,366.192z"/>
				<path style="fill:#528741;" d="M667.802,352.318c-1.591,7.159-4.399,14.375-5.058,21.694c-0.133,1.471,2.084,1.669,2.483,0.339
					c1.021-3.406,1.321-7.19,1.799-10.711c0.506-3.728,0.898-7.486,1.499-11.199C668.601,351.973,667.904,351.86,667.802,352.318z"
					/>
				<path style="fill:#528741;" d="M675.037,392.077c-1.016-1.244-2.684-1.452-4.172-1.926c-1.633-0.52-3.269-1.009-4.92-1.469
					c-3.468-0.967-6.911-1.803-10.477-2.318c-0.649-0.094-0.846,0.8-0.289,1.07c3.284,1.591,6.645,2.836,10.102,3.995
					c1.634,0.548,3.27,1.064,4.922,1.552c1.402,0.414,2.866,1.168,4.308,0.697C675.217,393.446,675.54,392.692,675.037,392.077z"/>
				<path style="fill:#528741;" d="M682.783,379.128c-1.268,2.752-2.515,5.491-3.69,8.288c-1.286,3.06-2.923,5.966-4.189,9.025
					c-0.743,1.794,1.59,2.975,2.652,1.376c3.522-5.3,5.572-12.183,5.922-18.476C683.5,378.948,682.969,378.723,682.783,379.128z"/>
			</g>
			<g>
				<path style="fill:#3F703B;" d="M701.852,394.638c-1.02,1.464-2.497,2.541-3.806,3.754c-0.057,0.052-0.111,0.109-0.168,0.161
					c-2.84,2.692-4.888,6.174-5.981,9.922c-0.544,1.874-0.854,3.82-0.9,5.772c-0.027,0.975,0.015,1.952,0.123,2.923
					c0.047,0.423,0.237,0.981,0.154,1.398c-0.309,1.49-1.537,2.958-2.787,3.743c-0.816,0.516-1.734,0.828-2.685,0.953
					c-0.733,0.099-1.486,0.086-2.217-0.039c-1.725-0.28-3.348-1.15-4.429-2.525c-3.261-4.153-1.203-10.783-4.385-15.003
					c-2.807-3.729-8.58-4.067-11.921-7.135c-0.409-0.38-0.786-0.798-1.11-1.268c-2.715-3.905-0.849-9.194,0.823-13.64
					c1.077-2.857,1.956-6.084,1.446-9.157c-0.261-1.586-1.026-2.589-1.835-3.91c-2.311-3.765-8.152-4.366-9.619-8.787
					c-1.098-3.312,1.346-6.688,3.824-9.141c2.146-2.126,5.271-4.783,5.446-8.007c0.176-3.248-1.795-6.339-3.583-8.884
					c-2.382-3.393-4.878-7.695-3.038-11.406c2.048-4.126,8.157-4.603,10.653-8.472c1.554-2.415,1.306-5.559,0.605-8.342
					c-0.705-2.783-1.809-5.521-1.794-8.391c0.014-3.054,1.639-4.892,3.632-6.953c1.028-1.065,2.346-1.588,3.8-1.88
					c5.45-1.098,11.718,2.348,13.206,7.814c1.287,4.733-0.499,10.383,2.451,14.299c2.84,3.772,8.712,3.947,11.854,7.467
					c3.563,3.994,2.081,10.256-0.051,15.161c-2.133,4.909-4.773,10.339-2.893,15.348c1.993,5.316,8.708,8.774,8.322,14.437
					c-0.389,5.695-8.032,9.294-7.437,14.972c0.205,1.927,1.354,3.569,2.485,5.075c0.558,0.742,1.138,1.474,1.657,2.246
					c0.447,0.66,0.973,1.395,1.107,2.197C703.112,391.189,702.954,393.066,701.852,394.638z"/>
				<path style="fill:#395736;" d="M685.802,423.264c-0.733,0.099-1.486,0.086-2.217-0.039c-0.198-8.782-0.492-17.576-0.915-26.352
					c-0.776-16.247-1.899-32.494-3.154-48.711c-0.616-7.957-1.202-15.919-2.031-23.861c-0.422-4.055-0.868-8.108-1.368-12.157
					c-0.523-4.259-0.621-8.585-1.186-12.831c-0.065-0.498,0.652-0.655,0.771-0.161c1.107,4.637,2.471,9.131,3.295,13.846
					c0.782,4.484,1.461,8.979,2.065,13.485c2.144,15.96,3.349,31.994,4.393,48.055C686.505,390.726,688.12,407.131,685.802,423.264z
					"/>
				<path style="fill:#395736;" d="M696.014,323.423c-5.294,5.354-10.45,10.67-16.148,15.61c-1.46,1.266,0.397,3.64,1.868,2.365
					c5.705-4.946,11.077-10.937,14.765-17.54C696.667,323.557,696.296,323.138,696.014,323.423z"/>
				<path style="fill:#395736;" d="M681.913,342.215c-1.222-1.646-3.364-2.682-5.033-3.843c-1.818-1.265-3.595-2.582-5.376-3.898
					c-3.391-2.506-6.778-5.042-10.111-7.624c-0.335-0.26-0.748,0.236-0.482,0.545c2.878,3.351,5.89,6.467,9.217,9.378
					c1.598,1.398,3.253,2.734,4.921,4.047c1.707,1.343,3.432,3.006,5.551,3.586C681.816,344.74,682.572,343.102,681.913,342.215z"/>
				<path style="fill:#395736;" d="M684.378,369.538c-0.756-1.432-1.761-1.532-3.192-2.083c-1.581-0.609-3.116-1.412-4.594-2.235
					c-3.578-1.993-7.08-4.346-10.333-6.848c-0.3-0.231-0.618,0.191-0.419,0.465c2.211,3.049,4.765,5.731,7.866,7.893
					c1.433,0.999,2.929,1.91,4.46,2.751c1.728,0.949,3.463,2.401,5.465,1.779C684.264,371.064,684.695,370.14,684.378,369.538z"/>
				<path style="fill:#395736;" d="M695.75,359.461c-4.406,5.863-9.943,11.274-13.567,17.669c-0.728,1.285,1.209,2.381,2.121,1.335
					c2.337-2.68,4.173-6.003,6.062-9.012c2-3.186,3.909-6.447,5.991-9.58C696.62,359.477,696.032,359.086,695.75,359.461z"/>
				<path style="fill:#395736;" d="M685.917,398.658c-0.412-1.553-1.845-2.431-3.004-3.477c-1.272-1.148-2.56-2.27-3.874-3.37
					c-2.759-2.313-5.549-4.497-8.585-6.438c-0.552-0.353-1.101,0.379-0.705,0.856c2.333,2.805,4.881,5.327,7.55,7.811
					c1.262,1.174,2.538,2.319,3.841,3.447c1.106,0.956,2.128,2.248,3.635,2.414C685.516,399.98,686.121,399.426,685.917,398.658z"/>
				<path style="fill:#395736;" d="M698.32,390.065c-2.292,1.983-4.558,3.962-6.784,6.024c-2.435,2.256-5.126,4.226-7.542,6.489
					c-1.417,1.327,0.219,3.366,1.847,2.349c5.397-3.372,10.106-8.794,13.024-14.38C699.047,390.197,698.657,389.773,698.32,390.065z
					"/>
			</g>
			<g>
				<polygon style="fill:#D47046;" points="642.934,406.758 656.143,459.689 710.842,459.689 724.052,406.758 				"/>
				<g>
					<polygon style="fill:#B55D46;" points="689.401,459.689 700.7,459.689 707.862,406.758 691.79,406.758 					"/>
					<polygon style="fill:#B55D46;" points="659.653,406.758 666.814,459.689 678.108,459.689 675.724,406.758 					"/>
				</g>
			</g>
			
				<rect x="637.265" y="398.199" transform="matrix(-1 -1.224647e-16 1.224647e-16 -1 1366.9856 809.432)" style="fill:#F09755;" width="92.456" height="13.033"/>
		</g>
		<g>
			<polygon style="fill:#2C2C4C;" points="242.817,448.97 234.557,448.97 262.288,312.621 275.652,312.621 			"/>
			<g>
				<g>
					<rect x="179.867" y="377.72" style="fill:#3E3E64;" width="9.612" height="69.045"/>
					<path style="fill:#2C2C4C;" d="M167.839,370.224l-0.075,7.289c-0.043,4.142,3.281,7.535,7.423,7.577l20.243,0.209
						c4.142,0.043,7.535-3.281,7.577-7.423l0.075-7.289L167.839,370.224z"/>
					<path style="fill:#2C2C4C;" d="M163.134,446.429L163.134,446.429c0,2.753,2.232,4.984,4.984,4.984h33.821
						c2.753,0,4.984-2.232,4.984-4.984l0,0c0-2.753-2.231-4.984-4.984-4.984h-33.821
						C165.366,441.445,163.134,443.677,163.134,446.429z"/>
					<path style="fill:#5B9DD8;" d="M127.88,258.943l5.705,102.742c0.353,6.352,5.606,11.322,11.968,11.322h100.488v-33.32h-53.819
						l-4.841-81.697c-0.283-4.77-4.228-8.496-9.006-8.505l-41.451-0.084C131.727,249.391,127.592,253.754,127.88,258.943z"/>
				</g>
				<g>
					<g>
						<path style="fill:#3E3E64;" d="M180.904,232.987c0,0,6.718,7.88,23.77,10.335c17.052,2.454,24.804,0.258,24.804,0.258
							l0.129-13.177c0,0,7.601-13.688,6.847-16.536c-1.163-4.392-22.091-12.531-30.528-8.971
							C192.641,210.503,192.918,225.365,180.904,232.987z"/>
					</g>
					<g>
						<g>
							<polygon style="fill:#FFBA95;" points="254.652,257.323 248.675,266.501 258.387,270.557 264.044,259.991 							"/>
						</g>
						<path style="fill:#D63C3C;" d="M215.219,242.072c0,0,6.506,2.539,9.843,9.08c4.243,8.316,11.88,25.457,11.88,25.457
							l10.692-14.85l15.614,6.025c0,0-9.674,20.875-16.123,29.87c-5.042,7.033-16.123,12.05-24.608,0.339
							c-10.275-14.179-16.123-30.039-16.462-38.525C205.715,250.982,209.788,240.46,215.219,242.072z"/>
					</g>
					<g>
						<g>
							<path style="fill:#FFBA95;" d="M252.507,444.069h-41.139l4.348-24.19l1.746-9.712l18.585,2.716c0,0-1.101,4.947-1.889,9.797
								c-0.578,3.568-0.987,7.081-0.662,8.536c0.763,3.429,6.44,5.234,6.44,5.234L252.507,444.069z"/>
							<path style="fill:#FF7668;" d="M235.931,413.231c0,0-1.101,4.947-1.889,9.797l-18.442-2.8l1.746-9.712L235.931,413.231z"/>
							<path style="fill:#3E3E64;" d="M211.313,438.699c0,0-1.028,4.319-1.24,8.171c-0.063,1.143,0.858,2.1,2.002,2.1H256.8
								c1.655,0,2.599-1.891,1.6-3.21c-1.434-1.896-3.515-4.209-6.005-5.704c-4.845-2.907-12.014-4.457-12.014-4.457l-1.52,2.512
								c-1.939,3.205-5.672,4.859-9.349,4.141L211.313,438.699z"/>
						</g>
						<g>
							<path style="fill:#D63C3C;" d="M214.76,322.367c0,0,35.754,8.569,42.892,16.938c9.55,11.196-11.818,79.79-11.818,79.79
								l-33.647-5.135l13.74-60.8c0,0-42.581-16.491-45.043-30.767c0.738-1.231,10.091-4.43,10.091-4.43L214.76,322.367z"/>
						</g>
					</g>
					<g>
						<g>
							<path style="fill:#FFBA95;" d="M309.102,421.144c-5.676,10.965-20.951,14.689-26.628,16.839
								c-5.681,2.155-12.335,4.896-12.335,4.896l-3.724-6.461l-9.079-14.769l-5.605-9.122l15.275-9.594c0,0,2.307,4.719,5.626,9.603
								c3.783,5.579,8.89,11.374,13.368,10.568C296.172,421.271,300.486,420.364,309.102,421.144z"/>
							<path style="fill:#FF7668;" d="M272.632,412.537l-15.296,9.113l-5.605-9.122l15.275-9.594
								C267.006,402.934,269.313,407.653,272.632,412.537z"/>
							<path style="fill:#3E3E64;" d="M266.417,436.418c0,0,1.651,4.346,3.856,8.266c0.534,0.949,1.724,1.311,2.697,0.821
								c3.496-1.758,5.52-3.055,14.52-6.762c10.157-4.412,20.314-7.026,23.41-16.127c0.432-1.27-0.487-2.608-1.827-2.677
								c-5.607-0.288-12.234,0.55-12.234,0.55s-0.144,1.274-0.343,2.957c-0.549,4.632-3.765,8.522-8.219,9.907
								c-3.33,1.035-6.604,1.617-9.691,1.939C273.244,435.85,271.054,435.54,266.417,436.418z"/>
						</g>
						<g>
							<path style="fill:#EF5B5B;" d="M284.452,398.447l-34.56,21.056l-31.81-48.291c0,0-30.895-10.298-50.577-17.852
								c-5.799-2.281-9.809-5.419-12.58-8.611c-5.714-6.566-6.187-13.356-6.187-13.356c7.781-10.298,38.908-13.503,38.908-13.503
								l4.576,10.298c0,0,40.279,13.731,48.747,18.994C249.437,352.446,284.452,398.447,284.452,398.447z"/>
							<path style="fill:#D63C3C;" d="M192.222,328.189l-37.297,16.561c-5.714-6.566-6.187-13.356-6.187-13.356
								c7.781-10.298,38.908-13.503,38.908-13.503L192.222,328.189z"/>
						</g>
					</g>
					<g>
						<g>
							<g>
								<path style="fill:#EF5B5B;" d="M223.921,274.741c-2.819,5.993-9.189,12.108-12.107,24.479
									c-3.362,14.253,2.946,23.146,2.946,23.146h-20.151L145.1,334.523c7.013-33.895,15.896-76.205,20.337-81.582
									c4.441-5.376,24.066-13.245,32.136-14.219c8.07-0.975,20.615,2.709,24.293,9.397
									C227.009,257.469,226.74,268.749,223.921,274.741z"/>
								<path style="fill:#D63C3C;" d="M195.108,322.392l-0.998-0.049c0.007-0.147,0.763-14.994,5.404-33.044l0.969,0.25
									C195.868,307.493,195.116,322.244,195.108,322.392z"/>
								<path style="fill:#D63C3C;" d="M191.24,240.931c-3.798,2.994-9.231,14.063-9.231,14.063l5.643,5.188l-4.71,6.073
									c0,0,14.8,21.653,17.055,23.169c5.08-4.188,18.286-15.763,18.286-15.763l-3.128-6.789l7.631-0.477
									c0,0,0.42-21.986-9.096-26.846C204.175,234.688,197.229,236.211,191.24,240.931z"/>
								<path style="fill:#C9E1FF;" d="M193.412,258.823c0,0,1.674,14.874,7.004,26.35c4.958-5.156,13.284-20.862,14.325-24.642
									C215.782,256.752,199.023,247.831,193.412,258.823z"/>
								<path style="fill:#FFFFFF;" d="M202.183,237.662c-2.852,0.484-6.767,1.525-8.186,8.664
									c-1.368,6.883-0.589,14.559-0.056,15.27c7.364-0.69,13.759-4.172,13.759-4.172s4.646,2.096,8.031,3.863
									c1.057-0.577,1.009-9.632,0.224-14.249C215.17,242.421,208.658,236.563,202.183,237.662z"/>
							</g>
							<path style="fill:#D63C3C;" d="M167.811,312.621h20.622c0,0-4.296,5.8-12.889,5.156
								C171.386,317.465,167.811,312.621,167.811,312.621z"/>
							<path style="fill:#D63C3C;" d="M197.671,312.407h11.815c0,0-1.48,4.296-6.444,4.296
								C199.175,316.703,197.671,312.407,197.671,312.407z"/>
						</g>
					</g>
					<g>
						<path style="fill:#FF7668;" d="M255.752,254.15l6.462-3.192c0,0,1.401-8.72,2.414-9.732c1.012-1.012,1.479,0.233,1.246,1.557
							c-0.234,1.324-0.623,7.786-0.701,7.552c-0.078-0.233,4.671-6.54,5.45-7.318c0.779-0.779,1.732-0.277,1.567,0.601
							c-0.165,0.878-4.681,8.586-4.681,8.586s5.898-7.211,6.384-6.851c0.486,0.359,0.934,0.701,0,2.258
							c-0.934,1.557-4.282,9.421-6.618,10.744c-2.336,1.324-6.618,2.102-8.642,1.791
							C256.609,259.833,252.482,259.522,255.752,254.15z"/>
						<path style="fill:#FFBA95;" d="M254.839,259.001c0,0-3.749-1.754-3.749-4.866c0-1.994,4.068-3.191,4.946-4.387
							c0.878-1.197,0.634-4.43,1.516-4.228c0.881,0.202,1.869,1.984,1.516,3.749c-0.479,2.393-3.669,3.909-3.669,3.909
							s4.472,1.052,4.228,3.988C259.466,259.081,258.189,260.516,254.839,259.001z"/>
						<path style="fill:#FFBA95;" d="M258.633,260.145c0,0,3.426,1.401,7.241,1.012s4.36-3.659,6.151-5.995
							c1.791-2.336,3.815-3.737,3.737-4.516c-0.078-0.779-2.808-0.389-4.362,1.051c-1.555,1.44-2.061,3.841-3.579,4.476
							C266.302,256.81,259.49,255.395,258.633,260.145z"/>
					</g>
					<g>
						<path style="fill:#D63C3C;" d="M172.555,251.344c-10.603-2.892-18.417,16.304-25.361,27.777
							c-6.944,11.473-9.67,29.816,0.449,30.608c10.118,0.792,18.113-8.978,25.214-25.777
							C179.982,267.095,182.518,254.061,172.555,251.344z"/>
						<path style="fill:#BA2F2F;" d="M167.825,284.727c0,0-6.15-3.103-11.701-0.675c-3.6,1.575-7.425,6.75-7.425,6.75
							L167.825,284.727z"/>
					</g>
					<g>
						<path style="fill:#D63C3C;" d="M192.897,303.187c0,0,2.02-5.428,0.335-14.064c-1.685-8.636-6.111-10.232-6.111-10.232
							S180.45,290.289,192.897,303.187z"/>
						<path style="fill:#FFBA95;" d="M217.067,269.194c-0.074,0.403-3.549-0.424-5.43-0.902c-0.753-0.192-1.55-0.037-2.177,0.421
							l-1.074,0.784l0.017-0.004c0.156-0.038,1.32-0.299,2.189,0.224c0.928,0.565,7.49,6.941,6.279,8.042
							c-1.21,1.105-6.608-4.955-6.608-4.955l-2.868,0.881c0,0,5.179,8.59,4.188,10.024c-0.991,1.434-5.398-6.608-5.398-6.608
							l-3.635-0.552c0,0,5.288,8.814,4.846,10.134c-0.439,1.324-1.982-0.658-5.727-5.508c-2.206,2.206-7.933,3.087-7.933,3.087
							l-8.042,4.297l-0.443-7.932c0,0,13.697-7.874,17.257-10.029c0.325-0.198,0.565-0.346,0.704-0.439
							c1.645-1.088,4.379-4.82,7.024-4.93C212.88,265.121,217.169,268.642,217.067,269.194z"/>
						<path style="fill:#EF5B5B;" d="M187.121,278.89c0,0-1.998,10.127,5.776,24.296c-3.14,1.628-16.962,5.043-30.531,6.876
							c-13.569,1.834-18.704,0.55-20.446-4.217s1.742-10.544,6.51-12.836C153.198,290.717,187.121,278.89,187.121,278.89z"/>
						<path style="fill:#FFCC00;" d="M181.293,302.562c0,0.736-0.597,1.333-1.334,1.333c-0.736,0-1.333-0.597-1.333-1.333
							c0-0.737,0.597-1.334,1.333-1.334C180.696,301.229,181.293,301.826,181.293,302.562z"/>
						<path style="fill:#FFCC00;" d="M186.548,300.915c0,0.736-0.597,1.334-1.334,1.334c-0.737,0-1.334-0.597-1.334-1.334
							c0-0.737,0.597-1.333,1.334-1.333C185.951,299.582,186.548,300.178,186.548,300.915z"/>
						<path style="fill:#FF7668;" d="M217.067,269.194c-0.074,0.403-3.549-0.424-5.43-0.902c-0.753-0.192-1.55-0.037-2.177,0.421
							l-1.074,0.784c0,0-2.64,0.856-4.74,1.126c-0.422,0.055-0.801,0.038-1.139-0.025c0.325-0.198,0.565-0.346,0.704-0.439
							c1.645-1.088,4.379-4.82,7.024-4.93C212.88,265.121,217.169,268.642,217.067,269.194z"/>
						<path style="fill:#D63C3C;" d="M172.142,284.671c-0.205,0-0.398-0.128-0.471-0.332c-0.093-0.261,0.043-0.547,0.303-0.639
							c8.043-2.863,14.981-5.281,14.981-5.281c0.262-0.094,0.546,0.046,0.637,0.307c0.092,0.262-0.046,0.546-0.307,0.637
							c-0.001,0.001-6.937,2.418-14.976,5.279C172.254,284.662,172.198,284.671,172.142,284.671z"/>
						<path style="fill:#D63C3C;" d="M152.606,311.364c-1.052,0-2.009-0.043-2.887-0.127c-0.274-0.026-0.476-0.272-0.45-0.546
							c0.027-0.275,0.282-0.459,0.546-0.45c2.987,0.287,6.955,0.073,12.483-0.674c14.203-1.919,27.473-5.323,30.368-6.825
							c0.245-0.126,0.547-0.031,0.675,0.214c0.127,0.245,0.031,0.547-0.214,0.675c-3.356,1.739-17.495,5.145-30.694,6.927
							C158.431,311.1,155.227,311.364,152.606,311.364z"/>
					</g>
					<g>
						<g>
							<path style="fill:#FFBA95;" d="M230.232,222.968c-2.293,10.256-4.575,17.136-10.88,16.774c-1.04-0.06-2.522-0.411-3.56-0.541
								c-0.034-0.004-0.063-0.008-0.097-0.013c-1.122-0.139-2.244,0.219-2.72,1.253c-0.152,0.337-0.299,0.713-0.409,1.13
								c-0.16,0.565-0.266,1.198-0.266,1.889c0,2.889,1.386,10.764-4.148,12.98c-3.828,1.533-9.332-6.962-10.556-12.353
								c-0.411-1.812,0.23-3.717,1.682-4.876c1.16-0.925,2.137-2.746,3.672-7.514c2.425-7.532,2.821-9.476,4.803-10.303
								c1.986-0.827,14.381-2.724,18.345-6.528C230.396,219.992,230.011,220.915,230.232,222.968z"/>
							<path style="fill:#FF7668;" d="M215.695,239.189c-1.122-0.139-2.244,0.219-2.72,1.253c-0.152,0.337-0.299,0.713-0.409,1.13
								c-3.032-2.126-6.503-6.195-4.504-13.39c0,0-0.114,4.289,1.522,6.431C210.727,236.11,212.115,238.1,215.695,239.189z"/>
						</g>
						<path style="fill:#FF7668;" d="M223.4,222.119c0,0-2.226,2.501-1.443,4.822c0.43,1.272,1.33,1.995,1.33,1.995l-1.53,2.059
							c0,0,2.53-1.177,3.354-1.942C224.041,228.214,221.539,227.251,223.4,222.119z"/>
						<g>
							<path style="fill:#3E3E64;" d="M219.669,224.697c0,0.758-0.614,1.372-1.372,1.372c-0.758,0-1.372-0.614-1.372-1.372
								c0-0.758,0.614-1.372,1.372-1.372C219.055,223.325,219.669,223.939,219.669,224.697z"/>
							<path style="fill:#3E3E64;" d="M216.185,221.161c0,0,1.403,0.054,2.408,0.194c1.006,0.14,2.976,0.63,2.976,0.63
								s-0.583-1.526-2.554-1.689C217.276,220.151,216.185,221.161,216.185,221.161z"/>
						</g>
						<g>
							<path style="fill:#3E3E64;" d="M227.209,226.06c0,0.758-0.614,1.372-1.372,1.372c-0.758,0-1.372-0.614-1.372-1.372
								c0-0.758,0.614-1.372,1.372-1.372C226.595,224.688,227.209,225.302,227.209,226.06z"/>
							<path style="fill:#3E3E64;" d="M229.172,223.979c0,0-1.13-0.454-1.977-0.684c-0.847-0.231-2.584-0.484-2.584-0.484
								s1.013-1.206,2.632-0.651C228.672,222.651,229.172,223.979,229.172,223.979z"/>
						</g>
						<g>
							<path style="fill:#3E3E64;" d="M222.235,233.055c0,0-1.902,1.965-4.441,1.143c-1.447-0.401-2.096-1.345-2.383-2.189
								c-0.287-0.827-0.219-1.556-0.219-1.556c1.75,0.708,3.871,1.48,5.326,1.999C221.544,232.815,222.235,233.055,222.235,233.055z
								"/>
							<path style="fill:#FFFFFF;" d="M220.519,232.452c-0.325,0.333-0.928,0.7-2.024,0.7c-0.736,0-1.415-0.21-1.981-0.477
								c-0.834-0.394-1.368-1.243-1.324-2.164c0.002-0.038,0.004-0.058,0.004-0.058
								C216.943,231.161,219.064,231.933,220.519,232.452z"/>
							<path style="fill:#FF7668;" d="M215.192,230.453c0,0,1.1,1.275,3.044,1.923c2.443,0.814,4,0.679,4,0.679
								S218.195,231.165,215.192,230.453z"/>
						</g>
						<g>
							<path style="fill:#FFBA95;" d="M205.014,218.723c-2.303-2.688-5.516,0.163-4.783,4.069c0.733,3.907,2.906,5.717,4.85,5.206
								C207.024,227.488,207.317,221.411,205.014,218.723z"/>
							<path style="fill:#FF7668;" d="M205.419,225.849c-0.29-0.116-0.997-0.271-0.968-0.705c0.022-0.331,0.533-0.608,0.716-0.852
								c0.607-0.809,0.406-1.897-0.005-2.743c-0.379-0.778-0.87-1.78-1.784-2.016c-0.9-0.233-1.529,0.47-1.787,1.252
								c-0.281,0.856-0.345,2.038,0.102,2.846c0.035,0.063,0.149,0.037,0.141-0.039c-0.116-1.061-0.227-2.229,0.548-3.104
								c0.948-1.071,1.729,1.015,1.964,1.648c0.168,0.454,0.273,0.984,0.058,1.442c-0.188,0.4-0.589,0.647-0.772,1.053
								c-0.499,1.106,0.715,2.023,1.739,1.779C205.649,226.343,205.696,225.959,205.419,225.849z"/>
							<path style="fill:#FF7668;" d="M204.847,225.858c-0.287,0.023-0.595-0.016-0.88-0.057c-0.243-0.035-0.477-0.114-0.684-0.247
								c-0.385-0.247-0.65-0.698-0.639-1.16c0.013-0.516,0.398-0.879,0.776-1.178c0.226-0.179,0.46-0.348,0.686-0.526
								c0.13-0.102,0.248-0.206,0.366-0.322c0.138-0.135,0.345-0.279,0.374-0.485c0.006-0.046-0.013-0.101-0.065-0.11
								c-0.191-0.035-0.355,0.075-0.52,0.16c-0.173,0.089-0.337,0.182-0.499,0.289c-0.311,0.206-0.627,0.411-0.919,0.645
								c-0.528,0.423-0.927,1-0.885,1.702c0.04,0.668,0.393,1.285,0.967,1.636c0.3,0.184,0.637,0.286,0.985,0.33
								c0.374,0.047,0.728-0.061,1.059-0.225C205.21,226.19,205.116,225.837,204.847,225.858z"/>
						</g>
						<path style="fill:#FF7668;" d="M214.409,235.949c-0.214-0.471,1.712-1.027,2.61-0.428c0.899,0.599,1.241,1.455,0.685,1.626
							C217.148,237.318,214.745,236.688,214.409,235.949z"/>
					</g>
				</g>
			</g>
			<g>
				<polygon style="fill:#3E3E64;" points="143.648,453.495 135.388,453.495 167.811,312.621 181.175,312.621 				"/>
				<polygon style="fill:#2C2C4C;" points="371.211,449.481 379.471,449.481 351.74,312.621 338.376,312.621 				"/>
				<polygon style="fill:#3E3E64;" points="468.966,453.495 477.226,453.495 446.217,312.621 432.853,312.621 				"/>
				<rect x="127.702" y="310.063" style="fill:#3A7AAA;" width="335.145" height="7.694"/>
			</g>
			<g>
				<polygon style="fill:#3E3E64;" points="422.171,310.063 351.546,310.063 335.824,267.022 409.879,264.838 				"/>
				<polygon style="fill:#2C2C4C;" points="425.914,310.063 422.171,310.063 408.508,267.022 335.824,267.022 338.055,263.577 
					411.158,263.577 				"/>
				<polygon style="fill:#2C2C4C;" points="416.967,293.207 409.861,310.063 335.617,310.063 346.236,293.207 				"/>
			</g>
			<g>
				<polygon style="fill:#2C2C4C;" points="279.557,275.405 278.312,273.451 227.042,273.689 216.224,305.072 218.869,304.797 				
					"/>
				<polygon style="fill:#3E3E64;" points="228.636,275.405 218.509,304.797 269.431,304.797 279.557,275.405 				"/>
				<rect x="194.09" y="304.797" style="fill:#3E3E64;" width="75.341" height="4.989"/>
				<rect x="194.09" y="304.797" style="fill:#2C2C4C;" width="24.778" height="4.989"/>
				<path style="fill:#FFFFFF;" d="M251.923,292.531c-0.764,2.103-3.012,3.808-5.02,3.808c-2.008,0-3.017-1.705-2.252-3.808
					c0.764-2.103,3.012-3.808,5.02-3.808C251.679,288.723,252.687,290.427,251.923,292.531z"/>
			</g>
		</g>
		<g>
			<g>
				<path style="fill:#4DBB00;" d="M81.907,379.925c-0.799,1.596-2.107,2.873-3.228,4.261c-0.049,0.06-0.094,0.124-0.143,0.184
					c-2.424,3.072-3.952,6.812-4.496,10.678c-0.27,1.933-0.298,3.903-0.063,5.841c0.113,0.969,0.295,1.93,0.541,2.875
					c0.107,0.412,0.376,0.937,0.353,1.361c-0.092,1.519-1.097,3.148-2.221,4.105c-0.734,0.628-1.597,1.068-2.52,1.329
					c-0.711,0.203-1.458,0.298-2.199,0.28c-1.747-0.029-3.478-0.658-4.745-1.864c-3.823-3.642-2.738-10.499-6.492-14.219
					c-3.313-3.288-9.074-2.794-12.822-5.351c-0.459-0.317-0.892-0.676-1.281-1.096c-3.247-3.475-2.158-8.977-1.142-13.617
					c0.656-2.982,1.063-6.302,0.117-9.27c-0.486-1.532-1.387-2.415-2.377-3.606c-2.827-3.395-8.694-3.151-10.78-7.316
					c-1.561-3.12,0.372-6.812,2.473-9.595c1.818-2.412,4.531-5.489,4.241-8.705c-0.292-3.24-2.686-6.016-4.82-8.278
					c-2.844-3.016-5.931-6.915-4.643-10.852c1.435-4.377,7.412-5.726,9.327-9.913c1.192-2.613,0.495-5.689-0.598-8.342
					c-1.097-2.653-2.582-5.204-2.979-8.047c-0.425-3.024,0.92-5.077,2.597-7.402c0.865-1.201,2.094-1.908,3.491-2.406
					c5.237-1.868,11.934,0.643,14.19,5.839c1.952,4.499,0.995,10.347,4.477,13.799c3.352,3.326,9.188,2.657,12.802,5.689
					c4.099,3.442,3.531,9.851,2.124,15.012c-1.407,5.164-3.24,10.917-0.662,15.604c2.735,4.975,9.876,7.434,10.307,13.094
					c0.432,5.692-6.615,10.35-5.213,15.884c0.479,1.878,1.852,3.338,3.187,4.666c0.659,0.655,1.338,1.296,1.962,1.985
					c0.537,0.589,1.163,1.241,1.411,2.015C82.659,376.331,82.772,378.211,81.907,379.925z"/>
				<path style="fill:#528741;" d="M70.129,410.557c-0.711,0.203-1.458,0.298-2.199,0.28c-1.456-8.663-3.009-17.324-4.686-25.949
					c-3.099-15.968-6.541-31.886-10.109-47.755c-1.751-7.786-3.473-15.582-5.433-23.323c-0.999-3.953-2.022-7.9-3.097-11.835
					c-1.129-4.14-1.846-8.407-3.015-12.528c-0.136-0.484,0.552-0.742,0.74-0.27c1.761,4.43,3.755,8.682,5.247,13.23
					c1.417,4.325,2.734,8.677,3.979,13.049c4.411,15.487,7.904,31.182,11.242,46.928C66.158,378.255,70.109,394.259,70.129,410.557z
					"/>
				<path style="fill:#528741;" d="M65.913,310.284c-4.471,6.058-8.811,12.058-13.742,17.765c-1.263,1.462,0.915,3.546,2.188,2.073
					c4.936-5.714,9.393-12.413,12.096-19.477C66.579,310.323,66.152,309.961,65.913,310.284z"/>
				<path style="fill:#528741;" d="M54.654,330.905c-1.445-1.454-3.714-2.171-5.532-3.081c-1.98-0.991-3.928-2.04-5.879-3.086
					c-3.715-1.993-7.431-4.018-11.1-6.094c-0.369-0.209-0.706,0.34-0.399,0.608c3.329,2.903,6.757,5.555,10.467,7.958
					c1.782,1.154,3.612,2.239,5.451,3.3c1.882,1.085,3.827,2.483,6.008,2.753C54.92,333.417,55.433,331.688,54.654,330.905z"/>
				<path style="fill:#528741;" d="M61.013,357.591c-0.953-1.309-1.962-1.263-3.457-1.603c-1.652-0.376-3.286-0.95-4.867-1.553
					c-3.827-1.459-7.631-3.285-11.209-5.294c-0.33-0.186-0.584,0.277-0.348,0.52c2.625,2.7,5.538,4.988,8.917,6.683
					c1.562,0.783,3.173,1.471,4.809,2.083c1.846,0.691,3.771,1.879,5.664,0.977C61.119,359.118,61.413,358.141,61.013,357.591z"/>
				<path style="fill:#528741;" d="M70.822,345.987c-3.519,6.434-8.223,12.584-10.892,19.432c-0.536,1.376,1.538,2.182,2.291,1.016
					c1.928-2.988,3.268-6.539,4.706-9.788c1.523-3.44,2.944-6.941,4.555-10.34C71.685,345.878,71.047,345.575,70.822,345.987z"/>
				<path style="fill:#528741;" d="M66.714,386.189c-0.63-1.478-2.175-2.141-3.472-3.01c-1.424-0.954-2.86-1.879-4.318-2.78
					c-3.063-1.893-6.137-3.654-9.419-5.14c-0.597-0.27-1.035,0.533-0.575,0.948c2.712,2.441,5.594,4.572,8.593,6.647
					c1.417,0.981,2.845,1.931,4.296,2.86c1.231,0.788,2.428,1.919,3.944,1.867C66.507,387.555,67.026,386.92,66.714,386.189z"/>
				<path style="fill:#528741;" d="M77.756,375.905c-1.984,2.291-3.942,4.575-5.849,6.935c-2.086,2.582-4.467,4.918-6.534,7.504
					c-1.212,1.517,0.7,3.3,2.165,2.06c4.857-4.111,8.74-10.152,10.827-16.1C78.494,375.932,78.048,375.568,77.756,375.905z"/>
			</g>
			<g>
				<path style="fill:#4DBB00;" d="M78.557,377.463c0.324,1.755,1.225,3.346,1.916,4.991c0.03,0.071,0.056,0.145,0.086,0.216
					c1.474,3.625,1.902,7.642,1.349,11.507c-0.278,1.932-0.8,3.832-1.564,5.628c-0.378,0.899-0.82,1.772-1.319,2.611
					c-0.218,0.366-0.621,0.795-0.718,1.209c-0.334,1.485,0.179,3.329,0.992,4.56c0.53,0.807,1.237,1.47,2.052,1.977
					c0.627,0.393,1.317,0.692,2.035,0.88c1.686,0.458,3.524,0.336,5.076-0.471c4.685-2.435,5.549-9.323,10.19-11.852
					c4.096-2.237,9.493-0.16,13.804-1.574c0.529-0.177,1.045-0.402,1.535-0.696c4.085-2.435,4.57-8.023,4.884-12.762
					c0.199-3.047,0.731-6.349,2.465-8.937c0.893-1.336,2.004-1.934,3.286-2.803c3.66-2.475,9.227-0.609,12.39-4.03
					c2.368-2.563,1.537-6.647,0.293-9.905c-1.076-2.822-2.826-6.533-1.653-9.541c1.181-3.031,4.253-5.031,6.932-6.611
					c3.571-2.106,7.62-4.993,7.478-9.133c-0.162-4.604-5.527-7.561-6.203-12.116c-0.418-2.841,1.106-5.602,2.894-7.847
					c1.791-2.243,3.928-4.281,5.1-6.901c1.249-2.787,0.528-5.133-0.436-7.833c-0.497-1.394-1.48-2.415-2.684-3.282
					c-4.51-3.251-11.642-2.702-15.254,1.662c-3.127,3.779-3.833,9.662-8.138,12.01c-4.144,2.263-9.564-0.003-13.879,1.905
					c-4.895,2.166-6.131,8.481-6.215,13.829c-0.085,5.352,0.077,11.387-3.704,15.173c-4.01,4.018-11.554,4.394-13.541,9.711
					c-1.998,5.348,3.476,11.781,0.59,16.707c-0.982,1.671-2.707,2.691-4.359,3.596c-0.815,0.445-1.645,0.872-2.437,1.361
					c-0.68,0.416-1.463,0.869-1.916,1.543C78.834,373.802,78.202,375.576,78.557,377.463z"/>
				<path style="fill:#3F703B;" d="M81.351,410.162c0.627,0.393,1.317,0.692,2.035,0.88c3.807-7.916,7.708-15.804,11.717-23.622
					c7.417-14.476,15.15-28.809,22.991-43.06c3.847-6.992,7.67-14.002,11.705-20.892c2.059-3.519,4.139-7.025,6.267-10.507
					c2.235-3.663,4.111-7.562,6.38-11.195c0.265-0.427-0.323-0.866-0.635-0.465c-2.923,3.765-6.021,7.296-8.719,11.249
					c-2.564,3.76-5.039,7.574-7.451,11.428c-8.544,13.65-16.264,27.754-23.848,41.95C94.149,380.239,85.902,394.513,81.351,410.162z
					"/>
				<path style="fill:#3F703B;" d="M113.286,315.017c2.61,7.062,5.11,14.033,8.259,20.886c0.807,1.756-1.865,3.151-2.678,1.382
					c-3.152-6.861-5.571-14.535-6.202-22.073C112.636,314.87,113.147,314.641,113.286,315.017z"/>
				<path style="fill:#3F703B;" d="M118.367,337.956c1.793-0.994,4.171-1.053,6.17-1.421c2.177-0.401,4.341-0.867,6.506-1.33
					c4.123-0.882,8.255-1.793,12.357-2.767c0.412-0.098,0.584,0.523,0.214,0.695c-4.005,1.863-8.035,3.457-12.267,4.734
					c-2.033,0.613-4.092,1.147-6.153,1.654c-2.109,0.519-4.367,1.321-6.537,0.974C117.412,340.295,117.401,338.491,118.367,337.956z
					"/>
				<path style="fill:#3F703B;" d="M104.837,361.821c1.28-0.992,2.236-0.668,3.767-0.579c1.691,0.098,3.421,0.001,5.107-0.138
					c4.082-0.337,8.243-1.033,12.239-1.969c0.369-0.086,0.484,0.429,0.189,0.596c-3.273,1.863-6.707,3.251-10.423,3.939
					c-1.718,0.318-3.456,0.53-5.198,0.664c-1.965,0.151-4.145,0.756-5.712-0.637C104.311,363.258,104.3,362.238,104.837,361.821z"/>
				<path style="fill:#3F703B;" d="M98.642,347.947c1.591,7.159,4.399,14.375,5.058,21.694c0.132,1.471-2.085,1.669-2.483,0.339
					c-1.021-3.406-1.321-7.19-1.799-10.711c-0.506-3.728-0.898-7.486-1.499-11.199C97.843,347.602,98.54,347.489,98.642,347.947z"/>
				<path style="fill:#3F703B;" d="M91.408,387.706c1.017-1.244,2.685-1.452,4.172-1.926c1.633-0.52,3.269-1.009,4.92-1.469
					c3.468-0.966,6.911-1.803,10.477-2.318c0.649-0.094,0.846,0.8,0.288,1.07c-3.284,1.591-6.645,2.836-10.102,3.995
					c-1.634,0.548-3.27,1.064-4.922,1.552c-1.402,0.414-2.866,1.168-4.308,0.697C91.227,389.075,90.905,388.321,91.408,387.706z"/>
				<path style="fill:#3F703B;" d="M83.662,374.757c1.269,2.752,2.515,5.491,3.69,8.288c1.286,3.06,2.923,5.966,4.189,9.025
					c0.743,1.794-1.59,2.975-2.652,1.376c-3.522-5.3-5.572-12.183-5.922-18.476C82.945,374.577,83.475,374.352,83.662,374.757z"/>
			</g>
			<g>
				<path style="fill:#3F703B;" d="M64.593,390.267c1.02,1.464,2.497,2.541,3.806,3.754c0.057,0.052,0.111,0.109,0.168,0.161
					c2.84,2.692,4.888,6.175,5.981,9.922c0.544,1.874,0.854,3.82,0.9,5.772c0.027,0.975-0.015,1.952-0.123,2.923
					c-0.047,0.423-0.237,0.981-0.154,1.398c0.309,1.49,1.537,2.958,2.787,3.743c0.816,0.516,1.734,0.828,2.685,0.953
					c0.733,0.099,1.486,0.086,2.217-0.039c1.725-0.28,3.348-1.15,4.429-2.525c3.261-4.153,1.203-10.783,4.385-15.003
					c2.807-3.729,8.58-4.067,11.921-7.135c0.409-0.38,0.786-0.798,1.11-1.268c2.715-3.905,0.848-9.194-0.823-13.64
					c-1.077-2.857-1.956-6.084-1.446-9.157c0.261-1.586,1.026-2.589,1.835-3.91c2.311-3.766,8.152-4.366,9.619-8.787
					c1.098-3.312-1.346-6.688-3.824-9.141c-2.146-2.126-5.271-4.783-5.446-8.007c-0.176-3.248,1.795-6.339,3.583-8.884
					c2.382-3.393,4.878-7.695,3.038-11.406c-2.049-4.126-8.157-4.603-10.653-8.472c-1.554-2.415-1.306-5.559-0.605-8.342
					c0.705-2.783,1.809-5.521,1.794-8.391c-0.014-3.054-1.639-4.892-3.632-6.953c-1.028-1.065-2.346-1.588-3.8-1.88
					c-5.45-1.098-11.718,2.348-13.206,7.814c-1.287,4.733,0.499,10.383-2.451,14.299c-2.84,3.772-8.712,3.947-11.853,7.467
					c-3.563,3.994-2.081,10.256,0.051,15.161c2.133,4.909,4.773,10.339,2.894,15.348c-1.993,5.316-8.708,8.774-8.322,14.437
					c0.389,5.695,8.032,9.294,7.437,14.972c-0.205,1.927-1.354,3.569-2.485,5.075c-0.558,0.742-1.138,1.474-1.657,2.246
					c-0.447,0.66-0.973,1.395-1.107,2.197C63.333,386.818,63.491,388.695,64.593,390.267z"/>
				<path style="fill:#395736;" d="M80.643,418.893c0.733,0.099,1.486,0.086,2.217-0.039c0.198-8.782,0.492-17.576,0.915-26.352
					c0.776-16.247,1.899-32.494,3.154-48.711c0.616-7.957,1.202-15.92,2.031-23.861c0.422-4.055,0.868-8.108,1.368-12.157
					c0.523-4.259,0.621-8.585,1.186-12.831c0.065-0.498-0.652-0.655-0.771-0.161c-1.107,4.637-2.471,9.131-3.295,13.846
					c-0.782,4.484-1.461,8.979-2.066,13.485c-2.144,15.96-3.349,31.994-4.393,48.055C79.939,386.355,78.325,402.76,80.643,418.893z"
					/>
				<path style="fill:#395736;" d="M70.43,319.052c5.294,5.354,10.45,10.67,16.148,15.61c1.46,1.266-0.397,3.64-1.868,2.365
					c-5.705-4.946-11.077-10.937-14.765-17.541C69.778,319.186,70.148,318.767,70.43,319.052z"/>
				<path style="fill:#395736;" d="M84.532,337.844c1.222-1.646,3.364-2.682,5.032-3.843c1.817-1.265,3.595-2.582,5.376-3.898
					c3.391-2.506,6.778-5.042,10.111-7.624c0.335-0.26,0.748,0.236,0.482,0.545c-2.878,3.351-5.89,6.467-9.217,9.378
					c-1.598,1.398-3.253,2.734-4.921,4.047c-1.706,1.343-3.432,3.006-5.551,3.586C84.628,340.369,83.873,338.731,84.532,337.844z"/>
				<path style="fill:#395736;" d="M82.067,365.167c0.756-1.432,1.761-1.532,3.192-2.083c1.581-0.609,3.116-1.412,4.594-2.235
					c3.578-1.993,7.081-4.346,10.333-6.848c0.3-0.231,0.618,0.191,0.419,0.465c-2.211,3.049-4.765,5.731-7.866,7.893
					c-1.433,0.999-2.929,1.91-4.46,2.751c-1.728,0.949-3.463,2.401-5.465,1.779C82.18,366.693,81.75,365.769,82.067,365.167z"/>
				<path style="fill:#395736;" d="M70.695,355.091c4.406,5.863,9.943,11.274,13.567,17.668c0.728,1.285-1.209,2.381-2.121,1.335
					c-2.337-2.68-4.173-6.003-6.062-9.012c-2-3.186-3.909-6.447-5.991-9.579C69.824,355.106,70.412,354.715,70.695,355.091z"/>
				<path style="fill:#395736;" d="M80.527,394.287c0.412-1.553,1.845-2.431,3.004-3.477c1.272-1.148,2.561-2.27,3.874-3.37
					c2.759-2.313,5.549-4.497,8.584-6.438c0.552-0.353,1.101,0.379,0.705,0.856c-2.334,2.805-4.881,5.327-7.55,7.811
					c-1.262,1.174-2.538,2.319-3.841,3.447c-1.106,0.956-2.128,2.248-3.635,2.414C80.928,395.609,80.323,395.055,80.527,394.287z"/>
				<path style="fill:#395736;" d="M68.125,385.694c2.292,1.983,4.558,3.962,6.784,6.024c2.435,2.256,5.126,4.226,7.542,6.489
					c1.417,1.327-0.219,3.366-1.847,2.349c-5.397-3.372-10.106-8.794-13.024-14.38C67.397,385.826,67.787,385.402,68.125,385.694z"
					/>
			</g>
			<g>
				<polygon style="fill:#D47046;" points="123.511,402.387 110.301,455.318 55.602,455.318 42.393,402.387 				"/>
				<g>
					<polygon style="fill:#B55D46;" points="77.044,455.318 65.744,455.318 58.583,402.387 74.655,402.387 					"/>
					<polygon style="fill:#B55D46;" points="106.792,402.387 99.63,455.318 88.337,455.318 90.72,402.387 					"/>
				</g>
			</g>
			<rect x="36.724" y="393.828" style="fill:#F09755;" width="92.456" height="13.033"/>
		</g>
		<g>
			<g>
				<path style="fill:#FFCC00;" d="M339.557,120.348c0,6.051-1.079,11.856-3.06,17.224c-0.551,1.504-1.177,2.974-1.872,4.404
					c-2.365,4.932-5.523,9.41-9.312,13.279c-6.424,6.556-11.924,15.96-11.924,25.135h-47.44c0-9.197-5.781-18.768-12.171-25.388
					c-3.399-3.519-6.287-7.538-8.531-11.936c-0.614-1.188-1.177-2.406-1.694-3.646c-2.618-6.315-3.973-13.285-3.755-20.594
					c0.769-25.784,21.42-46.946,47.181-48.295C315.754,69.021,339.557,91.906,339.557,120.348z"/>
				<path style="fill:#FFB300;" d="M276.028,183.913c0,0,1.855-16.892-4.917-26.781c-7.864-12.287-19.122-11.872-19.122-37.921
					c0-22.507,21.765-36.741,37.785-36.599c12.486,0.111,36.529,10.79,36.384,33.725c-0.246,38.828-22.61,29.358-22.363,67.335
					L276.028,183.913z"/>
				<path style="fill:#FFCC00;" d="M294.329,185.771l-4.018-0.075l0.689-36.957c0.118-6.371,2.954-12.411,7.778-16.572l2.755-2.376
					c1.741-1.501,1.8-3.546,1.275-4.959c-0.525-1.413-1.906-2.923-4.204-2.923h-18.747c-2.277,0-3.658,1.491-4.19,2.886
					c-0.532,1.395-0.496,3.426,1.203,4.944l1.957,1.748c4.759,4.252,7.489,10.351,7.489,16.733v37.513h-4.019v-37.513
					c0-5.239-2.241-10.245-6.148-13.735l-1.957-1.748c-2.653-2.37-3.548-6.05-2.28-9.374c1.269-3.324,4.387-5.472,7.945-5.472
					h18.747c3.591,0,6.72,2.175,7.971,5.541c1.251,3.366,0.302,7.057-2.417,9.402l-2.755,2.376
					c-3.961,3.416-6.288,8.374-6.385,13.604L294.329,185.771z"/>
				<path style="fill:#94A3B4;" d="M313.389,180.389l-0.953,32.966c-0.293,10.288-8.721,18.469-19.009,18.469h-7.515
					c-0.275,0-0.551-0.006-0.827-0.017c-9.915-0.425-17.895-8.439-18.188-18.452l-0.947-32.966H313.389z"/>
				<path style="fill:#8290A1;" d="M285.085,231.807c-9.915-0.425-17.895-8.439-18.188-18.452l-0.947-32.966h13.188v38.667
					C279.137,222.099,280.09,227.892,285.085,231.807z"/>
				<path style="fill:#596B85;" d="M316.61,196.889c0,1.705-0.689,3.244-1.803,4.358c-1.12,1.114-2.658,1.803-4.358,1.803h-41.56
					c-3.405,0-6.16-2.756-6.16-6.16c0-1.699,0.689-3.238,1.803-4.358c1.114-1.114,2.658-1.803,4.358-1.803h41.56
					C313.848,190.729,316.61,193.49,316.61,196.889z"/>
				<path style="fill:#596B85;" d="M316.61,214.957v0.006c0,3.399-2.762,6.155-6.16,6.155h-41.56c-3.405,0-6.16-2.756-6.16-6.155
					v-0.006c0-3.399,2.756-6.154,6.16-6.154h41.56C313.848,208.802,316.61,211.558,316.61,214.957z"/>
				<path style="fill:#48566B;" d="M279.832,203.049h-10.943c-3.405,0-6.16-2.756-6.16-6.16c0-1.699,0.689-3.238,1.803-4.358
					c1.114-1.114,2.658-1.803,4.358-1.803h10.943c-1.699,0-3.244,0.689-4.358,1.803c-1.114,1.12-1.803,2.658-1.803,4.358
					C273.672,200.294,276.427,203.049,279.832,203.049z"/>
				<path style="fill:#48566B;" d="M279.832,221.117h-10.943c-3.405,0-6.16-2.756-6.16-6.155v-0.006c0-3.399,2.756-6.154,6.16-6.154
					h10.943c-3.404,0-6.16,2.756-6.16,6.154v0.006C273.672,218.361,276.427,221.117,279.832,221.117z"/>
			</g>
			
				<radialGradient id="SVGID_00000052082398062939958480000015421332073002370486_" cx="277.7139" cy="114.5261" r="23.5019" gradientUnits="userSpaceOnUse">
				<stop  offset="0.5744" style="stop-color:#FFFFFF;stop-opacity:0"/>
				<stop  offset="0.7977" style="stop-color:#FFFFFF;stop-opacity:0.6512"/>
				<stop  offset="1" style="stop-color:#FFFFFF;stop-opacity:0.95"/>
			</radialGradient>
			<path style="opacity:0.73;fill:url(#SVGID_00000052082398062939958480000015421332073002370486_);" d="M270.877,85.277
				c-8.328,2.352-14.954,8.034-19.044,15.653c-2.308,4.299-4.001,9.014-4.531,13.889c-0.532,4.897-0.286,11.471,3.6,15.071
				c1.801,1.668,4.601,2.034,6.705,0.722c2.005-1.251,3.224-3.531,3.655-5.806c0.933-4.927,0.33-9.642,2.097-14.528
				c2.439-6.744,7.312-12.069,12.551-16.803C279.718,90.033,275.371,84.007,270.877,85.277z"/>
		</g>
		<g>
			<g>
				<g>
					<polygon style="fill:#80BCE0;" points="659.347,140.41 655.392,156.315 698.636,115.382 					"/>
					<polygon style="fill:#ABD2EF;" points="663.586,143.551 655.392,156.315 698.636,115.382 					"/>
					<polygon style="fill:#C9E1FF;" points="643.943,136.871 698.636,115.382 659.347,140.41 					"/>
					<polygon style="fill:#C9E1FF;" points="698.636,115.382 663.586,143.551 672.2,164.408 					"/>
				</g>
				<g>
					<path style="fill:#C9E1FF;" d="M642.044,165.535c0.146,0,0.294-0.038,0.429-0.118c1.46-0.867,2.906-1.796,4.301-2.76
						c0.382-0.265,0.478-0.789,0.213-1.172c-0.265-0.382-0.788-0.478-1.171-0.213c-1.362,0.942-2.776,1.85-4.202,2.697
						c-0.4,0.237-0.531,0.754-0.294,1.154C641.477,165.387,641.758,165.535,642.044,165.535z"/>
					<path style="fill:#79BAE2;" d="M585.966,229.838c-0.372-0.278-0.45-0.805-0.172-1.178c1.975-2.65,3.849-5.446,5.571-8.312
						c0.239-0.398,0.756-0.528,1.156-0.288c0.398,0.24,0.527,0.757,0.288,1.155c-1.751,2.914-3.657,5.757-5.665,8.451
						c-0.165,0.222-0.418,0.339-0.676,0.339C586.293,230.005,586.117,229.95,585.966,229.838z M596.499,212.652
						c-0.419-0.2-0.598-0.702-0.397-1.122c1.428-2.994,2.733-6.099,3.878-9.229c0.16-0.436,0.645-0.66,1.08-0.501
						c0.437,0.16,0.661,0.644,0.502,1.08c-1.164,3.179-2.49,6.333-3.941,9.375c-0.144,0.303-0.446,0.479-0.76,0.479
						C596.739,212.734,596.616,212.708,596.499,212.652z M603.577,193.778c-0.45-0.118-0.718-0.579-0.599-1.029
						c0.848-3.22,1.552-6.514,2.093-9.79c0.075-0.458,0.502-0.777,0.968-0.693c0.459,0.076,0.769,0.509,0.693,0.968
						c-0.549,3.327-1.264,6.673-2.126,9.945c-0.099,0.377-0.44,0.627-0.813,0.627C603.721,193.806,603.649,193.796,603.577,193.778z
						 M602.767,175.494c-0.007-0.465,0.365-0.848,0.83-0.854c3.31-0.047,6.657-0.312,9.947-0.79
						c0.463-0.074,0.887,0.251,0.954,0.712c0.067,0.46-0.252,0.887-0.712,0.954c-3.362,0.488-6.782,0.76-10.164,0.808
						c-0.004,0-0.008,0-0.012,0C603.149,176.324,602.774,175.954,602.767,175.494z M593.437,175.792
						c-1.845-0.221-3.699-0.514-5.51-0.869c-1.502-0.295-3.02-0.643-4.512-1.034c-0.45-0.118-0.719-0.578-0.601-1.029
						c0.118-0.45,0.58-0.715,1.029-0.601c1.458,0.382,2.941,0.722,4.408,1.01c1.771,0.348,3.583,0.633,5.387,0.849
						c0.461,0.056,0.791,0.474,0.736,0.937c-0.052,0.428-0.415,0.742-0.835,0.742C593.505,175.797,593.471,175.796,593.437,175.792z
						 M607.014,173.915c-0.464-0.032-0.814-0.434-0.783-0.898c0.161-2.347,0.243-4.718,0.243-7.047c0-0.986-0.015-1.972-0.044-2.958
						c-0.013-0.465,0.353-0.852,0.817-0.867c0.46-0.002,0.852,0.353,0.867,0.817c0.029,1.002,0.043,2.004,0.043,3.007
						c0,2.367-0.083,4.777-0.246,7.162c-0.03,0.444-0.4,0.784-0.839,0.784C607.053,173.916,607.033,173.915,607.014,173.915z
						 M622.721,172.821c-0.126-0.448,0.136-0.913,0.584-1.038c3.205-0.897,6.372-2.008,9.414-3.305
						c0.427-0.183,0.922,0.016,1.104,0.445c0.182,0.428-0.016,0.922-0.445,1.104c-3.108,1.325-6.345,2.462-9.62,3.377
						c-0.076,0.021-0.152,0.031-0.228,0.031C623.164,173.436,622.825,173.193,622.721,172.821z M573.746,170.644
						c-3.127-1.286-6.208-2.795-9.157-4.486c-0.404-0.231-0.543-0.746-0.312-1.148c0.231-0.404,0.747-0.543,1.148-0.312
						c2.886,1.654,5.901,3.131,8.96,4.389c0.431,0.177,0.635,0.668,0.459,1.098c-0.134,0.326-0.448,0.522-0.779,0.522
						C573.959,170.707,573.851,170.687,573.746,170.644z M556.087,160.533c-2.709-2.055-5.302-4.301-7.707-6.676
						c-0.331-0.327-0.335-0.86-0.008-1.19c0.328-0.331,0.861-0.335,1.19-0.008c2.354,2.324,4.891,4.522,7.542,6.533
						c0.37,0.281,0.443,0.809,0.162,1.18c-0.166,0.218-0.417,0.333-0.672,0.333C556.419,160.704,556.24,160.648,556.087,160.533z
						 M605.637,153.04c-0.434-3.316-1.044-6.625-1.814-9.835c-0.108-0.452,0.17-0.907,0.622-1.015
						c0.455-0.105,0.906,0.171,1.015,0.622c0.783,3.268,1.403,6.636,1.845,10.01c0.061,0.461-0.264,0.884-0.725,0.944
						c-0.037,0.005-0.074,0.007-0.11,0.007C606.054,153.773,605.692,153.464,605.637,153.04z M541.613,146.229
						c-1.241-1.602-2.422-3.263-3.511-4.938c-0.769-1.181-1.493-2.379-2.151-3.561c-0.226-0.406-0.08-0.919,0.326-1.145
						c0.409-0.228,0.92-0.079,1.145,0.326c0.639,1.148,1.342,2.312,2.09,3.461c1.065,1.636,2.22,3.26,3.432,4.825
						c0.284,0.367,0.217,0.896-0.151,1.181c-0.154,0.118-0.335,0.176-0.515,0.176C542.028,146.555,541.779,146.443,541.613,146.229z
						 M600.971,133.625c-0.631-1.758-1.322-3.51-2.054-5.207c-0.585-1.354-1.208-2.696-1.851-3.99
						c-0.207-0.416-0.037-0.922,0.379-1.129c0.415-0.207,0.922-0.037,1.129,0.379c0.657,1.32,1.292,2.691,1.889,4.073
						c0.746,1.729,1.45,3.514,2.093,5.304c0.157,0.437-0.071,0.92-0.508,1.077c-0.094,0.034-0.19,0.049-0.284,0.049
						C601.418,134.182,601.094,133.968,600.971,133.625z M531.916,128.296c-0.888-3.029-1.338-5.993-1.338-8.808
						c0-0.48,0.013-0.96,0.04-1.442c0.026-0.465,0.43-0.822,0.888-0.793c0.464,0.026,0.819,0.423,0.793,0.888
						c-0.026,0.45-0.037,0.898-0.037,1.347c0,2.655,0.427,5.459,1.271,8.334c0.131,0.446-0.125,0.913-0.571,1.045
						c-0.079,0.023-0.159,0.034-0.237,0.034C532.36,128.901,532.024,128.664,531.916,128.296z M592.035,115.819
						c-1.943-2.838-4.048-5.436-6.26-7.721c-0.323-0.334-0.315-0.867,0.02-1.19c0.335-0.322,0.867-0.316,1.19,0.02
						c2.277,2.353,4.444,5.024,6.439,7.941c0.262,0.383,0.164,0.908-0.219,1.17c-0.146,0.099-0.311,0.147-0.474,0.147
						C592.462,116.185,592.198,116.057,592.035,115.819z M533.769,109.203c-0.406-0.226-0.552-0.738-0.326-1.145
						c1.648-2.96,3.967-5.565,6.89-7.745c0.373-0.277,0.9-0.201,1.178,0.172c0.278,0.372,0.201,0.9-0.172,1.178
						c-2.731,2.037-4.893,4.464-6.427,7.214c-0.154,0.277-0.44,0.432-0.736,0.432C534.039,109.31,533.899,109.275,533.769,109.203z
						 M578.204,101.732c-2.808-1.871-5.773-3.347-8.814-4.386c-0.44-0.151-0.675-0.629-0.524-1.069
						c0.15-0.441,0.629-0.673,1.069-0.524c3.179,1.087,6.275,2.627,9.204,4.578c0.386,0.258,0.492,0.78,0.233,1.167
						c-0.162,0.243-0.429,0.375-0.701,0.375C578.51,101.873,578.348,101.827,578.204,101.732z M549.003,96.714
						c-0.14-0.444,0.107-0.917,0.55-1.056c3.305-1.041,6.734-1.57,10.19-1.573c0.001,0,0.001,0,0.001,0
						c0.464,0,0.842,0.377,0.842,0.841c0,0.465-0.377,0.843-0.841,0.843c-3.285,0.002-6.544,0.506-9.686,1.496
						c-0.085,0.026-0.169,0.039-0.253,0.039C549.449,97.302,549.117,97.073,549.003,96.714z"/>
				</g>
			</g>
			<g>
				<g>
					<path style="fill:#ABD2EF;" d="M115.48,203.69l-6.607,0.597l2.411-6.181l-6.755-3.991l-4.25,5.094l-2.665-6.076l-7.598,1.954
						l0.597,6.607l-6.181-2.411l-3.991,6.755l5.094,4.25l-6.076,2.665l1.954,7.598l6.607-0.597l-2.411,6.181l6.754,3.991l4.25-5.094
						l2.665,6.076l7.598-1.954l-0.597-6.607l6.181,2.412l3.991-6.755l-5.095-4.25l6.076-2.665L115.48,203.69z M101.807,216.591
						l-4.144,1.066l-3.684-2.177l-1.066-4.144l2.177-3.684l4.144-1.066l3.684,2.177l1.066,4.144L101.807,216.591z"/>
					<g>
						<path style="fill:#79BAE2;" d="M95.332,200.016c-6.686,1.72-10.71,8.535-8.991,15.221c1.72,6.686,8.532,10.711,15.218,8.991
							c6.687-1.72,10.714-8.533,8.994-15.219C108.834,202.322,102.019,198.296,95.332,200.016z M99.255,215.266
							c-1.736,0.447-3.505-0.598-3.951-2.335s0.598-3.505,2.335-3.951s3.508,0.597,3.955,2.334
							C102.039,213.051,100.991,214.82,99.255,215.266z"/>
						<path style="fill:#ABD2EF;" d="M96.341,203.938c-4.517,1.162-7.239,5.77-6.077,10.29c1.163,4.52,5.77,7.239,10.287,6.077
							c4.52-1.163,7.243-5.767,6.081-10.288C105.469,205.498,100.861,202.775,96.341,203.938z M99.255,215.266
							c-1.736,0.447-3.505-0.598-3.951-2.335s0.598-3.505,2.335-3.951s3.508,0.597,3.955,2.334
							C102.039,213.051,100.991,214.82,99.255,215.266z"/>
					</g>
				</g>
				<g>
					<path style="fill:#ABD2EF;" d="M139.396,169.411l-6.607,0.597l2.411-6.181l-6.755-3.991l-4.25,5.094l-2.665-6.076l-7.598,1.954
						l0.597,6.607l-6.181-2.411l-3.991,6.754l5.094,4.25l-6.076,2.665l1.954,7.598l6.607-0.597l-2.412,6.181l6.755,3.991l4.25-5.094
						l2.665,6.076l7.598-1.954l-0.597-6.607l6.181,2.411l3.991-6.754l-5.094-4.25l6.076-2.665L139.396,169.411z M125.723,182.312
						l-4.144,1.066l-3.684-2.177l-1.066-4.144l2.177-3.684l4.144-1.066l3.684,2.177l1.066,4.144L125.723,182.312z"/>
					<g>
						<path style="fill:#79BAE2;" d="M119.249,165.736c-6.686,1.72-10.71,8.535-8.99,15.221c1.72,6.686,8.532,10.711,15.218,8.991
							c6.686-1.72,10.714-8.533,8.994-15.219C132.751,168.043,125.935,164.016,119.249,165.736z M123.171,180.987
							c-1.736,0.447-3.505-0.598-3.951-2.335c-0.447-1.736,0.598-3.505,2.335-3.951c1.736-0.447,3.508,0.597,3.955,2.334
							C125.956,178.771,124.908,180.541,123.171,180.987z"/>
						<path style="fill:#ABD2EF;" d="M120.257,169.659c-4.517,1.162-7.239,5.77-6.077,10.29c1.163,4.52,5.77,7.239,10.287,6.078
							c4.52-1.163,7.244-5.767,6.081-10.288C129.385,171.219,124.778,168.496,120.257,169.659z M123.171,180.987
							c-1.736,0.447-3.505-0.598-3.951-2.335c-0.447-1.736,0.598-3.505,2.335-3.951c1.736-0.447,3.508,0.597,3.955,2.334
							C125.956,178.771,124.908,180.541,123.171,180.987z"/>
					</g>
				</g>
				<g>
					<path style="fill:#ABD2EF;" d="M156.512,205.652l-6.607,0.597l2.411-6.181l-6.754-3.991l-4.25,5.095l-2.665-6.076l-7.598,1.954
						l0.597,6.607l-6.181-2.412l-3.991,6.755l5.094,4.25l-6.076,2.665l1.954,7.598l6.608-0.597l-2.412,6.181l6.754,3.991l4.25-5.094
						l2.665,6.076l7.598-1.954l-0.597-6.608l6.181,2.411l3.991-6.754l-5.094-4.25l6.076-2.665L156.512,205.652z M142.839,218.553
						l-4.144,1.066l-3.684-2.177l-1.066-4.144l2.177-3.684l4.144-1.066l3.684,2.177l1.066,4.144L142.839,218.553z"/>
					<g>
						<path style="fill:#79BAE2;" d="M136.364,201.978c-6.686,1.72-10.71,8.535-8.99,15.221c1.72,6.686,8.532,10.711,15.219,8.991
							c6.686-1.72,10.714-8.533,8.994-15.219C149.867,204.285,143.051,200.258,136.364,201.978z M140.287,217.229
							c-1.736,0.447-3.505-0.598-3.951-2.335c-0.447-1.736,0.598-3.505,2.335-3.951c1.736-0.447,3.508,0.597,3.955,2.334
							C143.072,215.013,142.023,216.782,140.287,217.229z"/>
						<path style="fill:#ABD2EF;" d="M137.373,205.9c-4.517,1.162-7.239,5.77-6.077,10.29c1.163,4.52,5.77,7.239,10.287,6.077
							c4.52-1.163,7.243-5.767,6.081-10.288C146.501,207.46,141.893,204.737,137.373,205.9z M140.287,217.229
							c-1.736,0.447-3.505-0.598-3.951-2.335c-0.447-1.736,0.598-3.505,2.335-3.951c1.736-0.447,3.508,0.597,3.955,2.334
							C143.072,215.013,142.023,216.782,140.287,217.229z"/>
					</g>
				</g>
			</g>
			<g>
				<path style="fill:#79BAE2;" d="M524.171,259.191v6.715h-8.529v-6.412c-6.049-0.365-11.917-1.997-15.546-4.236l4.596-10.403
					c3.993,2.359,9.315,3.871,13.973,3.871c4.052,0,5.505-0.846,5.505-2.298c0-5.322-23.408-1.029-23.408-16.815
					c0-6.835,4.959-12.581,14.879-13.973v-6.593h8.529v6.473c4.474,0.424,8.83,1.573,12.278,3.508l-4.295,10.342
					c-4.173-2.117-8.105-3.146-11.795-3.146c-4.173,0-5.503,1.21-5.503,2.663c0,5.079,23.408,0.846,23.408,16.452
					C538.264,251.873,533.545,257.559,524.171,259.191z"/>
			</g>
		</g>
	</g>
</g>
</svg>
