<?xml version="1.0" encoding="utf-8"?>
<!-- Generator: Adobe Illustrator 27.5.0, SVG Export Plug-In . SVG Version: 6.00 Build 0)  -->
<svg version="1.1" xmlns="http://www.w3.org/2000/svg" xmlns:xlink="http://www.w3.org/1999/xlink" x="0px" y="0px"
	 viewBox="0 0 750 500" style="enable-background:new 0 0 750 500;" xml:space="preserve">
<g id="BACKGROUND">
	<rect style="fill:#FFFFFF;" width="750" height="500"/>
</g>
<g id="OBJECTS">
	<g>
		<linearGradient id="SVGID_1_" gradientUnits="userSpaceOnUse" x1="367.4645" y1="171.3515" x2="376.3366" y2="397.5951">
			<stop  offset="0" style="stop-color:#F5F0FF"/>
			<stop  offset="0.9959" style="stop-color:#D2C1F7"/>
		</linearGradient>
		<polygon style="fill:url(#SVGID_1_);" points="152.099,395.586 77.551,395.586 77.551,356.51 94.504,356.51 94.504,292.505 
			115.44,287.662 129.447,287.662 129.447,230.922 157.471,230.922 157.471,241.301 162.314,241.301 162.314,185.254 
			172.348,185.254 172.348,248.923 181.689,248.923 293.091,248.923 293.091,263.857 328.38,263.857 328.38,365.068 
			338.759,365.068 338.759,263.857 369.708,263.857 369.708,323.601 395.845,323.601 395.845,346.262 414.008,346.262 
			414.008,239.524 437.361,239.524 437.361,290.42 461.752,290.42 482.51,245.626 546.861,245.626 570.214,252.891 570.214,205.148 
			598.014,205.148 598.014,248.923 615.882,248.923 615.882,290.42 639.754,290.42 639.754,325.985 672.448,331.433 
			672.448,395.586 		"/>
		<g>
			<g>
				<path style="fill:#50448C;" d="M140.211,341.926c-0.021,0-0.041-0.001-0.063-0.003c-1.772-0.167-3.562-0.471-5.322-0.907
					c-0.355-0.088-0.572-0.447-0.484-0.803c0.087-0.356,0.445-0.573,0.803-0.484c1.695,0.42,3.421,0.714,5.128,0.873
					c0.365,0.035,0.632,0.358,0.598,0.723C140.839,341.669,140.55,341.926,140.211,341.926z M127.516,338.336
					c-0.096,0-0.193-0.021-0.286-0.065c-1.592-0.762-3.173-1.645-4.701-2.623c-0.308-0.197-0.398-0.607-0.201-0.916
					c0.197-0.309,0.607-0.4,0.916-0.201c1.482,0.948,3.016,1.804,4.558,2.542c0.33,0.158,0.47,0.554,0.312,0.885
					C128.001,338.198,127.764,338.336,127.516,338.336z M116.587,330.907c-0.16,0-0.32-0.057-0.447-0.174
					c-1.319-1.203-2.587-2.493-3.769-3.834c-0.242-0.276-0.216-0.694,0.059-0.936c0.274-0.241,0.695-0.215,0.936,0.058
					c1.151,1.306,2.384,2.562,3.668,3.733c0.271,0.246,0.29,0.666,0.043,0.936C116.946,330.835,116.767,330.907,116.587,330.907z
					 M108.08,320.781c-0.217,0-0.43-0.106-0.557-0.302c-0.949-1.464-1.862-3.019-2.715-4.622c-0.172-0.323-0.049-0.724,0.274-0.896
					c0.323-0.174,0.725-0.049,0.897,0.275c0.835,1.568,1.729,3.09,2.657,4.521c0.2,0.308,0.112,0.719-0.196,0.918
					C108.328,320.746,108.203,320.781,108.08,320.781z M102.079,308.981c-0.264,0-0.514-0.159-0.617-0.421
					c-0.637-1.619-1.239-3.314-1.789-5.038c-0.111-0.35,0.082-0.723,0.431-0.834c0.347-0.109,0.722,0.083,0.833,0.43
					c0.541,1.697,1.133,3.365,1.759,4.958c0.134,0.341-0.034,0.725-0.374,0.859C102.242,308.966,102.16,308.981,102.079,308.981z
					 M98.22,296.304c-0.302,0-0.576-0.208-0.646-0.516c-0.132-0.578-0.258-1.156-0.38-1.736c-0.243-1.16-0.468-2.326-0.671-3.499
					c-0.063-0.361,0.179-0.705,0.54-0.767c0.363-0.07,0.704,0.178,0.767,0.539c0.201,1.158,0.423,2.311,0.662,3.456
					c0.12,0.571,0.245,1.142,0.374,1.712c0.082,0.357-0.142,0.712-0.499,0.794C98.319,296.299,98.269,296.304,98.22,296.304z
					 M96.164,283.212c-0.342,0-0.632-0.263-0.661-0.61c-0.146-1.805-0.229-3.603-0.247-5.345c-0.004-0.365,0.29-0.666,0.656-0.67
					c0.003,0,0.005,0,0.007,0c0.363,0,0.659,0.293,0.663,0.657c0.017,1.71,0.099,3.476,0.243,5.252
					c0.029,0.364-0.243,0.684-0.607,0.714C96.201,283.211,96.183,283.212,96.164,283.212z M96.315,269.972
					c-0.025,0-0.05-0.001-0.076-0.004c-0.364-0.041-0.625-0.37-0.583-0.734c0.205-1.8,0.491-3.582,0.853-5.298
					c0.076-0.359,0.429-0.587,0.785-0.512c0.358,0.075,0.588,0.427,0.512,0.785c-0.352,1.675-0.633,3.415-0.833,5.175
					C96.934,269.722,96.647,269.972,96.315,269.972z M144.494,265.134c-0.386-0.025-0.73-0.014-1.095-0.041s-0.639-0.345-0.612-0.71
					c0.026-0.365,0.339-0.642,0.71-0.612c0.333,0.025,0.678-0.005,0.997,0.038c1.395,0,2.722-0.229,3.944-0.679
					c0.343-0.126,0.724,0.049,0.852,0.393c0.126,0.344-0.049,0.725-0.393,0.852C147.527,264.879,146.045,265.134,144.494,265.134z
					 M136.014,262.501c-0.126,0-0.253-0.036-0.366-0.11c-0.784-0.52-1.518-1.104-2.182-1.737c-0.646-0.615-1.262-1.291-1.831-2.01
					c-0.228-0.287-0.179-0.704,0.107-0.931c0.286-0.23,0.703-0.179,0.931,0.108c0.532,0.67,1.106,1.301,1.708,1.874
					c0.607,0.579,1.28,1.114,2,1.591c0.305,0.203,0.389,0.614,0.187,0.92C136.44,262.396,136.229,262.501,136.014,262.501z
					 M154.476,259.253c-0.102,0-0.205-0.023-0.301-0.073c-0.326-0.166-0.455-0.566-0.289-0.892c0.727-1.424,1.159-3.051,1.284-4.835
					c0.025-0.366,0.352-0.626,0.708-0.616c0.365,0.026,0.641,0.343,0.616,0.708c-0.137,1.964-0.617,3.763-1.426,5.347
					C154.95,259.121,154.718,259.253,154.476,259.253z M99.405,257.11c-0.08,0-0.161-0.014-0.24-0.045
					c-0.341-0.133-0.51-0.517-0.377-0.859c0.649-1.671,1.401-3.318,2.234-4.894c0.171-0.324,0.57-0.447,0.896-0.276
					c0.324,0.171,0.447,0.572,0.276,0.896c-0.809,1.53-1.539,3.13-2.171,4.754C99.921,256.95,99.67,257.11,99.405,257.11z
					 M128.423,251.91c-0.275,0-0.531-0.172-0.626-0.446c-0.561-1.614-1.018-3.373-1.357-5.229c-0.066-0.36,0.172-0.705,0.533-0.771
					c0.36-0.065,0.706,0.173,0.771,0.533c0.328,1.789,0.767,3.483,1.305,5.032c0.12,0.346-0.063,0.724-0.409,0.844
					C128.569,251.898,128.495,251.91,128.423,251.91z M154.593,246.363c-0.267,0-0.518-0.162-0.619-0.426
					c-0.624-1.628-1.449-3.134-2.455-4.477c-0.219-0.293-0.159-0.709,0.133-0.929c0.293-0.219,0.71-0.159,0.929,0.133
					c1.079,1.441,1.964,3.055,2.631,4.798c0.131,0.342-0.04,0.725-0.382,0.856C154.753,246.349,154.672,246.363,154.593,246.363z
					 M105.945,245.628c-0.144,0-0.29-0.047-0.412-0.144c-0.287-0.228-0.335-0.645-0.107-0.932c1.131-1.424,2.351-2.766,3.626-3.988
					c0.265-0.255,0.684-0.245,0.938,0.019c0.254,0.265,0.245,0.685-0.02,0.938c-1.233,1.181-2.412,2.479-3.506,3.856
					C106.334,245.542,106.14,245.628,105.945,245.628z M126.355,238.865c-0.363,0-0.659-0.292-0.663-0.656l-0.003-0.562
					c0-1.59,0.076-3.207,0.225-4.805c0.034-0.365,0.354-0.637,0.723-0.598c0.365,0.034,0.632,0.358,0.598,0.723
					c-0.146,1.556-0.22,3.132-0.22,4.683l0.003,0.545c0.004,0.367-0.29,0.666-0.656,0.67
					C126.359,238.865,126.357,238.865,126.355,238.865z M115.813,236.876c-0.226,0-0.445-0.115-0.57-0.323
					c-0.188-0.314-0.085-0.721,0.229-0.909c1.016-0.607,2.071-1.164,3.135-1.655c0.566-0.261,1.14-0.504,1.723-0.728
					c0.341-0.132,0.725,0.038,0.857,0.38c0.132,0.341-0.038,0.725-0.38,0.857c-0.556,0.215-1.104,0.446-1.644,0.696
					c-1.021,0.471-2.034,1.006-3.011,1.589C116.046,236.845,115.929,236.876,115.813,236.876z M146.128,236.481
					c-0.118,0-0.238-0.032-0.346-0.098c-1.441-0.885-3.007-1.633-4.654-2.224c-0.344-0.124-0.524-0.503-0.4-0.848
					c0.124-0.345,0.501-0.523,0.848-0.4c1.732,0.621,3.381,1.409,4.9,2.342c0.312,0.192,0.41,0.6,0.218,0.913
					C146.568,236.369,146.35,236.481,146.128,236.481z M128.284,232.694c-0.335,0-0.623-0.253-0.658-0.594
					c-0.038-0.364,0.226-0.69,0.59-0.729c1.792-0.19,3.615-0.224,5.412-0.102c0.365,0.025,0.642,0.341,0.617,0.707
					c-0.025,0.365-0.335,0.632-0.707,0.617c-1.72-0.117-3.466-0.084-5.184,0.097C128.331,232.693,128.307,232.694,128.284,232.694z
					 M127.907,225.731c-0.052,0-0.106-0.006-0.159-0.019c-0.355-0.087-0.573-0.447-0.485-0.802c0.423-1.716,0.937-3.446,1.528-5.142
					c0.12-0.345,0.499-0.527,0.844-0.408c0.346,0.12,0.528,0.499,0.408,0.844c-0.577,1.657-1.079,3.347-1.493,5.023
					C128.475,225.529,128.205,225.731,127.907,225.731z M132.529,213.333c-0.1,0-0.203-0.023-0.298-0.071
					c-0.327-0.165-0.458-0.564-0.293-0.891c0.798-1.579,1.679-3.152,2.618-4.676c0.192-0.312,0.6-0.411,0.912-0.217
					c0.312,0.192,0.409,0.601,0.217,0.912c-0.92,1.492-1.783,3.033-2.564,4.578C133.005,213.2,132.771,213.333,132.529,213.333z
					 M139.704,202.208c-0.145,0-0.292-0.048-0.415-0.146c-0.286-0.229-0.331-0.646-0.102-0.932c1.113-1.388,2.297-2.748,3.518-4.04
					c0.251-0.266,0.671-0.279,0.937-0.027c0.266,0.251,0.278,0.671,0.027,0.937c-1.196,1.267-2.357,2.599-3.447,3.96
					C140.091,202.123,139.898,202.208,139.704,202.208z M148.99,192.77c-0.191,0-0.38-0.082-0.512-0.24
					c-0.233-0.282-0.194-0.7,0.088-0.934c1.376-1.14,2.811-2.232,4.264-3.245c0.302-0.209,0.714-0.134,0.923,0.165
					c0.209,0.301,0.136,0.714-0.165,0.924c-1.424,0.993-2.829,2.062-4.177,3.179C149.288,192.72,149.139,192.77,148.99,192.77z
					 M160.013,185.437c-0.239,0-0.47-0.13-0.589-0.356c-0.169-0.325-0.043-0.725,0.281-0.895c1.569-0.819,3.197-1.59,4.839-2.292
					c0.339-0.143,0.727,0.014,0.871,0.349c0.144,0.337-0.012,0.727-0.349,0.871c-1.611,0.688-3.208,1.445-4.747,2.248
					C160.221,185.413,160.116,185.437,160.013,185.437z M227.726,182.841c-0.075,0-0.151-0.012-0.225-0.04
					c-1.054-0.381-2.116-0.745-3.185-1.091c-0.348-0.112-0.539-0.486-0.427-0.835c0.113-0.348,0.484-0.54,0.835-0.427
					c1.083,0.35,2.16,0.719,3.228,1.105c0.344,0.124,0.523,0.505,0.398,0.849C228.252,182.673,227.997,182.841,227.726,182.841z
					 M172.282,180.453c-0.285,0-0.549-0.185-0.635-0.471c-0.106-0.35,0.093-0.721,0.443-0.826c1.689-0.51,3.429-0.969,5.173-1.364
					c0.355-0.078,0.712,0.143,0.793,0.501c0.081,0.357-0.143,0.712-0.501,0.793c-1.713,0.388-3.424,0.839-5.083,1.339
					C172.409,180.444,172.345,180.453,172.282,180.453z M216.857,179.609c-0.05,0-0.101-0.006-0.152-0.018
					c-1.707-0.401-3.443-0.758-5.16-1.062c-0.361-0.063-0.602-0.408-0.538-0.769c0.064-0.361,0.405-0.604,0.768-0.537
					c1.741,0.308,3.502,0.67,5.232,1.076c0.357,0.084,0.578,0.44,0.494,0.797C217.43,179.403,217.158,179.609,216.857,179.609z
					 M185.245,177.74c-0.33,0-0.617-0.246-0.657-0.582c-0.045-0.363,0.214-0.694,0.577-0.739c1.754-0.216,3.546-0.378,5.324-0.482
					c0.363-0.012,0.679,0.258,0.701,0.623c0.021,0.366-0.257,0.679-0.623,0.701c-1.751,0.103-3.514,0.262-5.24,0.475
					C185.299,177.738,185.271,177.74,185.245,177.74z M203.776,177.484c-0.02,0-0.04-0.001-0.061-0.003
					c-1.752-0.159-3.52-0.268-5.255-0.324c-0.366-0.012-0.653-0.318-0.641-0.684c0.012-0.367,0.357-0.655,0.684-0.641
					c1.761,0.056,3.555,0.167,5.333,0.328c0.365,0.033,0.633,0.355,0.6,0.721C204.405,177.225,204.115,177.484,203.776,177.484z"/>
			</g>
			<g>
				<path style="fill:#50448C;" d="M242.913,206.451c-0.315,0-0.595-0.225-0.652-0.547c-0.311-1.746-0.55-3.534-0.712-5.312
					c-0.033-0.365,0.236-0.688,0.6-0.721c0.377-0.03,0.688,0.236,0.721,0.6c0.158,1.741,0.392,3.49,0.697,5.201
					c0.064,0.36-0.176,0.705-0.537,0.769C242.99,206.448,242.951,206.451,242.913,206.451z M241.99,193.244
					c-0.008,0-0.016,0-0.023-0.001c-0.366-0.012-0.653-0.319-0.64-0.685c0.06-1.762,0.194-3.559,0.398-5.34
					c0.041-0.365,0.372-0.637,0.734-0.583c0.364,0.042,0.626,0.37,0.583,0.734c-0.199,1.746-0.331,3.508-0.39,5.235
					C242.639,192.962,242.345,193.244,241.99,193.244z M243.742,180.123c-0.05,0-0.1-0.005-0.15-0.017
					c-0.357-0.083-0.579-0.439-0.497-0.796c0.398-1.718,0.867-3.455,1.394-5.165c0.108-0.35,0.477-0.549,0.829-0.438
					c0.35,0.108,0.546,0.479,0.438,0.829c-0.517,1.679-0.978,3.386-1.369,5.073C244.316,179.916,244.043,180.123,243.742,180.123z
					 M477.3,173.923c-0.319,0-0.6-0.23-0.654-0.556c-0.28-1.709-0.64-3.435-1.072-5.132c-0.091-0.356,0.124-0.716,0.479-0.806
					c0.352-0.092,0.716,0.123,0.806,0.479c0.442,1.734,0.81,3.498,1.096,5.245c0.059,0.361-0.186,0.702-0.548,0.762
					C477.371,173.92,477.335,173.923,477.3,173.923z M247.854,167.537c-0.087,0-0.174-0.017-0.259-0.053
					c-0.337-0.143-0.494-0.532-0.352-0.87c0.686-1.619,1.441-3.252,2.244-4.851c0.163-0.326,0.563-0.459,0.89-0.295
					c0.328,0.164,0.46,0.563,0.295,0.89c-0.79,1.574-1.533,3.18-2.208,4.775C248.357,167.385,248.112,167.537,247.854,167.537z
					 M473.778,161.167c-0.265,0-0.515-0.16-0.618-0.422c-0.631-1.612-1.339-3.231-2.105-4.812c-0.159-0.33-0.021-0.726,0.308-0.886
					c0.333-0.157,0.727-0.02,0.886,0.308c0.78,1.612,1.502,3.262,2.146,4.907c0.133,0.341-0.035,0.725-0.376,0.859
					C473.941,161.153,473.858,161.167,473.778,161.167z M253.976,155.789c-0.12,0-0.241-0.032-0.35-0.1
					c-0.311-0.194-0.405-0.603-0.212-0.914c0.935-1.5,1.932-2.996,2.963-4.448c0.212-0.297,0.626-0.37,0.925-0.157
					c0.298,0.212,0.368,0.626,0.157,0.925c-1.015,1.43-1.997,2.904-2.919,4.382C254.413,155.678,254.197,155.789,253.976,155.789z
					 M467.795,149.352c-0.221,0-0.436-0.11-0.562-0.31c-0.922-1.467-1.914-2.932-2.95-4.354c-0.216-0.296-0.15-0.711,0.146-0.927
					c0.295-0.215,0.71-0.15,0.927,0.146c1.054,1.446,2.063,2.936,3.001,4.429c0.195,0.31,0.102,0.719-0.208,0.914
					C468.037,149.318,467.915,149.352,467.795,149.352z M261.8,145.095c-0.152,0-0.304-0.052-0.429-0.158
					c-0.279-0.237-0.313-0.655-0.076-0.935c1.148-1.351,2.351-2.687,3.576-3.97c0.253-0.265,0.674-0.273,0.938-0.022
					c0.265,0.253,0.275,0.673,0.022,0.938c-1.208,1.265-2.394,2.582-3.526,3.913C262.175,145.015,261.988,145.095,261.8,145.095z
					 M459.818,138.772c-0.182,0-0.364-0.075-0.495-0.222c-1.161-1.302-2.382-2.585-3.626-3.815c-0.26-0.257-0.263-0.677-0.005-0.938
					c0.258-0.26,0.677-0.264,0.938-0.005c1.264,1.249,2.504,2.553,3.683,3.875c0.244,0.273,0.22,0.692-0.053,0.936
					C460.134,138.716,459.976,138.772,459.818,138.772z M271.089,135.64c-0.184,0-0.366-0.076-0.497-0.225
					c-0.242-0.275-0.216-0.694,0.059-0.936c1.333-1.174,2.717-2.323,4.112-3.415c0.288-0.226,0.705-0.174,0.931,0.114
					c0.225,0.289,0.174,0.705-0.114,0.931c-1.375,1.076-2.739,2.208-4.052,3.364C271.401,135.585,271.245,135.64,271.089,135.64z
					 M450.252,129.601c-0.148,0-0.297-0.049-0.42-0.151c-1.348-1.107-2.75-2.188-4.168-3.216c-0.297-0.215-0.363-0.629-0.148-0.926
					c0.213-0.297,0.627-0.363,0.926-0.148c1.44,1.043,2.863,2.141,4.232,3.265c0.283,0.232,0.324,0.65,0.091,0.933
					C450.634,129.518,450.444,129.601,450.252,129.601z M281.645,127.625c-0.216,0-0.427-0.105-0.555-0.299
					c-0.201-0.306-0.116-0.717,0.19-0.918c1.471-0.965,2.996-1.912,4.533-2.816c0.315-0.187,0.723-0.08,0.908,0.236
					c0.185,0.316,0.08,0.722-0.236,0.908c-1.518,0.892-3.025,1.828-4.477,2.781C281.896,127.59,281.77,127.625,281.645,127.625z
					 M439.405,121.99c-0.115,0-0.232-0.03-0.338-0.093c-0.922-0.548-1.853-1.078-2.793-1.59c-0.601-0.327-1.204-0.648-1.811-0.962
					c-0.325-0.168-0.452-0.568-0.284-0.894c0.168-0.324,0.566-0.453,0.894-0.284c0.615,0.318,1.226,0.642,1.836,0.975
					c0.954,0.519,1.899,1.058,2.836,1.614c0.315,0.187,0.418,0.593,0.231,0.909C439.852,121.874,439.632,121.99,439.405,121.99z
					 M293.147,121.042c-0.244,0-0.479-0.135-0.594-0.368c-0.163-0.328-0.029-0.726,0.299-0.888c1.569-0.779,3.194-1.541,4.829-2.265
					c0.339-0.146,0.727,0.004,0.875,0.339c0.148,0.335-0.004,0.727-0.339,0.875c-1.618,0.715-3.224,1.468-4.776,2.239
					C293.347,121.02,293.246,121.042,293.147,121.042z M427.569,116.041c-0.087,0-0.174-0.017-0.259-0.052
					c-1.592-0.675-3.241-1.327-4.902-1.938c-0.344-0.126-0.52-0.508-0.394-0.851c0.126-0.344,0.509-0.519,0.851-0.394
					c1.682,0.618,3.351,1.278,4.963,1.961c0.337,0.143,0.495,0.532,0.352,0.87C428.072,115.89,427.827,116.041,427.569,116.041z
					 M305.323,115.807c-0.27,0-0.523-0.166-0.622-0.434c-0.126-0.343,0.049-0.725,0.393-0.852c1.646-0.607,3.34-1.195,5.035-1.747
					c0.347-0.115,0.722,0.078,0.836,0.425c0.113,0.348-0.077,0.723-0.425,0.836c-1.68,0.547-3.358,1.128-4.988,1.73
					C305.477,115.795,305.399,115.807,305.323,115.807z M317.963,111.821c-0.293,0-0.561-0.196-0.64-0.493
					c-0.094-0.354,0.116-0.717,0.471-0.811c1.681-0.447,3.421-0.877,5.171-1.28c0.361-0.082,0.714,0.141,0.795,0.497
					c0.082,0.357-0.141,0.713-0.497,0.795c-1.736,0.4-3.461,0.826-5.128,1.27C318.077,111.814,318.02,111.821,317.963,111.821z
					 M415.079,111.607c-0.061,0-0.124-0.008-0.186-0.027c-1.662-0.485-3.376-0.947-5.096-1.372
					c-0.356-0.088-0.573-0.448-0.484-0.803c0.087-0.356,0.445-0.572,0.803-0.484c1.738,0.429,3.47,0.896,5.149,1.386
					c0.352,0.103,0.554,0.471,0.451,0.822C415.631,111.419,415.367,111.607,415.079,111.607z M330.907,108.95
					c-0.315,0-0.594-0.225-0.652-0.545c-0.065-0.361,0.174-0.705,0.535-0.771c1.745-0.315,3.497-0.604,5.252-0.869
					c0.371-0.052,0.7,0.196,0.755,0.557c0.054,0.363-0.195,0.7-0.557,0.755c-1.744,0.262-3.483,0.549-5.215,0.863
					C330.986,108.947,330.946,108.95,330.907,108.95z M402.18,108.549c-0.04,0-0.081-0.004-0.122-0.011
					c-1.696-0.317-3.448-0.611-5.209-0.875c-0.362-0.054-0.611-0.392-0.558-0.754c0.054-0.362,0.387-0.603,0.755-0.558
					c1.776,0.266,3.544,0.563,5.256,0.883c0.36,0.067,0.597,0.414,0.53,0.774C402.772,108.326,402.494,108.549,402.18,108.549z
					 M344.032,107.061c-0.334,0-0.622-0.251-0.659-0.591c-0.039-0.364,0.223-0.691,0.587-0.731c1.763-0.193,3.53-0.363,5.297-0.511
					c0.384-0.034,0.686,0.24,0.716,0.605c0.031,0.365-0.24,0.686-0.605,0.716c-1.756,0.148-3.511,0.317-5.264,0.508
					C344.08,107.06,344.056,107.061,344.032,107.061z M389.051,106.685c-0.022,0-0.045-0.001-0.067-0.003
					c-1.752-0.176-3.509-0.325-5.267-0.45c-0.365-0.026-0.64-0.342-0.614-0.708c0.026-0.366,0.348-0.643,0.708-0.615
					c1.771,0.125,3.54,0.275,5.305,0.453c0.365,0.037,0.63,0.362,0.594,0.726C389.676,106.43,389.388,106.685,389.051,106.685z
					 M357.255,106.027c-0.351,0-0.644-0.276-0.662-0.631c-0.018-0.366,0.264-0.677,0.63-0.695c1.774-0.086,3.547-0.153,5.316-0.201
					c0.354-0.006,0.672,0.279,0.681,0.645s-0.279,0.671-0.645,0.681c-1.76,0.047-3.523,0.114-5.287,0.2
					C357.277,106.027,357.266,106.027,357.255,106.027z M375.818,105.836c-0.007,0-0.014,0-0.021,0
					c-1.763-0.054-3.527-0.085-5.288-0.096c-0.367-0.002-0.661-0.3-0.659-0.667c0.002-0.365,0.299-0.659,0.663-0.659
					c0.001,0,0.003,0,0.004,0c1.772,0.01,3.547,0.041,5.32,0.097c0.367,0.011,0.654,0.317,0.643,0.683
					C376.469,105.552,376.175,105.836,375.818,105.836z"/>
			</g>
			<g>
				<path style="fill:#50448C;" d="M599.944,280.787c-0.047,0-0.094-0.005-0.141-0.016c-0.359-0.078-0.585-0.431-0.506-0.789
					c0.126-0.576,0.245-1.153,0.357-1.732c0.07-0.36,0.425-0.59,0.778-0.525c0.36,0.071,0.594,0.42,0.525,0.778
					c-0.115,0.589-0.237,1.176-0.365,1.76C600.524,280.576,600.25,280.787,599.944,280.787z M601.406,271.164
					c-0.019,0-0.038-0.001-0.057-0.003c-0.365-0.031-0.636-0.351-0.605-0.716c0.148-1.75,0.234-3.516,0.259-5.25
					c0.005-0.363,0.301-0.654,0.663-0.654c0.003,0,0.007,0,0.009,0c0.367,0.005,0.659,0.306,0.654,0.672
					c-0.025,1.766-0.114,3.564-0.264,5.344C602.037,270.902,601.747,271.164,601.406,271.164z M601.34,257.92
					c-0.337,0-0.626-0.257-0.659-0.6c-0.167-1.741-0.403-3.493-0.699-5.206c-0.063-0.361,0.179-0.704,0.54-0.767
					c0.355-0.063,0.703,0.179,0.766,0.54c0.303,1.747,0.544,3.531,0.715,5.306c0.035,0.365-0.232,0.688-0.597,0.723
					C601.383,257.918,601.362,257.92,601.34,257.92z M517.845,253.891c-0.012,0-0.023,0-0.034-0.001
					c-2.001-0.102-3.814-0.438-5.388-0.999c-0.345-0.123-0.524-0.503-0.402-0.848c0.122-0.346,0.5-0.525,0.848-0.402
					c1.453,0.518,3.139,0.829,5.01,0.924c0.366,0.019,0.647,0.33,0.629,0.696C518.488,253.616,518.195,253.891,517.845,253.891z
					 M525.762,253.284c-0.316,0-0.596-0.227-0.653-0.548c-0.063-0.361,0.178-0.704,0.539-0.768c1.7-0.299,3.412-0.7,5.09-1.193
					c0.359-0.104,0.721,0.099,0.823,0.449c0.104,0.352-0.098,0.72-0.449,0.823c-1.725,0.507-3.487,0.92-5.235,1.228
					C525.838,253.281,525.8,253.284,525.762,253.284z M538.346,249.224c-0.247,0-0.484-0.139-0.598-0.377
					c-0.158-0.331-0.018-0.727,0.312-0.885c1.562-0.747,3.11-1.588,4.599-2.5c0.31-0.189,0.719-0.094,0.912,0.219
					c0.19,0.312,0.093,0.721-0.22,0.912c-1.527,0.936-3.115,1.799-4.718,2.566C538.54,249.204,538.442,249.224,538.346,249.224z
					 M506.719,247.924c-0.241,0-0.474-0.132-0.591-0.362c-0.785-1.54-1.242-3.347-1.358-5.37c-0.021-0.366,0.258-0.679,0.624-0.7
					c0.363-0.018,0.679,0.258,0.7,0.624c0.105,1.839,0.515,3.469,1.215,4.844c0.166,0.326,0.037,0.726-0.289,0.892
					C506.923,247.901,506.82,247.924,506.719,247.924z M598.82,244.921c-0.286,0-0.549-0.185-0.635-0.473
					c-0.506-1.688-1.081-3.357-1.711-4.962c-0.133-0.341,0.035-0.726,0.376-0.859c0.339-0.134,0.727,0.034,0.86,0.375
					c0.642,1.638,1.229,3.343,1.744,5.065c0.106,0.351-0.093,0.721-0.444,0.826C598.947,244.911,598.882,244.921,598.82,244.921z
					 M549.447,242.032c-0.188,0-0.374-0.08-0.506-0.234c-0.236-0.279-0.202-0.697,0.078-0.934c1.333-1.13,2.616-2.336,3.814-3.584
					c0.251-0.264,0.672-0.273,0.936-0.019c0.266,0.254,0.273,0.673,0.02,0.938c-1.228,1.281-2.545,2.518-3.913,3.678
					C549.751,241.98,549.598,242.032,549.447,242.032z M506.435,234.956c-0.059,0-0.118-0.008-0.178-0.024
					c-0.353-0.098-0.56-0.464-0.462-0.816c0.477-1.719,1.088-3.428,1.816-5.081c0.149-0.334,0.541-0.486,0.874-0.339
					c0.335,0.148,0.487,0.539,0.339,0.874c-0.703,1.594-1.292,3.243-1.752,4.901C506.992,234.764,506.725,234.956,506.435,234.956z
					 M593.716,232.709c-0.233,0-0.46-0.124-0.58-0.342c-0.747-1.351-1.557-2.686-2.409-3.968l-0.335-0.499
					c-0.206-0.303-0.128-0.716,0.175-0.922c0.301-0.203,0.715-0.128,0.921,0.176l0.346,0.512c0.87,1.311,1.699,2.677,2.463,4.059
					c0.177,0.321,0.061,0.724-0.259,0.902C593.935,232.683,593.825,232.709,593.716,232.709z M558.348,232.253
					c-0.132,0-0.264-0.039-0.379-0.119c-0.3-0.21-0.374-0.623-0.164-0.924c0.992-1.421,1.927-2.915,2.779-4.438
					c0.179-0.32,0.584-0.434,0.903-0.254c0.32,0.179,0.434,0.583,0.255,0.902c-0.874,1.561-1.833,3.091-2.849,4.549
					C558.763,232.154,558.557,232.253,558.348,232.253z M512.152,223.067c-0.133,0-0.267-0.039-0.384-0.123
					c-0.298-0.212-0.368-0.626-0.155-0.925c1.028-1.445,2.169-2.851,3.393-4.179c0.249-0.269,0.668-0.286,0.937-0.038
					c0.269,0.248,0.286,0.668,0.038,0.937c-1.186,1.287-2.292,2.649-3.288,4.05C512.564,222.97,512.359,223.067,512.152,223.067z
					 M585.995,221.965c-0.179,0-0.357-0.072-0.488-0.214c-1.177-1.279-2.432-2.518-3.729-3.682c-0.272-0.245-0.295-0.664-0.05-0.936
					c0.246-0.273,0.664-0.295,0.936-0.051c1.328,1.192,2.612,2.461,3.819,3.77c0.247,0.269,0.231,0.689-0.039,0.937
					C586.318,221.907,586.156,221.965,585.995,221.965z M564.539,220.561c-0.079,0-0.159-0.014-0.238-0.044
					c-0.342-0.131-0.512-0.516-0.381-0.857c0.622-1.616,1.179-3.289,1.655-4.974c0.1-0.352,0.468-0.56,0.818-0.457
					c0.352,0.1,0.558,0.466,0.458,0.818c-0.488,1.724-1.058,3.436-1.694,5.089C565.057,220.4,564.806,220.561,564.539,220.561z
					 M521.384,213.62c-0.201,0-0.4-0.091-0.53-0.264c-0.221-0.292-0.163-0.708,0.13-0.929c1.423-1.075,2.928-2.08,4.472-2.987
					c0.315-0.186,0.723-0.08,0.908,0.236c0.185,0.316,0.08,0.723-0.236,0.908c-1.5,0.881-2.962,1.857-4.345,2.902
					C521.664,213.576,521.523,213.62,521.384,213.62z M575.943,213.361c-0.127,0-0.255-0.036-0.368-0.111
					c-1.458-0.974-2.969-1.882-4.49-2.7c-0.322-0.174-0.444-0.576-0.271-0.898c0.173-0.323,0.578-0.443,0.897-0.27
					c1.559,0.838,3.107,1.768,4.599,2.765c0.306,0.204,0.387,0.616,0.184,0.92C576.366,213.257,576.156,213.361,575.943,213.361z
					 M567.853,207.747c-0.031,0-0.062-0.002-0.093-0.007c-0.363-0.051-0.615-0.387-0.565-0.749c0.242-1.721,0.409-3.477,0.496-5.219
					c0.017-0.365,0.289-0.646,0.695-0.629c0.365,0.018,0.646,0.33,0.628,0.695c-0.088,1.782-0.259,3.578-0.506,5.339
					C568.462,207.508,568.178,207.747,567.853,207.747z M564.135,207.395c-0.074,0-0.149-0.012-0.223-0.039
					c-1.651-0.589-3.338-1.094-5.012-1.5c-0.356-0.086-0.574-0.445-0.488-0.8c0.087-0.356,0.442-0.577,0.802-0.488
					c1.72,0.417,3.45,0.936,5.144,1.541c0.344,0.123,0.524,0.503,0.401,0.847C564.662,207.225,564.407,207.395,564.135,207.395z
					 M532.97,207.261c-0.269,0-0.522-0.165-0.622-0.432c-0.128-0.343,0.047-0.725,0.391-0.853c1.688-0.628,3.419-1.157,5.146-1.574
					c0.357-0.089,0.714,0.134,0.8,0.49c0.085,0.356-0.133,0.714-0.49,0.8c-1.676,0.403-3.356,0.917-4.995,1.527
					C533.125,207.247,533.047,207.261,532.97,207.261z M551.207,204.646c-0.017,0-0.032-0.001-0.048-0.002
					c-1.742-0.123-3.488-0.145-5.223-0.062c-0.374,0.02-0.677-0.266-0.693-0.631c-0.018-0.366,0.264-0.676,0.631-0.694
					c1.79-0.083,3.586-0.061,5.379,0.065c0.365,0.025,0.641,0.343,0.615,0.708C551.843,204.379,551.551,204.646,551.207,204.646z
					 M568.196,194.518c-0.338,0-0.627-0.258-0.659-0.602c-0.163-1.763-0.414-3.507-0.747-5.182
					c-0.071-0.359,0.162-0.708,0.521-0.779c0.365-0.072,0.708,0.162,0.78,0.521c0.342,1.719,0.6,3.509,0.768,5.317
					c0.034,0.365-0.234,0.688-0.6,0.722C568.238,194.518,568.217,194.518,568.196,194.518z M484.618,187.279
					c-0.163,0-0.326-0.06-0.455-0.18c-0.267-0.251-0.279-0.671-0.029-0.938c1.213-1.289,2.446-2.568,3.7-3.828
					c0.259-0.258,0.679-0.26,0.938-0.002c0.259,0.259,0.26,0.679,0.002,0.938c-1.247,1.251-2.47,2.521-3.674,3.801
					C484.971,187.209,484.795,187.279,484.618,187.279z M565.224,181.637c-0.264,0-0.514-0.159-0.618-0.421
					c-0.648-1.649-1.396-3.233-2.228-4.706c-0.18-0.319-0.067-0.723,0.251-0.903c0.319-0.179,0.723-0.069,0.904,0.252
					c0.861,1.527,1.637,3.167,2.308,4.873c0.133,0.341-0.035,0.725-0.376,0.859C565.387,181.622,565.304,181.637,565.224,181.637z
					 M494.072,177.982c-0.182,0-0.363-0.075-0.495-0.221c-0.243-0.273-0.22-0.692,0.053-0.936c1.367-1.221,2.735-2.385,4.067-3.458
					c0.286-0.23,0.704-0.185,0.933,0.1c0.23,0.286,0.185,0.703-0.1,0.932c-1.315,1.059-2.665,2.208-4.016,3.415
					C494.387,177.926,494.229,177.982,494.072,177.982z M558.264,170.445c-0.176,0-0.351-0.07-0.482-0.208
					c-0.466-0.493-0.951-0.971-1.454-1.434c-0.764-0.703-1.58-1.373-2.424-1.994c-0.295-0.217-0.359-0.631-0.142-0.927
					c0.219-0.295,0.636-0.357,0.927-0.142c0.885,0.649,1.738,1.351,2.537,2.086c0.526,0.483,1.034,0.984,1.521,1.5
					c0.251,0.266,0.24,0.686-0.026,0.937C558.592,170.385,558.427,170.445,558.264,170.445z M504.527,169.839
					c-0.216,0-0.427-0.105-0.554-0.298c-0.201-0.306-0.117-0.717,0.189-0.919c1.518-1.003,3.059-1.938,4.576-2.779
					c0.32-0.179,0.724-0.063,0.901,0.258c0.178,0.321,0.062,0.724-0.258,0.901c-1.489,0.826-2.999,1.743-4.49,2.728
					C504.779,169.804,504.653,169.839,504.527,169.839z M516.248,163.695c-0.266,0-0.516-0.16-0.618-0.422
					c-0.133-0.341,0.036-0.726,0.377-0.859c0.517-0.201,1.037-0.396,1.561-0.582c1.157-0.411,2.35-0.781,3.545-1.1
					c0.349-0.097,0.718,0.116,0.811,0.469c0.094,0.354-0.116,0.717-0.469,0.811c-1.161,0.31-2.32,0.669-3.443,1.068
					c-0.512,0.182-1.019,0.371-1.523,0.567C516.41,163.68,516.329,163.695,516.248,163.695z M547.347,163.105
					c-0.082,0-0.164-0.015-0.246-0.047c-1.58-0.63-3.25-1.153-4.963-1.555c-0.356-0.084-0.578-0.44-0.493-0.797
					c0.083-0.355,0.439-0.576,0.797-0.494c1.777,0.416,3.51,0.96,5.152,1.614c0.339,0.135,0.505,0.521,0.37,0.861
					C547.86,162.947,547.61,163.105,547.347,163.105z M529.11,160.654c-0.34,0-0.629-0.26-0.66-0.605
					c-0.032-0.365,0.238-0.686,0.602-0.719c1.798-0.159,3.603-0.214,5.38-0.155c0.367,0.012,0.653,0.318,0.641,0.684
					c-0.012,0.367-0.349,0.674-0.684,0.641c-1.726-0.054-3.477-0.003-5.221,0.151C529.149,160.654,529.13,160.654,529.11,160.654z"
					/>
			</g>
		</g>
		<g>
			<g>
				
					<linearGradient id="SVGID_00000173130285592509709320000003297652329063496068_" gradientUnits="userSpaceOnUse" x1="252.2473" y1="236.2624" x2="189.5782" y2="411.0761" gradientTransform="matrix(1 0 0.2147 1 -75.2108 0)">
					<stop  offset="0" style="stop-color:#263681"/>
					<stop  offset="0.9959" style="stop-color:#1A1248"/>
				</linearGradient>
				<path style="fill:url(#SVGID_00000173130285592509709320000003297652329063496068_);" d="M312.077,386.105H145.165
					c-1.975,0-3.92-1.601-4.344-3.577l-25.299-117.855c-0.424-1.975,0.834-3.576,2.809-3.576h166.911
					c1.975,0,3.92,1.601,4.344,3.576l25.299,117.855C315.309,384.503,314.052,386.105,312.077,386.105z"/>
				
					<linearGradient id="SVGID_00000162336374292691364600000001809440054598016390_" gradientUnits="userSpaceOnUse" x1="251.1723" y1="239.3544" x2="191.172" y2="406.7234" gradientTransform="matrix(1 0 0.2147 1 -75.2108 0)">
					<stop  offset="0.0041" style="stop-color:#FFFFFF"/>
					<stop  offset="1" style="stop-color:#F5F0FF"/>
				</linearGradient>
				<path style="fill:url(#SVGID_00000162336374292691364600000001809440054598016390_);" d="M310.327,382.089H145.708
					c-0.684,0-1.357-0.554-1.504-1.238l-24.849-115.755c-0.147-0.684,0.289-1.238,0.972-1.238h164.619
					c0.684,0,1.357,0.554,1.504,1.238l24.849,115.755C311.446,381.534,311.011,382.089,310.327,382.089z"/>
				
					<linearGradient id="SVGID_00000095331678216557164330000004019895866402036142_" gradientUnits="userSpaceOnUse" x1="255.0519" y1="387.3927" x2="255.0519" y2="395.3927">
					<stop  offset="0" style="stop-color:#263681"/>
					<stop  offset="0.9959" style="stop-color:#1A1248"/>
				</linearGradient>
				<path style="fill:url(#SVGID_00000095331678216557164330000004019895866402036142_);" d="M358.005,395.586H152.099
					c-4.658,0-8.435-3.776-8.435-8.435l0,0c0-0.578,0.469-1.047,1.047-1.047h220.682c0.578,0,1.047,0.469,1.047,1.047l0,0
					C366.44,391.81,362.663,395.586,358.005,395.586z"/>
			</g>
			<g>
				
					<linearGradient id="SVGID_00000173161564066160416980000012222664377877547164_" gradientUnits="userSpaceOnUse" x1="3495.6414" y1="236.2624" x2="3432.9722" y2="411.0761" gradientTransform="matrix(-1 0 -0.2147 1 4060.2827 0)">
					<stop  offset="0" style="stop-color:#263681"/>
					<stop  offset="0.9959" style="stop-color:#1A1248"/>
				</linearGradient>
				<path style="fill:url(#SVGID_00000173161564066160416980000012222664377877547164_);" d="M429.601,386.105h166.911
					c1.975,0,3.92-1.601,4.344-3.577l25.299-117.855c0.424-1.975-0.833-3.576-2.809-3.576H456.436c-1.975,0-3.92,1.601-4.344,3.576
					l-25.299,117.855C426.368,384.503,427.626,386.105,429.601,386.105z"/>
				
					<linearGradient id="SVGID_00000140014514319389669910000010561408656568151965_" gradientUnits="userSpaceOnUse" x1="3494.5664" y1="239.3544" x2="3434.5659" y2="406.7234" gradientTransform="matrix(-1 0 -0.2147 1 4060.2827 0)">
					<stop  offset="0.0041" style="stop-color:#FFFFFF"/>
					<stop  offset="1" style="stop-color:#F5F0FF"/>
				</linearGradient>
				<path style="fill:url(#SVGID_00000140014514319389669910000010561408656568151965_);" d="M431.351,382.089H595.97
					c0.684,0,1.357-0.554,1.504-1.238l24.849-115.755c0.147-0.684-0.289-1.238-0.972-1.238H456.731
					c-0.684,0-1.357,0.554-1.504,1.238l-24.849,115.755C430.232,381.534,430.667,382.089,431.351,382.089z"/>
				
					<linearGradient id="SVGID_00000082362855756862710880000006185178494610977941_" gradientUnits="userSpaceOnUse" x1="3482.9709" y1="387.3927" x2="3482.9709" y2="395.3927" gradientTransform="matrix(-1 0 0 1 3985.072 0)">
					<stop  offset="0" style="stop-color:#263681"/>
					<stop  offset="0.9959" style="stop-color:#1A1248"/>
				</linearGradient>
				<path style="fill:url(#SVGID_00000082362855756862710880000006185178494610977941_);" d="M404.582,395.586H599.62
					c4.539,0,8.218-3.679,8.218-8.218v-0.244c0-0.564-0.457-1.02-1.02-1.02H397.384c-0.564,0-1.02,0.457-1.02,1.02v0.244
					C396.364,391.907,400.043,395.586,404.582,395.586z"/>
			</g>
		</g>
		<text transform="matrix(1 0 0 1 290.1153 214.0355)" style="fill:#754CC4; font-family:'Montserrat-Bold'; font-size:72.0048px;">B2B</text>
		<g>
			<defs>
				<polygon id="SVGID_00000083091067006324249500000010336053643516592309_" points="144.204,382.089 598.014,382.089 
					648.043,150.249 89.232,137.6 				"/>
			</defs>
			<clipPath id="SVGID_00000000187699334065702730000008362764374245659553_">
				<use xlink:href="#SVGID_00000083091067006324249500000010336053643516592309_"  style="overflow:visible;"/>
			</clipPath>
			<g style="clip-path:url(#SVGID_00000000187699334065702730000008362764374245659553_);">
				
					<linearGradient id="SVGID_00000029754343304670381970000013025406520300660885_" gradientUnits="userSpaceOnUse" x1="565.3613" y1="292.8145" x2="567.969" y2="391.9102">
					<stop  offset="0" style="stop-color:#9571CB"/>
					<stop  offset="0.9959" style="stop-color:#6237C0"/>
				</linearGradient>
				<path style="fill:url(#SVGID_00000029754343304670381970000013025406520300660885_);" d="M537.702,342.297
					c0,17.359,14.076,31.435,31.435,31.435c6.143,0,11.893-1.775,16.731-4.839l9.662,15.364c-7.651,4.823-16.7,7.604-26.393,7.604
					c-27.382,0-49.565-22.198-49.565-49.565c0-27.382,22.182-49.565,49.565-49.565c19.166,0,35.787,10.871,44.035,26.785
					l-16.134,8.342c-5.216-10.101-15.757-16.998-27.901-16.998C551.778,310.862,537.702,324.938,537.702,342.297z"/>
				
					<linearGradient id="SVGID_00000078038991008520962180000004047396341428057729_" gradientUnits="userSpaceOnUse" x1="601.3528" y1="319.829" x2="603.0431" y2="384.0607">
					<stop  offset="0" style="stop-color:#FAAD1E"/>
					<stop  offset="0.9959" style="stop-color:#F2830B"/>
				</linearGradient>
				<path style="fill:url(#SVGID_00000078038991008520962180000004047396341428057729_);" d="M618.702,342.297
					c0,17.674-9.253,33.179-23.172,41.961l-9.662-15.364c8.829-5.561,14.689-15.396,14.689-26.597c0-5.2-1.273-10.117-3.519-14.437
					l16.134-8.342C616.707,326.336,618.702,334.081,618.702,342.297z"/>
				<g>
					
						<linearGradient id="SVGID_00000037679312855857550030000005671192712010779534_" gradientUnits="userSpaceOnUse" x1="582.0978" y1="297.849" x2="564.7899" y2="357.1718">
						<stop  offset="0" style="stop-color:#FFE14D"/>
						<stop  offset="1" style="stop-color:#F7A523"/>
					</linearGradient>
					<circle style="fill:url(#SVGID_00000037679312855857550030000005671192712010779534_);" cx="569.13" cy="342.297" r="24.579"/>
					
						<linearGradient id="SVGID_00000051354002959569056150000007675284639602705590_" gradientUnits="userSpaceOnUse" x1="580.0338" y1="304.9236" x2="565.4807" y2="354.8041">
						<stop  offset="0" style="stop-color:#FAAD1E"/>
						<stop  offset="0.9959" style="stop-color:#F2830B"/>
					</linearGradient>
					<circle style="fill:url(#SVGID_00000051354002959569056150000007675284639602705590_);" cx="569.13" cy="342.297" r="20.666"/>
					
						<text transform="matrix(1 0 0 1 556.7896 352.7338)" style="fill:#FFC431; font-family:'Montserrat-Bold'; font-size:31.1909px;">%</text>
				</g>
			</g>
			<g style="clip-path:url(#SVGID_00000000187699334065702730000008362764374245659553_);">
				<g>
					<g>
						
							<linearGradient id="SVGID_00000098928164129102461740000018030739172536535992_" gradientUnits="userSpaceOnUse" x1="209.0303" y1="330.795" x2="210.5039" y2="386.7911">
							<stop  offset="0" style="stop-color:#263681"/>
							<stop  offset="0.9959" style="stop-color:#1A1248"/>
						</linearGradient>
						<polygon style="fill:url(#SVGID_00000098928164129102461740000018030739172536535992_);" points="239.12,386.558 
							181.876,386.558 188.152,328.56 232.843,328.56 						"/>
						<g>
							
								<linearGradient id="SVGID_00000099650939218967234940000018304764590438507671_" gradientUnits="userSpaceOnUse" x1="210.0069" y1="309.4296" x2="210.7469" y2="337.5508">
								<stop  offset="0" style="stop-color:#26357F"/>
								<stop  offset="0.9959" style="stop-color:#6237C0"/>
							</linearGradient>
							<path style="fill:url(#SVGID_00000099650939218967234940000018304764590438507671_);" d="M220.038,337.306
								c-0.532,0-0.962-0.431-0.962-0.962v-16.42c0-4.73-3.848-8.578-8.578-8.578c-4.73,0-8.578,3.848-8.578,8.578v16.42
								c0,0.531-0.43,0.962-0.962,0.962c-0.532,0-0.962-0.431-0.962-0.962v-16.42c0-5.792,4.712-10.503,10.503-10.503
								c5.792,0,10.503,4.712,10.503,10.503v16.42C221.001,336.875,220.57,337.306,220.038,337.306z"/>
						</g>
					</g>
					<g>
						
							<linearGradient id="SVGID_00000044866301947100056770000008176416666123942311_" gradientUnits="userSpaceOnUse" x1="164.3994" y1="341.4783" x2="165.873" y2="397.4743">
							<stop  offset="0" style="stop-color:#9571CB"/>
							<stop  offset="0.9959" style="stop-color:#6237C0"/>
						</linearGradient>
						<polygon style="fill:url(#SVGID_00000044866301947100056770000008176416666123942311_);" points="194.489,397.241 
							137.245,397.241 143.521,339.243 188.212,339.243 						"/>
						<g>
							
								<linearGradient id="SVGID_00000067205473324227760870000009041707050097831860_" gradientUnits="userSpaceOnUse" x1="165.376" y1="320.1128" x2="166.116" y2="348.2339">
								<stop  offset="0" style="stop-color:#9571CB"/>
								<stop  offset="0.9959" style="stop-color:#6237C0"/>
							</linearGradient>
							<path style="fill:url(#SVGID_00000067205473324227760870000009041707050097831860_);" d="M175.407,347.989
								c-0.532,0-0.962-0.431-0.962-0.962v-16.42c0-4.73-3.848-8.578-8.578-8.578c-4.73,0-8.578,3.848-8.578,8.578v16.42
								c0,0.531-0.43,0.962-0.962,0.962c-0.532,0-0.963-0.431-0.963-0.962v-16.42c0-5.792,4.712-10.503,10.503-10.503
								c5.792,0,10.503,4.712,10.503,10.503v16.42C176.37,347.558,175.939,347.989,175.407,347.989z"/>
						</g>
					</g>
				</g>
				<g>
					
						<linearGradient id="SVGID_00000097477594341292223330000005057182514206118567_" gradientUnits="userSpaceOnUse" x1="400.4071" y1="252.4309" x2="416.1745" y2="271.1547">
						<stop  offset="0" style="stop-color:#FFC085"/>
						<stop  offset="1" style="stop-color:#FA976E"/>
					</linearGradient>
					<path style="fill:url(#SVGID_00000097477594341292223330000005057182514206118567_);" d="M440.772,227.131
						c-5.297,7.352-22.338,34.9-27.954,38.115c-5.617,3.215-45.826,30.136-45.826,30.136s2.794,6.303,4.641,7.633
						c7.102-1.154,43.971-18.56,51.312-22.965c7.341-4.405,36.035-42.975,36.035-42.975L440.772,227.131z"/>
					<g>
						<g>
							
								<linearGradient id="SVGID_00000126301871806835111080000006730841139341930886_" gradientUnits="userSpaceOnUse" x1="467.3197" y1="395.1164" x2="474.7784" y2="333.7896">
								<stop  offset="0" style="stop-color:#9571CB"/>
								<stop  offset="0.9959" style="stop-color:#6237C0"/>
							</linearGradient>
							<path style="fill:url(#SVGID_00000126301871806835111080000006730841139341930886_);" d="M450.48,328.007
								c6.684,0,58.939-2.515,58.939-2.515l-9.566,85.097l-27.037,1.992l-2.846-27.037l-11.099,27.037l-27.606-3.984
								C431.265,408.596,442.942,345.034,450.48,328.007z"/>
							
								<linearGradient id="SVGID_00000073000005508287703240000009729903459351216831_" gradientUnits="userSpaceOnUse" x1="-726.4878" y1="313.7856" x2="-680.7513" y2="313.7856" gradientTransform="matrix(1 0 0 1 1219.4365 0)">
								<stop  offset="0" style="stop-color:#FFC085"/>
								<stop  offset="1" style="stop-color:#FA976E"/>
							</linearGradient>
							<path style="fill:url(#SVGID_00000073000005508287703240000009729903459351216831_);" d="M512.45,269.909
								c0,0,10.117,22.581,10.117,25.291c0,2.71-5.394,41.918-6.749,43.273c-2.71,1.72-13.496,6.046-14.174,7.897
								c-0.677,1.852,0.723,3.432,0.723,3.432c-2.935,1.897-10.613,7.632-9.258,8.987c0.938,0.938,1.573,1.27,1.875,1.385
								c0.134,0.051,0.203,0.06,0.203,0.06s-1.942,3.658,1.581,3.161c0.361,2.077,1.987,1.852,3.297,1.265
								c1.31-0.587,2.8-1.761,2.8-1.761c0,1.942,1.265,2.981,3.884,0.813c2.62-2.168,7.271-5.645,9.484-7.452
								c2.213-1.806,6.278-10.749,7.678-14.046c1.4-3.297,10.445-30.465,12.071-36.346c1.626-5.882,3.748-8.301,2.123-13.911
								c-1.626-5.61-9.936-29.456-9.936-29.456L512.45,269.909z"/>
							<g>
								<g>
									<path style="fill:#E07E58;" d="M503.129,350.433c-0.195,0-0.391-0.029-0.585-0.096c-0.526-0.183-0.964-0.642-1.199-1.264
										c-0.196-0.519-0.234-1.057-0.271-1.577c-0.013-0.183,0.125-0.341,0.308-0.354c0.17-0.032,0.341,0.124,0.354,0.307
										c0.034,0.473,0.068,0.961,0.23,1.39c0.163,0.43,0.461,0.756,0.795,0.872c0.444,0.152,0.97-0.022,1.475-0.234
										c1.415-0.594,2.754-1.362,3.981-2.281c0.146-0.107,0.354-0.082,0.464,0.067c0.11,0.146,0.08,0.354-0.067,0.464
										c-1.27,0.951-2.656,1.745-4.12,2.361C504.053,350.273,503.592,350.433,503.129,350.433z"/>
								</g>
								<g>
									<path style="fill:#E07E58;" d="M495.248,360.445c-0.038,0-0.076-0.001-0.115-0.005c-0.665-0.064-1.285-0.539-1.578-1.212
										c-0.24-0.553-0.271-1.234-0.086-1.919c0.048-0.176,0.229-0.28,0.406-0.233c0.177,0.048,0.282,0.229,0.234,0.407
										c-0.145,0.54-0.126,1.066,0.054,1.482c0.196,0.448,0.611,0.776,1.033,0.816c0.378,0.026,0.832-0.348,1.201-0.657
										l1.156-0.935c2.437-1.962,4.199-3.38,6.573-5.544c0.135-0.123,0.346-0.114,0.468,0.022
										c0.124,0.135,0.114,0.345-0.021,0.468c-2.389,2.178-4.249,3.676-6.604,5.57l-1.147,0.929
										C496.386,359.995,495.848,360.445,495.248,360.445z"/>
								</g>
								<g>
									<path style="fill:#E07E58;" d="M496.414,363.641c-0.547,0-1.052-0.198-1.386-0.563c-0.692-0.759-0.473-1.9-0.039-2.716
										c0.087-0.161,0.289-0.219,0.449-0.136c0.162,0.087,0.223,0.287,0.137,0.449c-0.313,0.587-0.516,1.45-0.057,1.956
										c0.345,0.377,0.952,0.407,1.403,0.269c0.52-0.158,0.977-0.51,1.477-0.918c2.557-2.093,5.026-4.38,7.413-6.592l0.471,0.468
										c-2.415,2.238-4.892,4.533-7.464,6.637c-0.556,0.455-1.068,0.846-1.704,1.04
										C496.879,363.606,496.642,363.641,496.414,363.641z"/>
								</g>
								<g>
									<path style="fill:#E07E58;" d="M498.451,365.212c-0.121,0-0.242-0.009-0.364-0.028c-0.626-0.104-1.303-0.588-1.386-1.313
										c-0.021-0.181,0.11-0.346,0.292-0.367c0.17-0.022,0.346,0.109,0.367,0.291c0.045,0.394,0.464,0.672,0.834,0.733
										c0.475,0.082,0.977-0.083,1.404-0.25c1.424-0.558,2.8-1.462,4.208-2.766c0.661-0.611,1.406-1.154,2.196-1.729
										c0.776-0.565,1.579-1.147,2.441-1.89c0.14-0.12,0.349-0.104,0.467,0.035c0.12,0.139,0.104,0.348-0.035,0.467
										c-0.883,0.759-1.734,1.378-2.484,1.923c-0.773,0.563-1.504,1.094-2.135,1.68c-1.469,1.361-2.914,2.308-4.416,2.896
										C499.427,365.057,498.951,365.212,498.451,365.212z"/>
								</g>
								<g>
									<path style="fill:#E07E58;" d="M504.268,364.983c-0.121,0-0.242-0.016-0.363-0.051c-0.729-0.207-1.052-0.948-1.271-1.646
										c-0.054-0.175,0.043-0.361,0.218-0.416c0.176-0.053,0.361,0.043,0.416,0.216c0.166,0.53,0.393,1.087,0.819,1.208
										c0.324,0.091,0.7-0.083,1.061-0.284c1.845-1.027,3.493-2.414,5.087-3.757l2.359-1.985c0.141-0.117,0.351-0.098,0.468,0.04
										c0.118,0.14,0.1,0.35-0.04,0.467l-2.359,1.985c-1.618,1.363-3.291,2.772-5.193,3.83
										C505.107,364.791,504.695,364.983,504.268,364.983z"/>
								</g>
							</g>
							
								<linearGradient id="SVGID_00000020361804503078265590000013135423394342531491_" gradientUnits="userSpaceOnUse" x1="-744.5233" y1="207.8404" x2="-742.2488" y2="326.1177" gradientTransform="matrix(1 0 0 1 1219.4365 0)">
								<stop  offset="0" style="stop-color:#FAAD1E"/>
								<stop  offset="0.9959" style="stop-color:#F2830B"/>
							</linearGradient>
							<path style="fill:url(#SVGID_00000020361804503078265590000013135423394342531491_);" d="M468.434,211.787
								c-8.648,0.759-20.188,3.757-29.58,13.149c-9.392,9.392-15.254,22.918-16.961,28.8c0,0,10.561,10.854,16.443,10.854
								l11.903-10.435c-1.708,13.281-2.88,73.587-2.121,80.228c0,0,50.503-5.094,61.128-3.197
								c1.328-10.056-4.933-74.754-4.933-74.754l7.02,15.938c0,0,15.748-2.846,18.404-8.348c1.328-8.158-8.253-31.59-15.368-38.705
								c-7.115-7.115-25.765-12.011-25.765-12.011c-1.047,1.048-5.183,5.275-12.893,5.275
								C472.037,218.58,469.023,214.144,468.434,211.787z"/>
							<g>
								<path style="fill:#C16810;" d="M449.646,273.748c-0.005,0-0.009,0-0.014,0c-0.275-0.008-0.491-0.237-0.483-0.512
									l0.362-12.651c0.058-1.995,0.115-3.995,0.233-5.964c0.289-4.841,0.954-9.699,1.976-14.44
									c0.058-0.268,0.324-0.436,0.591-0.381c0.268,0.058,0.439,0.323,0.381,0.591c-1.012,4.692-1.669,9.5-1.956,14.29
									c-0.118,1.953-0.175,3.945-0.23,5.871l-0.363,12.712C450.135,273.534,449.914,273.748,449.646,273.748z"/>
							</g>
							<g>
								<path style="fill:#C16810;" d="M512.063,272.832c-0.18,0-0.354-0.097-0.442-0.268c-4.385-8.433-8.204-17.256-11.353-26.225
									c-0.091-0.259,0.045-0.543,0.305-0.634c0.258-0.089,0.543,0.045,0.634,0.305c3.133,8.924,6.934,17.703,11.296,26.095
									c0.127,0.243,0.032,0.544-0.212,0.671C512.219,272.814,512.14,272.832,512.063,272.832z"/>
							</g>
						</g>
					</g>
					<g>
						
							<linearGradient id="SVGID_00000052101739093235019200000016006967444091615136_" gradientUnits="userSpaceOnUse" x1="-3639.7996" y1="319.6604" x2="-3641.2454" y2="337.6208" gradientTransform="matrix(0.9989 0.0477 -0.0477 0.9989 4131.939 54.1174)">
							<stop  offset="0" style="stop-color:#FFC085"/>
							<stop  offset="1" style="stop-color:#FA976E"/>
						</linearGradient>
						<path style="fill:url(#SVGID_00000052101739093235019200000016006967444091615136_);" d="M488.91,199.323
							c-0.935,4.659,0.878,15.695,0.878,15.695c-9.223,12.598-22.147,3.455-22.147,3.455c1.637-2.764,2.564-16.928,2.564-16.928
							L488.91,199.323z"/>
						<g>
							
								<linearGradient id="SVGID_00000174593282005334519100000000154837473905176989_" gradientUnits="userSpaceOnUse" x1="-3633.2241" y1="-282.0893" x2="-3625.7659" y2="-284.7052" gradientTransform="matrix(0.9956 -0.0938 0.0938 0.9956 4102.7588 112.3814)">
								<stop  offset="0" style="stop-color:#263681"/>
								<stop  offset="0.9959" style="stop-color:#1A1248"/>
							</linearGradient>
							<path style="fill:url(#SVGID_00000174593282005334519100000000154837473905176989_);" d="M464.524,161.907
								c-6.997-0.467-9.573,13.511-0.156,15.194C473.785,178.783,474.869,162.597,464.524,161.907z"/>
							
								<linearGradient id="SVGID_00000000211426131494661730000010900492448009676734_" gradientUnits="userSpaceOnUse" x1="-3613.2598" y1="-288.2579" x2="-3616.1538" y2="-252.3029" gradientTransform="matrix(0.9956 -0.0938 0.0938 0.9956 4102.7588 112.3814)">
								<stop  offset="0" style="stop-color:#FFC085"/>
								<stop  offset="1" style="stop-color:#FA976E"/>
							</linearGradient>
							<path style="fill:url(#SVGID_00000000211426131494661730000010900492448009676734_);" d="M475.3,161.349
								c-15.584-0.16-17.553,39.896-2.48,46.507c15.072,6.611,23.837-23.133,21.489-32.954
								C491.96,165.082,486.654,161.465,475.3,161.349z"/>
							
								<linearGradient id="SVGID_00000162323175420824876770000010561139739418207380_" gradientUnits="userSpaceOnUse" x1="-3614.2781" y1="-297.9707" x2="-3612.2744" y2="-241.868" gradientTransform="matrix(0.9956 -0.0938 0.0938 0.9956 4102.7588 112.3814)">
								<stop  offset="0" style="stop-color:#263681"/>
								<stop  offset="0.9959" style="stop-color:#1A1248"/>
							</linearGradient>
							<path style="fill:url(#SVGID_00000162323175420824876770000010561139739418207380_);" d="M473.059,168.173
								c-4.133,4.049-10.464,2.648-13.068-3.975c-2.604-6.623,8.873-14.478,16.516-6.677c4.285-2.628,7.797,0.957,9.16,2.348
								c4.609-1.623,8.818,3.18,7.795,5.173c4.842,0.05,4.437,23.844-4.102,33.941c0.977-6.003-3.111-9.078-3.111-9.078
								c2.825-2.768,3.41-13.644-2.033-10.764c-1.513,0.801-1.707,3.656-1.707,3.656l-1.753-0.018c0,0,1.658-6.996,0.277-10.768
								C479.654,168.24,476.653,167.792,473.059,168.173z"/>
							
								<linearGradient id="SVGID_00000119093392960168017640000009429511936406383245_" gradientUnits="userSpaceOnUse" x1="-3623.282" y1="-297.6499" x2="-3621.2783" y2="-241.5459" gradientTransform="matrix(0.9956 -0.0938 0.0938 0.9956 4102.7588 112.3814)">
								<stop  offset="0" style="stop-color:#263681"/>
								<stop  offset="0.9959" style="stop-color:#1A1248"/>
							</linearGradient>
							<path style="fill:url(#SVGID_00000119093392960168017640000009429511936406383245_);" d="M480.758,182.779
								c-0.905,6.837-3.368,10.903-5.038,10.886c-1.67-0.017-4.807-3.472-7.395-3.499c-2.588-0.026-5.279,1.866-5.295,3.369
								c-0.015,1.503-2.507,14.084,1.616,16.242c4.123,2.157,15.744,1.155,17.938-2.715s-0.932-19.264-0.074-24.265L480.758,182.779
								z"/>
							<path style="fill:#F4EEFF;" d="M468.267,193.69c-0.526,0.019-1.937,0.091-2.599,0.465c-1.018,0.574-0.719,1.688,0.032,2.357
								c0.632,0.563,1.852,0.852,2.816,0.775c1.643-0.132,2.243-0.662,2.859-1.853c0.237-0.458,0.333-1.333-0.363-1.66
								C470.466,193.518,469.423,193.649,468.267,193.69z"/>
						</g>
					</g>
				</g>
				<g>
					<g>
						
							<linearGradient id="SVGID_00000161591102880480149050000014842998063366766268_" gradientUnits="userSpaceOnUse" x1="344.7445" y1="286.7229" x2="352.3432" y2="303.4962">
							<stop  offset="0" style="stop-color:#FFC085"/>
							<stop  offset="1" style="stop-color:#FA976E"/>
						</linearGradient>
						<path style="fill:url(#SVGID_00000161591102880480149050000014842998063366766268_);" d="M356.28,292.793
							c-1.415-1.414-2.988-1.271-5.086-0.286c-2.098,0.985-3.803,1.551-5.551,1.551c-1.748,0-6.415-2.448-6.415-2.448l-2.964,6.854
							c0,0,13.087,8.507,14.867,9.715c1.78,1.208,4.26,4.292,5.626,4.577c1.367,0.286,10.363-3.528,10.204-7.438
							c-0.413-1.24-3.544-4.18-4.863-5.499c-1.319-1.319-2.511-2.352-3.306-2.829C357.996,296.513,356.28,292.793,356.28,292.793z"
							/>
						
							<linearGradient id="SVGID_00000104670594489113560110000007373636528374293687_" gradientUnits="userSpaceOnUse" x1="356.4433" y1="289.4531" x2="372.2107" y2="308.1769">
							<stop  offset="0" style="stop-color:#FFC085"/>
							<stop  offset="1" style="stop-color:#FA976E"/>
						</linearGradient>
						<path style="fill:url(#SVGID_00000104670594489113560110000007373636528374293687_);" d="M356.661,291.617
							c-2.209,0.146-5.309,2.702-5.309,4.26c0,1.557-0.127,4.578,1.589,4.578c1.716,0,1.812-2.925,2.575-3.687
							c0.763-0.763,4.196,0.413,5.563,2.257c1.367,1.844,5.881,6.294,5.881,6.294s8.128-3.012,10.843-4.255
							c0-0.413-5.841-9.003-5.841-9.003C365.893,294.744,359.554,291.427,356.661,291.617z"/>
						
							<linearGradient id="SVGID_00000034801234110385835830000003794185509448290479_" gradientUnits="userSpaceOnUse" x1="347.0254" y1="305.1768" x2="343.9019" y2="305.4194">
							<stop  offset="0" style="stop-color:#FFC085"/>
							<stop  offset="1" style="stop-color:#FA976E"/>
						</linearGradient>
						<path style="fill:url(#SVGID_00000034801234110385835830000003794185509448290479_);" d="M345.026,303.845
							c-1.262,0.344-2.321,2.607-0.795,3.02c1.526,0.413,3.147-1.271,2.416-2.32C345.916,303.496,345.726,303.655,345.026,303.845z"
							/>
						
							<linearGradient id="SVGID_00000091714525359890093500000003099606525072021130_" gradientUnits="userSpaceOnUse" x1="356.6459" y1="308.8526" x2="347.6325" y2="309.5526">
							<stop  offset="0" style="stop-color:#FFC085"/>
							<stop  offset="1" style="stop-color:#FA976E"/>
						</linearGradient>
						<path style="fill:url(#SVGID_00000091714525359890093500000003099606525072021130_);" d="M347.292,305.795
							c-1.478,0.259-1.597,2.909,0,3.982c1.597,1.073,5.73,3.583,7.057,2.995c1.327-0.587,2.408-1.088,1.717-2.185
							C355.374,309.49,350.01,305.318,347.292,305.795z"/>
						<g>
							<path style="fill:#E07E58;" d="M365.613,307.9c-0.05,0-0.101-0.013-0.147-0.042c-2.734-1.694-5.184-3.961-7.086-6.555
								c-0.091-0.124-0.064-0.299,0.06-0.39c0.125-0.091,0.299-0.064,0.39,0.06c1.86,2.537,4.256,4.754,6.93,6.411
								c0.131,0.081,0.171,0.253,0.09,0.384C365.798,307.853,365.707,307.9,365.613,307.9z"/>
						</g>
						<g>
							<path style="fill:#E07E58;" d="M363.288,309.816c-0.048,0-0.097-0.012-0.142-0.039c-2.437-1.435-4.621-3.356-6.316-5.556
								c-0.094-0.122-0.072-0.297,0.051-0.391c0.122-0.094,0.297-0.071,0.391,0.051c1.652,2.143,3.781,4.016,6.158,5.415
								c0.133,0.078,0.177,0.249,0.099,0.382C363.477,309.767,363.384,309.816,363.288,309.816z"/>
						</g>
						<g>
							<path style="fill:#E07E58;" d="M360.728,311.442c-0.046,0-0.092-0.011-0.135-0.035c-2.063-1.145-3.912-2.677-5.348-4.431
								c-0.098-0.119-0.08-0.295,0.039-0.393c0.119-0.098,0.295-0.08,0.393,0.039c1.391,1.7,3.185,3.186,5.186,4.297
								c0.135,0.075,0.184,0.245,0.109,0.379C360.921,311.39,360.826,311.442,360.728,311.442z"/>
						</g>
						<g>
							<path style="fill:#E07E58;" d="M353.937,312.018c-0.028,0-0.057-0.004-0.085-0.013c-0.147-0.047-0.228-0.204-0.181-0.351
								c0.184-0.574,0.281-1.17,0.288-1.772c0.003-0.221-0.006-0.476-0.093-0.691c-0.078-0.193-0.222-0.338-0.376-0.379
								c-0.175-0.046-0.406,0.034-0.587,0.205c-0.177,0.166-0.305,0.39-0.44,0.628l-0.039,0.069c-0.16,0.278-0.355,0.594-0.653,0.81
								c-0.059,0.042-0.214,0.14-0.395,0.108c-0.102-0.017-0.191-0.073-0.249-0.156c-0.1-0.142-0.068-0.303-0.057-0.356
								c0.064-0.33,0.202-0.627,0.334-0.913c0.073-0.159,0.143-0.309,0.2-0.462c0.063-0.169,0.244-0.745-0.039-1.094
								c-0.158-0.195-0.457-0.288-0.744-0.233c-0.272,0.053-0.542,0.229-0.761,0.496c-0.224,0.272-0.377,0.61-0.497,0.904
								l-0.024,0.061c-0.111,0.279-0.236,0.595-0.5,0.649c-0.123,0.026-0.247-0.014-0.342-0.109l-0.034-0.034l-0.02-0.043
								c-0.056-0.117-0.041-0.246,0.02-0.676c0.057-0.402,0.136-0.953,0.087-1.297c-0.088-0.619-0.38-1.133-0.799-1.409
								c-0.129-0.085-0.164-0.258-0.079-0.387c0.085-0.129,0.258-0.164,0.386-0.08c0.553,0.364,0.934,1.019,1.045,1.797
								c0.031,0.223,0.023,0.495-0.001,0.765c0.092-0.17,0.199-0.34,0.328-0.497c0.301-0.367,0.687-0.612,1.086-0.689
								c0.491-0.096,0.995,0.073,1.284,0.428c0.322,0.396,0.369,0.994,0.129,1.64c-0.064,0.174-0.142,0.341-0.217,0.503
								c-0.031,0.066-0.061,0.131-0.089,0.195c0.042-0.066,0.081-0.133,0.12-0.2l0.039-0.068c0.15-0.263,0.305-0.534,0.543-0.758
								c0.328-0.309,0.743-0.435,1.112-0.338c0.326,0.086,0.607,0.351,0.751,0.71c0.124,0.307,0.137,0.63,0.134,0.907
								c-0.008,0.658-0.114,1.309-0.315,1.935C354.164,311.943,354.055,312.018,353.937,312.018z M349.163,309.169L349.163,309.169
								L349.163,309.169z"/>
						</g>
						<g>
							<path style="fill:#E07E58;" d="M366.713,305.368c-0.074,0-0.149-0.03-0.204-0.088l-4.628-4.946
								c-0.675-0.722-1.374-1.468-2.153-2.087c-0.858-0.682-1.724-1.128-2.573-1.327c-0.403-0.094-1.147-0.191-1.604,0.222
								c-0.298,0.269-0.415,0.693-0.54,1.143c-0.045,0.163-0.092,0.332-0.148,0.496c-0.273,0.791-0.804,1.487-1.494,1.96
								c-0.127,0.087-0.3,0.055-0.388-0.072c-0.087-0.127-0.055-0.301,0.072-0.388c0.592-0.406,1.047-1.003,1.282-1.682
								c0.051-0.147,0.093-0.3,0.138-0.462c0.14-0.507,0.285-1.031,0.704-1.409c0.478-0.432,1.226-0.556,2.105-0.351
								c0.93,0.217,1.869,0.7,2.793,1.433c0.811,0.644,1.524,1.406,2.213,2.143l4.628,4.946c0.105,0.113,0.1,0.289-0.013,0.394
								C366.85,305.343,366.781,305.368,366.713,305.368z"/>
						</g>
					</g>
					<g>
						
							<linearGradient id="SVGID_00000075162483786315920040000010121535592818189197_" gradientUnits="userSpaceOnUse" x1="509.9807" y1="171.1658" x2="475.1736" y2="270.6148" gradientTransform="matrix(1 0 0 1 -266.9261 0)">
							<stop  offset="0" style="stop-color:#263681"/>
							<stop  offset="0.9959" style="stop-color:#1A1248"/>
						</linearGradient>
						<path style="fill:url(#SVGID_00000075162483786315920040000010121535592818189197_);" d="M198.43,197.637
							c-0.829,5.656-0.268,11.793-3.217,16.69c-2.16,3.587-6.05,6.174-7.156,10.213c-1.313,4.796,1.788,9.661,2.012,14.628
							c0.351,7.795-6.373,14.926-4.96,22.599c1.58,8.582,12.335,12.757,14.807,21.126c1.121,3.793,0.396,8.105,2.302,11.57
							c1.496,2.72,4.334,4.387,6.447,6.662c2.709,2.917,4.168,6.769,6.516,9.984c2.348,3.215,6.288,5.917,10.115,4.82
							c4.381-1.256,6.028-6.501,6.837-10.986c7.249-40.179,2.534-81.904-9.24-120.997c-2.374-7.883-8.699-12.431-15.213-6.243
							C202.361,182.757,199.495,190.366,198.43,197.637z"/>
						
							<linearGradient id="SVGID_00000150786611200854962910000011654609301146046608_" gradientUnits="userSpaceOnUse" x1="3549.5195" y1="201.8466" x2="3583.6069" y2="201.8466" gradientTransform="matrix(-1 0 0 1 3821.4485 0)">
							<stop  offset="0" style="stop-color:#263681"/>
							<stop  offset="0.9959" style="stop-color:#1A1248"/>
						</linearGradient>
						<path style="fill:url(#SVGID_00000150786611200854962910000011654609301146046608_);" d="M254.974,170.824
							c2.001,0.758,4.051,1.736,5.256,3.505c2.048,3.007,1.054,7.363,3.14,10.343c0.799,1.14,1.971,1.954,2.971,2.923
							c3.439,3.332,4.681,8.743,3.041,13.241c-0.362,0.992-0.85,1.942-1.097,2.968c-0.707,2.942,0.651,5.938,1.89,8.699
							c1.239,2.76,2.404,5.903,1.332,8.733c-0.692,1.826-2.232,3.235-2.913,5.065c-0.737,1.981-0.462,4.416-1.892,5.973
							c-0.563,0.613-1.324,1-2.075,1.359c-1.994,0.951-4.082,1.801-6.283,1.986c-1.611,0.136-3.228-0.089-4.828-0.313
							c-2.438-0.341-4.876-0.683-7.315-1.024c-0.912-0.128-1.855-0.266-2.636-0.755c-1.191-0.745-1.776-2.148-2.205-3.486
							c-3.759-11.72-0.975-24.463-2.162-36.714c-0.411-4.243-1.302-8.447-1.354-12.709c-0.042-3.427,0.466-9.97,3.745-12.092
							c1.557-1.008,4.033-0.202,5.692,0.119C249.901,169.149,252.478,169.879,254.974,170.824z"/>
						
							<linearGradient id="SVGID_00000067195052761212247290000015892559260576701824_" gradientUnits="userSpaceOnUse" x1="3579.2197" y1="226.4449" x2="3578.0256" y2="210.7997" gradientTransform="matrix(-1 0 0 1 3821.4485 0)">
							<stop  offset="0" style="stop-color:#FFC085"/>
							<stop  offset="1" style="stop-color:#FA976E"/>
						</linearGradient>
						<path style="fill:url(#SVGID_00000067195052761212247290000015892559260576701824_);" d="M231.904,204.14
							c4.061,8.718,4.538,24.483,4.538,24.483s17.437,3.463,17.437,2.747c0-0.717-2.627-10.988-3.225-18.273
							C250.117,212.56,231.904,204.14,231.904,204.14z"/>
						
							<linearGradient id="SVGID_00000009552042263236157560000012706351309500943270_" gradientUnits="userSpaceOnUse" x1="220.382" y1="290.0267" x2="228.4387" y2="289.1786">
							<stop  offset="0" style="stop-color:#9571CB"/>
							<stop  offset="0.9959" style="stop-color:#6237C0"/>
						</linearGradient>
						<path style="fill:url(#SVGID_00000009552042263236157560000012706351309500943270_);" d="M238.786,234.014
							c-8.458-2.458-14.566,4.065-15.752,24.221c-1.186,20.156-2.541,36.924-1.016,42.006c1.524,5.081,14.736,43.022,14.736,43.022
							l9.316-3.218c0,0-9.402-38.448-9.402-45.393c0-6.944,4.728-31.504,6.252-39.804
							C244.444,246.548,244.715,235.737,238.786,234.014z"/>
						
							<linearGradient id="SVGID_00000152985283081316051320000007575292949705382792_" gradientUnits="userSpaceOnUse" x1="239.0593" y1="489.575" x2="226.3419" y2="496.287">
							<stop  offset="0" style="stop-color:#FFC085"/>
							<stop  offset="1" style="stop-color:#FA976E"/>
						</linearGradient>
						<path style="fill:url(#SVGID_00000152985283081316051320000007575292949705382792_);" d="M223.055,490.07
							c0,0.318-0.318,11.052-0.318,11.052s9.4,1.207,9.146,0c-0.254-1.207,1.27-11.878,1.27-11.878L223.055,490.07z"/>
						
							<linearGradient id="SVGID_00000150070946906293925150000012656322566832838276_" gradientUnits="userSpaceOnUse" x1="303.8708" y1="488.8748" x2="292.4672" y2="494.8933">
							<stop  offset="0" style="stop-color:#FFC085"/>
							<stop  offset="1" style="stop-color:#FA976E"/>
						</linearGradient>
						<path style="fill:url(#SVGID_00000150070946906293925150000012656322566832838276_);" d="M286.445,489.689
							c0.203,0.746,2.985,9.909,2.985,9.909s9.464,0.762,9.464,0.254c0-0.508-1.207-12.957-1.207-12.957L286.445,489.689z"/>
						
							<linearGradient id="SVGID_00000168837747333259557800000016065581331234302898_" gradientUnits="userSpaceOnUse" x1="217.9056" y1="508.1118" x2="259.1045" y2="508.1118">
							<stop  offset="0" style="stop-color:#263681"/>
							<stop  offset="0.9959" style="stop-color:#1A1248"/>
						</linearGradient>
						<path style="fill:url(#SVGID_00000168837747333259557800000016065581331234302898_);" d="M217.954,512.952
							c0.351,2.532,2.609,4.194,6.91,4.194c5.23,0,25.848,0.338,29.774,0c3.687-0.312,5.418-2.207,3.938-4.194
							c-0.1-0.13-0.213-0.26-0.339-0.39c-2.044-2.117-10.309-5.922-16.116-8.376c-5.807-2.454-9.807-5.259-9.807-5.259h-9.745
							c-2.12,4.831-4.001,8.817-4.578,12.284C217.891,511.822,217.879,512.406,217.954,512.952z"/>
						
							<linearGradient id="SVGID_00000078757036395492041210000002838404203250047650_" gradientUnits="userSpaceOnUse" x1="3500.239" y1="515.124" x2="3536.1941" y2="515.124" gradientTransform="matrix(-1.1445 0 0 1 4265.1279 0)">
							<stop  offset="0" style="stop-color:#FAAD1E"/>
							<stop  offset="0.9959" style="stop-color:#F2830B"/>
						</linearGradient>
						<path style="fill:url(#SVGID_00000078757036395492041210000002838404203250047650_);" d="M217.954,512.952
							c0.351,2.532,2.609,4.194,6.91,4.194c5.23,0,25.848,0.338,29.774,0c3.687-0.312,5.418-2.207,3.938-4.194H217.954z"/>
						
							<linearGradient id="SVGID_00000080191026485440765390000005242455649070144387_" gradientUnits="userSpaceOnUse" x1="284.1322" y1="508.1118" x2="325.3311" y2="508.1118">
							<stop  offset="0" style="stop-color:#263681"/>
							<stop  offset="0.9959" style="stop-color:#1A1248"/>
						</linearGradient>
						<path style="fill:url(#SVGID_00000080191026485440765390000005242455649070144387_);" d="M284.18,512.952
							c0.351,2.532,2.609,4.194,6.911,4.194c5.23,0,25.848,0.338,29.774,0c3.687-0.312,5.418-2.207,3.938-4.194
							c-0.1-0.13-0.213-0.26-0.339-0.39c-2.044-2.117-10.309-5.922-16.116-8.376c-5.807-2.454-9.807-5.259-9.807-5.259h-9.745
							c-2.12,4.831-4.001,8.817-4.578,12.284C284.118,511.822,284.105,512.406,284.18,512.952z"/>
						
							<linearGradient id="SVGID_00000096739934855970278520000010520507547392415105_" gradientUnits="userSpaceOnUse" x1="3442.3738" y1="515.124" x2="3478.3291" y2="515.124" gradientTransform="matrix(-1.1445 0 0 1 4265.1279 0)">
							<stop  offset="0" style="stop-color:#FAAD1E"/>
							<stop  offset="0.9959" style="stop-color:#F2830B"/>
						</linearGradient>
						<path style="fill:url(#SVGID_00000096739934855970278520000010520507547392415105_);" d="M284.18,512.952
							c0.351,2.532,2.609,4.194,6.911,4.194c5.23,0,25.848,0.338,29.774,0c3.687-0.312,5.418-2.207,3.938-4.194H284.18z"/>
						
							<linearGradient id="SVGID_00000117640760317203640950000013578850362336511126_" gradientUnits="userSpaceOnUse" x1="252.9465" y1="211.1925" x2="243.1226" y2="313.8355">
							<stop  offset="0" style="stop-color:#9571CB"/>
							<stop  offset="0.9959" style="stop-color:#6237C0"/>
						</linearGradient>
						<path style="fill:url(#SVGID_00000117640760317203640950000013578850362336511126_);" d="M235.475,224.825
							c3.523,1.906,17.971,2.16,17.971,2.16c5.494,10.925,14.812,15.159,18.707,25.153c5.838,14.976-9.273,50.305-6.352,63.262
							h-36.501c4.065-12.619-8.13-55.892-5.081-69.825C227.269,231.643,235.475,224.825,235.475,224.825z"/>
						
							<linearGradient id="SVGID_00000066502201914825166500000005031342159598746518_" gradientUnits="userSpaceOnUse" x1="338.9612" y1="361.1733" x2="233.6181" y2="416.771">
							<stop  offset="0" style="stop-color:#FAAD1E"/>
							<stop  offset="0.9959" style="stop-color:#F2830B"/>
						</linearGradient>
						<path style="fill:url(#SVGID_00000066502201914825166500000005031342159598746518_);" d="M231.249,312.859
							c-8.456,6.644-13.631,17.778-13.465,40.905c0.043,6.058,0.76,32.841,1.341,42.175c2.795,44.97,2.724,95.148,2.724,95.148
							c5.081,1.525,13.974,0,13.974,0l18.57-115.99l30.719,115.398c5.844,0,13.212-2.71,13.212-2.71s-8.13-71.774-11.179-88.542
							c-3.049-16.768,0.254-57.927-21.342-83.842C259.196,315.4,231.249,312.859,231.249,312.859z"/>
						<g>
							<path style="fill:#C16810;" d="M247.436,416.625c-0.028,0-0.057-0.003-0.086-0.008c-0.265-0.048-0.44-0.301-0.393-0.565
								c0.453-2.519,0.899-4.977,1.337-7.386c3.921-21.605,7.018-38.67,7.561-58.634c0.008-0.269,0.203-0.492,0.5-0.474
								c0.269,0.008,0.482,0.231,0.474,0.5c-0.544,20.039-3.648,37.137-7.577,58.783c-0.436,2.408-0.883,4.867-1.335,7.384
								C247.873,416.461,247.668,416.625,247.436,416.625z"/>
						</g>
						<g>
							<path style="fill:#9E86E0;" d="M268.493,289.557c-0.046,0-0.091-0.006-0.137-0.02c-0.259-0.076-0.406-0.347-0.33-0.605
								c1.575-5.346,3.203-10.875,4.072-16.473c0.964-6.221,0.836-11.852-0.382-16.737c-1.344-5.402-4.102-10.371-7.977-14.372
								c-0.186-0.193-0.181-0.501,0.011-0.688c0.192-0.187,0.502-0.183,0.689,0.011c3.993,4.123,6.836,9.246,8.223,14.813
								c1.248,5.011,1.381,10.772,0.397,17.122c-0.877,5.661-2.516,11.222-4.1,16.598
								C268.897,289.419,268.703,289.557,268.493,289.557z"/>
						</g>
						
							<linearGradient id="SVGID_00000107562516718117279420000017054698963649962126_" gradientUnits="userSpaceOnUse" x1="241.9772" y1="482.1589" x2="227.2971" y2="489.9067">
							<stop  offset="0" style="stop-color:#FAAD1E"/>
							<stop  offset="0.9959" style="stop-color:#F2830B"/>
						</linearGradient>
						<path style="fill:url(#SVGID_00000107562516718117279420000017054698963649962126_);" d="M220.536,486.641
							c-0.423,1.602,0.593,5.043,0.593,5.043s13.423,0.801,15.752,0l0.847-5.043C232.223,486.641,220.536,486.641,220.536,486.641z"
							/>
						
							<linearGradient id="SVGID_00000170969728119882707720000008202852294297420205_" gradientUnits="userSpaceOnUse" x1="312.5535" y1="168.162" x2="297.8733" y2="175.9099" gradientTransform="matrix(0.9819 -0.1894 0.1894 0.9819 -35.7986 371.7438)">
							<stop  offset="0" style="stop-color:#FAAD1E"/>
							<stop  offset="0.9959" style="stop-color:#F2830B"/>
						</linearGradient>
						<path style="fill:url(#SVGID_00000170969728119882707720000008202852294297420205_);" d="M282.743,486.126
							c-0.112,1.654,1.537,4.839,1.537,4.839s13.332-1.756,15.467-2.984l-0.124-5.112
							C294.219,483.912,282.743,486.126,282.743,486.126z"/>
						
							<linearGradient id="SVGID_00000160909982171200459180000013374540035969893798_" gradientUnits="userSpaceOnUse" x1="228.4039" y1="268.6772" x2="340.1003" y2="268.6772">
							<stop  offset="0" style="stop-color:#9571CB"/>
							<stop  offset="0.9959" style="stop-color:#6237C0"/>
						</linearGradient>
						<path style="fill:url(#SVGID_00000160909982171200459180000013374540035969893798_);" d="M249.314,242.752
							c13.752,8.488,40.055,30.757,44.393,32.383c5.42,2.033,46.393,16.216,46.393,16.216s-1.974,6.772-3.414,8.212
							c-6.436,0-42.683-7.067-49.797-9.903c-5.314-2.118-38.491-18.986-51.521-27.979c-9.223-6.366-8.355-18.517-2.797-22.108
							C238.019,236.052,241.749,238.083,249.314,242.752z"/>
						
							<linearGradient id="SVGID_00000027601848916911221180000010092423047204462760_" gradientUnits="userSpaceOnUse" x1="3568.9758" y1="181.364" x2="3589.9829" y2="208.0793" gradientTransform="matrix(-1 0 0 1 3821.4485 0)">
							<stop  offset="0" style="stop-color:#FFC085"/>
							<stop  offset="1" style="stop-color:#FA976E"/>
						</linearGradient>
						<path style="fill:url(#SVGID_00000027601848916911221180000010092423047204462760_);" d="M249.739,174.403
							c15.128,13.376,12.611,33.889,10.829,38.636c-1.351,3.599-3.026,4.677-8.759,2.925s-25.637-10.152-28.822-17.795
							c-3.185-7.644-5.414-16.879,1.592-23.886C231.586,167.277,241.334,166.971,249.739,174.403z"/>
						
							<linearGradient id="SVGID_00000046309775462530096340000012209600611802003898_" gradientUnits="userSpaceOnUse" x1="506.2826" y1="168.2742" x2="470.7743" y2="269.7268" gradientTransform="matrix(1 0 0 1 -266.9261 0)">
							<stop  offset="0" style="stop-color:#263681"/>
							<stop  offset="0.9959" style="stop-color:#1A1248"/>
						</linearGradient>
						<path style="fill:url(#SVGID_00000046309775462530096340000012209600611802003898_);" d="M252.418,168.034
							c-5.647-3.188-14.018-4.553-20.514-4.336c-6.282,0.209-7.906,2.392-9.287,3.388c-2.283,1.646-3.245,4.702-5.578,6.277
							c-1.393,0.94-3.091,1.231-4.726,1.665c-1.494,2.718-2.715,5.587-3.612,8.568c-1.706,5.671-2.302,11.609-1.746,17.506
							c0.55,5.833,2.531,11.573,5.074,16.82c4.188,8.639,7.019,18.179,12.505,26.031c1.131-3.482,5.797-8.616,8.051-11.501
							c0.988-1.264,2.079-2.463,2.85-3.87c3.174-5.788,0.141-12.813-0.999-19.315c-0.316-1.803-0.475-3.688,0.049-5.442
							c0.947-3.171,3.968-5.446,4.716-8.67c0.453-1.952,0.08-4.234,1.38-5.759c1.902-2.232,5.485,0.533,8.396,0.175
							c2.694-0.331,9.402-1.831,10.21-5.653C260.534,177.542,257.089,170.67,252.418,168.034z"/>
						<path style="fill:#FFFFFF;" d="M261.319,204.704c-0.258,1.669-0.516,3.125-2.435,3.444c-1.918,0.32-4.943-1.882-5.423-3.444
							C255.011,203.603,260.84,204.242,261.319,204.704z"/>
					</g>
				</g>
			</g>
		</g>
		<g>
			<g>
				
					<linearGradient id="SVGID_00000149347480500303631000000001560722200961639829_" gradientUnits="userSpaceOnUse" x1="163.94" y1="219.3424" x2="147.6808" y2="275.0704">
					<stop  offset="0" style="stop-color:#FFE14D"/>
					<stop  offset="1" style="stop-color:#F7A523"/>
				</linearGradient>
				<circle style="fill:url(#SVGID_00000149347480500303631000000001560722200961639829_);" cx="151.758" cy="261.097" r="23.089"/>
				
					<linearGradient id="SVGID_00000058547239999742914880000003196394393468172455_" gradientUnits="userSpaceOnUse" x1="162.001" y1="225.9883" x2="148.3298" y2="272.8462">
					<stop  offset="0" style="stop-color:#FAAD1E"/>
					<stop  offset="0.9959" style="stop-color:#F2830B"/>
				</linearGradient>
				<circle style="fill:url(#SVGID_00000058547239999742914880000003196394393468172455_);" cx="151.758" cy="261.097" r="19.414"/>
				
					<text transform="matrix(1 0 0 1 142.563 271.6068)" style="fill:#FFC431; font-family:'Montserrat-Bold'; font-size:29.3007px;">$</text>
			</g>
			<g>
				
					<linearGradient id="SVGID_00000140700366614438355070000006256830776663179930_" gradientUnits="userSpaceOnUse" x1="567.2048" y1="157.6617" x2="550.6838" y2="214.2868">
					<stop  offset="0" style="stop-color:#FFE14D"/>
					<stop  offset="1" style="stop-color:#F7A523"/>
				</linearGradient>
				<circle style="fill:url(#SVGID_00000140700366614438355070000006256830776663179930_);" cx="554.826" cy="200.088" r="23.461"/>
				
					<linearGradient id="SVGID_00000007413074204972497810000008474323888984355247_" gradientUnits="userSpaceOnUse" x1="565.2346" y1="164.4147" x2="551.3433" y2="212.0269">
					<stop  offset="0" style="stop-color:#FAAD1E"/>
					<stop  offset="0.9959" style="stop-color:#F2830B"/>
				</linearGradient>
				<circle style="fill:url(#SVGID_00000007413074204972497810000008474323888984355247_);" cx="554.826" cy="200.088" r="19.727"/>
				
					<text transform="matrix(1 0 0 1 541.3355 210.0502)" style="fill:#FFC431; font-family:'Montserrat-Bold'; font-size:29.7724px;"></text>
			</g>
		</g>
	</g>
</g>
</svg>
